<svg width="64" height="64" viewBox="0 0 64 64" fill="none" xmlns="http://www.w3.org/2000/svg">
<path fill-rule="evenodd" clip-rule="evenodd" d="M48.8 58.4008C48.3589 58.4008 48 58.0419 48 57.6008C48 57.1596 48.3589 56.8008 48.8 56.8008C49.2411 56.8008 49.6 57.1596 49.6 57.6008C49.6 58.0419 49.2411 58.4008 48.8 58.4008Z" fill="#ECECFE"/>
<path fill-rule="evenodd" clip-rule="evenodd" d="M55.2004 8.00039C54.7593 8.00039 54.4004 7.64151 54.4004 7.20039C54.4004 6.75923 54.7593 6.40039 55.2004 6.40039C55.6415 6.40039 56.0004 6.75923 56.0004 7.20039C56.0004 7.64151 55.6415 8.00039 55.2004 8.00039Z" fill="#ECECFE"/>
<path fill-rule="evenodd" clip-rule="evenodd" d="M11.2004 9.6C10.7593 9.6 10.4004 9.24112 10.4004 8.8C10.4004 8.35884 10.7593 8 11.2004 8C11.6415 8 12.0004 8.35884 12.0004 8.8C12.0004 9.24112 11.6415 9.6 11.2004 9.6Z" fill="#ECECFE"/>
<path fill-rule="evenodd" clip-rule="evenodd" d="M31.9992 15.2C30.2319 15.2 28.7992 16.6327 28.7992 18.4C28.7992 20.1674 30.2319 21.6 31.9992 21.6C33.7665 21.6 35.1992 20.1674 35.1992 18.4C35.1992 16.6327 33.7665 15.2 31.9992 15.2ZM27.1992 18.4C27.1992 15.7491 29.3483 13.6 31.9992 13.6C34.6502 13.6 36.7992 15.7491 36.7992 18.4C36.7992 21.051 34.6502 23.2 31.9992 23.2C29.3483 23.2 27.1992 21.051 27.1992 18.4Z" fill="#E1000F"/>
<path fill-rule="evenodd" clip-rule="evenodd" d="M11.7784 12.2482C12.0832 12.5681 12.0709 13.0745 11.751 13.3792C7.46726 17.4602 4.79922 23.2179 4.79922 29.6001C4.79922 30.0419 4.44105 30.4001 3.99922 30.4001C3.55739 30.4001 3.19922 30.0419 3.19922 29.6001C3.19922 22.7622 6.05984 16.5912 10.6474 12.2208C10.9673 11.916 11.4737 11.9283 11.7784 12.2482Z" fill="#E1000F"/>
<path d="M55.9992 34.4001C55.9992 34.8419 55.641 35.2001 55.1992 35.2001C54.7574 35.2001 54.3992 34.8419 54.3992 34.4001C54.3992 33.9582 54.7574 33.6001 55.1992 33.6001C55.641 33.6001 55.9992 33.9582 55.9992 34.4001Z" fill="#E1000F"/>
<path fill-rule="evenodd" clip-rule="evenodd" d="M45.6337 23.2255C46.8762 23.0293 48 23.9896 48 25.2475C48 26.1614 47.3941 26.9647 46.5153 27.2157L37.3802 29.8258C37.0368 29.9239 36.8 30.2378 36.8 30.595V35.6729L40.1729 47.1407C40.6206 48.663 39.4794 50.1881 37.8927 50.1881C36.902 50.1881 36.0151 49.5735 35.6673 48.6459L32 38.8665L28.3327 48.6459C27.9849 49.5735 27.098 50.1881 26.1073 50.1881C24.5206 50.1881 23.3794 48.663 23.8271 47.1407L27.2 35.6729V30.595C27.2 30.2378 26.9632 29.9239 26.6198 29.8258L17.4847 27.2157C16.6059 26.9647 16 26.1614 16 25.2475C16 23.9896 17.1238 23.0293 18.3663 23.2255L31.8752 25.3585C31.9579 25.3716 32.0421 25.3716 32.1248 25.3585L45.6337 23.2255ZM46.4 25.2475C46.4 24.9728 46.1546 24.7631 45.8833 24.8059L32.3743 26.9389C32.1263 26.9781 31.8737 26.9781 31.6257 26.9389L18.1167 24.8059C17.8454 24.7631 17.6 24.9728 17.6 25.2475C17.6 25.4471 17.7323 25.6225 17.9242 25.6773L27.0593 28.2873C28.0897 28.5817 28.8 29.5234 28.8 30.595V35.7881C28.8 35.8645 28.7891 35.9405 28.7675 36.0138L25.3621 47.5922C25.2158 48.0897 25.5887 48.5881 26.1073 48.5881C26.4311 48.5881 26.7209 48.3873 26.8346 48.0841L31.2509 36.3072C31.368 35.995 31.6665 35.7881 32 35.7881C32.3335 35.7881 32.632 35.995 32.7491 36.3072L37.1654 48.0841C37.2791 48.3873 37.5689 48.5881 37.8927 48.5881C38.4113 48.5881 38.7842 48.0897 38.6379 47.5922L35.2325 36.0138C35.2109 35.9405 35.2 35.8645 35.2 35.7881V30.595C35.2 29.5234 35.9103 28.5817 36.9407 28.2873L46.0758 25.6773C46.2677 25.6225 46.4 25.4471 46.4 25.2475Z" fill="#000091"/>
<path fill-rule="evenodd" clip-rule="evenodd" d="M32 9.6C19.6288 9.6 9.6 19.6288 9.6 32C9.6 44.3712 19.6288 54.4 32 54.4C36.7362 54.4 41.1268 52.931 44.7443 50.4238C45.1074 50.1721 45.6058 50.2625 45.8575 50.6256C46.1092 50.9888 46.0188 51.4872 45.6557 51.7388C41.7792 54.4256 37.0722 56 32 56C18.7452 56 8 45.2548 8 32C8 18.7452 18.7452 8 32 8C45.2548 8 56 18.7452 56 32C56 32.4418 55.6418 32.8 55.2 32.8C54.7582 32.8 54.4 32.4418 54.4 32C54.4 19.6288 44.3712 9.6 32 9.6ZM53.7765 40.0599C54.1853 40.2276 54.3807 40.6949 54.213 41.1036C53.9228 41.811 53.5998 42.5014 53.2459 43.1729C52.3825 44.8115 51.3353 46.3378 50.1318 47.7244C49.8421 48.0581 49.3369 48.0938 49.0032 47.8042C48.6695 47.5146 48.6338 47.0093 48.9234 46.6756C50.0472 45.3809 51.0247 43.9561 51.8304 42.4271C52.1606 41.8004 52.462 41.1563 52.7327 40.4964C52.9004 40.0876 53.3677 39.8922 53.7765 40.0599Z" fill="#000091"/>
</svg>
