<svg width="16" height="16" viewBox="0 0 16 16" fill="none" xmlns="http://www.w3.org/2000/svg">
<g clip-path="url(#clip0_9_8728)">
<g clip-path="url(#clip1_9_8728)">
<g clip-path="url(#clip2_9_8728)">
<path d="M6.49952 3C6.89734 3 7.27888 2.84196 7.56018 2.56066C7.84148 2.27936 7.99952 1.89782 7.99952 1.5C7.99952 1.10218 7.84148 0.720644 7.56018 0.43934C7.27888 0.158035 6.89734 0 6.49952 0C6.1017 0 5.72016 0.158035 5.43886 0.43934C5.15755 0.720644 4.99952 1.10218 4.99952 1.5C4.99952 1.89782 5.15755 2.27936 5.43886 2.56066C5.72016 2.84196 6.1017 3 6.49952 3ZM6.23702 4C5.09952 4 4.06202 4.64062 3.55264 5.65938L2.10577 8.55313C1.85889 9.04688 2.05889 9.64688 2.55264 9.89375C3.04639 10.1406 3.64639 9.94062 3.89327 9.44687L4.99952 7.2375V8.5875C4.99952 9.11875 5.20889 9.62813 5.58389 10.0031L7.99952 12.4156V15C7.99952 15.5531 8.44639 16 8.99952 16C9.55264 16 9.99952 15.5531 9.99952 15V12.2063C9.99952 11.8094 9.84014 11.4281 9.55889 11.1469L7.99952 9.58438V6.66563L10.1995 9.6C10.5308 10.0406 11.1589 10.1313 11.5995 9.8C12.0401 9.46875 12.1308 8.84062 11.7995 8.4L9.39952 5.2C8.83389 4.44375 7.94327 4 6.99952 4H6.23702ZM5.00889 10.8375L4.03077 14.7563C3.89639 15.2906 4.2214 15.8344 4.75889 15.9688C5.29639 16.1031 5.83702 15.7781 5.9714 15.2406L6.6589 12.4844L5.00889 10.8344V10.8375ZM15.087 15.7844C15.2433 16.0125 15.5558 16.0688 15.7839 15.9094C16.012 15.75 16.0683 15.4406 15.9089 15.2125L12.2151 9.87813C12.1276 9.99687 12.0245 10.1062 11.8995 10.2C11.7433 10.3187 11.5714 10.4 11.3933 10.4469L15.087 15.7844Z" fill="black"/>
</g>
</g>
</g>
<defs>
<clipPath id="clip0_9_8728">
<rect width="16" height="16" fill="white"/>
</clipPath>
<clipPath id="clip1_9_8728">
<rect width="16" height="16" fill="white"/>
</clipPath>
<clipPath id="clip2_9_8728">
<rect width="16" height="16" fill="white"/>
</clipPath>
</defs>
</svg>
