<svg width="16" height="16" viewBox="0 0 16 16" fill="none" xmlns="http://www.w3.org/2000/svg">
<g clip-path="url(#clip0_9_8743)">
<g clip-path="url(#clip1_9_8743)">
<g clip-path="url(#clip2_9_8743)">
<path d="M0.970141 1.72749C0.710141 1.52249 0.33264 1.56999 0.127641 1.82999C-0.0773595 2.08999 -0.0298595 2.46749 0.230141 2.67249L15.0301 14.2725C15.2901 14.4775 15.6676 14.43 15.8726 14.17C16.0776 13.91 16.0301 13.5325 15.7701 13.3275L13.1401 11.2675C14.1301 10.2525 14.8001 9.11499 15.1376 8.30749C15.2201 8.10999 15.2201 7.88999 15.1376 7.69249C14.7651 6.79999 13.9826 5.49999 12.8126 4.41499C11.6376 3.31999 10.0201 2.39999 8.00014 2.39999C6.29514 2.39999 4.87514 3.05749 3.76764 3.91999L0.970141 1.72749ZM5.57514 5.33749C6.79014 4.22999 8.65014 4.06749 10.0576 5.04499C11.5776 6.10499 12.0301 8.12499 11.1626 9.71749L10.2001 8.96249C10.4101 8.47999 10.4651 7.92749 10.3201 7.37999C10.0426 6.34249 9.12514 5.64499 8.10514 5.60249C7.96014 5.59749 7.87514 5.75499 7.92014 5.89499C7.97264 6.05499 8.00264 6.22499 8.00264 6.40249C8.00264 6.65749 7.94264 6.89749 7.83764 7.10999L5.57514 5.33749ZM11.1526 12.7875L2.07764 5.63749C1.80264 5.99749 1.56514 6.35499 1.36764 6.69249L9.84264 13.335C10.3101 13.1975 10.7476 13.01 11.1576 12.79L11.1526 12.7875ZM0.862641 8.30749C1.23514 9.19999 2.01764 10.5 3.18764 11.585C4.36264 12.68 5.98014 13.6 8.00014 13.6C8.07764 13.6 8.15264 13.5975 8.23014 13.595L0.82764 7.79499C0.782641 7.96499 0.795141 8.14499 0.862641 8.30749Z" fill="black"/>
</g>
</g>
</g>
<defs>
<clipPath id="clip0_9_8743">
<rect width="16" height="16" fill="white"/>
</clipPath>
<clipPath id="clip1_9_8743">
<rect width="16" height="16" fill="white"/>
</clipPath>
<clipPath id="clip2_9_8743">
<rect width="16" height="12.8" fill="white" transform="translate(0 1.59998)"/>
</clipPath>
</defs>
</svg>
