<svg width="16" height="16" viewBox="0 0 16 16" fill="none" xmlns="http://www.w3.org/2000/svg">
<g clip-path="url(#clip0_9_8747)">
<g clip-path="url(#clip1_9_8747)">
<g clip-path="url(#clip2_9_8747)">
<path d="M3.915 2.75744C4.1125 2.36244 3.9525 1.88244 3.5575 1.68494C3.1625 1.48744 2.6825 1.64744 2.485 2.04244L0.3375 6.33494C0.115 6.77994 0 7.26994 0 7.76744V7.99994C0 9.76744 1.4325 11.1999 3.2 11.1999H5H5.2V11.1924C6.08 11.1249 6.835 10.6224 7.2525 9.89994C7.4725 9.51744 7.3425 9.02744 6.96 8.80744C6.5775 8.58744 6.0875 8.71744 5.8675 9.09994C5.6925 9.39994 5.37 9.59994 5 9.59994C4.4475 9.59994 4 9.15244 4 8.59994C4 8.04744 4.4475 7.59994 5 7.59994C5.37 7.59994 5.6925 7.79994 5.8675 8.09994C6.0875 8.48244 6.5775 8.61244 6.96 8.39244C7.3425 8.17244 7.4725 7.68244 7.2525 7.29994C6.9325 6.74744 6.4125 6.32244 5.7925 6.12244L7.8125 5.57244C8.2375 5.45744 8.49 5.01744 8.375 4.58994C8.26 4.16244 7.82 3.91244 7.3925 4.02744L4.8725 4.71494L6.9125 3.01494C7.2525 2.73244 7.2975 2.22744 7.015 1.88744C6.7325 1.54744 6.2275 1.50244 5.8875 1.78494L3.34 3.90744L3.915 2.75744ZM12.085 13.2424C11.8875 13.6374 12.0475 14.1174 12.4425 14.3149C12.8375 14.5124 13.3175 14.3524 13.515 13.9574L15.6625 9.66494C15.885 9.21994 16 8.72994 16 8.23494V7.99994C16 6.23244 14.5675 4.79994 12.8 4.79994H11H10.8V4.80744C9.92 4.87494 9.165 5.37744 8.7475 6.09994C8.525 6.48244 8.6575 6.97244 9.04 7.19244C9.4225 7.41244 9.9125 7.28244 10.1325 6.89994C10.3075 6.59994 10.63 6.39994 11 6.39994C11.5525 6.39994 12 6.84744 12 7.39994C12 7.95244 11.5525 8.39994 11 8.39994C10.63 8.39994 10.3075 8.19994 10.1325 7.89994C9.91 7.51744 9.4225 7.38744 9.04 7.60744C8.6575 7.82745 8.5275 8.31744 8.7475 8.69994C9.0675 9.25244 9.5875 9.67744 10.2075 9.87744L8.1875 10.4274C7.76 10.5449 7.51 10.9824 7.625 11.4099C7.74 11.8374 8.18 12.0874 8.6075 11.9724L11.125 11.2849L9.085 12.9849C8.745 13.2674 8.7 13.7724 8.9825 14.1124C9.265 14.4524 9.77 14.4974 10.11 14.2149L12.6575 12.0924L12.0825 13.2424H12.085Z" fill="black"/>
</g>
</g>
</g>
<defs>
<clipPath id="clip0_9_8747">
<rect width="16" height="16" fill="white"/>
</clipPath>
<clipPath id="clip1_9_8747">
<rect width="16" height="16" fill="white"/>
</clipPath>
<clipPath id="clip2_9_8747">
<rect width="16" height="12.8" fill="white" transform="translate(0 1.59998)"/>
</clipPath>
</defs>
</svg>
