<svg width="102" height="102" viewBox="0 0 102 102" fill="none" xmlns="http://www.w3.org/2000/svg">
<path fill-rule="evenodd" clip-rule="evenodd" d="M80.325 6.37495C79.622 6.37495 79.05 5.80299 79.05 5.09995C79.05 4.39686 79.622 3.82495 80.325 3.82495C81.0281 3.82495 81.6 4.39686 81.6 5.09995C81.6 5.80299 81.0281 6.37495 80.325 6.37495Z" fill="#ECECFE"/>
<path fill-rule="evenodd" clip-rule="evenodd" d="M34.425 98.175C33.722 98.175 33.15 97.603 33.15 96.9C33.15 96.1969 33.722 95.625 34.425 95.625C35.1281 95.625 35.7 96.1969 35.7 96.9C35.7 97.603 35.1281 98.175 34.425 98.175Z" fill="#ECECFE"/>
<path fill-rule="evenodd" clip-rule="evenodd" d="M21.675 16.5749C20.972 16.5749 20.4 16.0029 20.4 15.2999C20.4 14.5968 20.972 14.0249 21.675 14.0249C22.3781 14.0249 22.95 14.5968 22.95 15.2999C22.95 16.0029 22.3781 16.5749 21.675 16.5749Z" fill="#ECECFE"/>
<path fill-rule="evenodd" clip-rule="evenodd" d="M62.6891 15.6179C62.2455 14.2249 61.7376 13.2774 60.9956 12.814C59.651 11.9744 58.5136 12.8469 57.8671 14.4663L57.7512 14.7469C57.172 16.0991 56.5806 16.714 55.207 17.6911L54.5923 18.1344C53.3057 19.0926 52.5091 19.9505 51.7293 21.4055C49.8867 24.8436 50.5358 29.2283 52.8892 31.2745C52.5079 32.0836 52.141 32.9537 51.788 33.8849C51.0615 32.5694 49.985 31.3779 48.6248 30.5342C47.222 29.664 46.1032 29.3193 44.5099 29.1328L43.7559 29.0563C42.0778 28.8968 41.2582 28.6601 40.0805 27.7786L39.8398 27.5936C38.4702 26.5144 37.0489 26.3275 36.3043 27.7269C35.8934 28.4992 35.9272 29.5737 36.2396 31.0019C36.759 33.3763 38.0707 36.5284 39.4142 38.5843C41.7265 42.1224 46.0294 43.7405 49.2424 42.7436C47.9453 48.8617 47.6836 54.6503 48.4629 60.1053C48.5625 60.8024 49.2083 61.2868 49.9054 61.1872C50.6024 61.0876 51.0868 60.4418 50.9872 59.7447C50.3655 55.3928 50.4466 50.7971 51.2339 45.955C51.5077 46.4903 51.8853 46.9756 52.3731 47.3849C55.35 49.8829 60.6234 48.7881 63.0708 44.9512C64.223 43.1448 65.2962 40.3596 65.6772 38.2368C65.9082 36.9497 65.8959 35.9618 65.4842 35.2412C64.7546 33.9642 63.4088 34.0802 62.1518 35.0333L61.9367 35.1918C60.9547 35.8928 60.2552 36.0616 58.781 36.1353L58.0707 36.1758C56.6278 36.2821 55.6094 36.5525 54.3496 37.2867C53.8538 37.5756 53.403 37.9176 53.0004 38.2995C53.6776 36.0084 54.4106 34.0291 55.1951 32.3629C59.2292 33.0146 63.4483 28.8827 63.731 23.7718C63.8666 21.3195 63.4265 17.9339 62.6891 15.6179ZM58.2766 27.6765C57.69 28.2632 57.1229 28.9824 56.5765 29.8339C58.7487 29.4572 61.007 26.8468 61.1849 23.631C61.3032 21.4905 60.9034 18.4146 60.2592 16.3916L60.1251 15.9982L60.0615 15.8286L59.9383 16.1025C59.2326 17.6181 58.4162 18.4984 56.9983 19.5425L56.3832 19.984C55.2035 20.8292 54.6047 21.4386 53.9769 22.6101C52.7945 24.8161 53.0805 27.4997 54.1519 28.9044C54.8792 27.7046 55.6524 26.6945 56.4735 25.8734C56.9714 25.3755 57.7787 25.3755 58.2766 25.8734C58.7745 26.3713 58.7745 27.1786 58.2766 27.6765ZM38.6196 29.8694L38.8642 30.0462C40.2331 31.0059 41.3802 31.36 43.1302 31.5553L43.8837 31.6301C45.3279 31.7722 46.1512 32.0006 47.2807 32.7012C49.4524 34.0482 50.5474 36.5919 50.2603 38.3494L46.6073 35.9141C46.0214 35.5235 45.2298 35.6818 44.8392 36.2677C44.4765 36.8118 44.5871 37.5332 45.0738 37.9462L45.1928 38.0358L48.565 40.284C46.4924 40.9891 43.2893 39.8524 41.5488 37.1893C40.3761 35.3948 39.1844 32.531 38.7307 30.457L38.6503 30.0492L38.6196 29.8694ZM63.229 37.3993L63.1497 37.4529C61.9208 38.2726 60.8729 38.5521 59.2848 38.66L58.5765 38.6988C57.3007 38.7669 56.5915 38.9316 55.6335 39.4898C54.274 40.2822 53.4568 41.6666 53.2691 42.9497L55.6969 42.1404L55.8406 42.1015C56.4655 41.9709 57.1029 42.3265 57.3096 42.9468C57.5323 43.6148 57.1713 44.3369 56.5032 44.5596L53.9773 45.4015C53.9888 45.4117 54.0004 45.4217 54.0122 45.4315C55.759 46.8973 59.2698 46.1684 60.9209 43.5799C61.8918 42.0577 62.8443 39.5857 63.1673 37.7864C63.1911 37.6537 63.2104 37.5282 63.229 37.3993Z" fill="#E1000F"/>
<path d="M28.2715 31.894C31.3179 32.4312 33.7143 36.4363 33.1307 39.7461C33.0084 40.4395 32.3471 40.9026 31.6537 40.7803C30.9602 40.658 30.4972 39.9967 30.6194 39.3032C30.9715 37.3066 29.4015 34.6826 27.8287 34.4053C26.075 34.0961 24.1178 35.2465 23.6794 36.9926L23.6356 37.1966L17.8311 60.1541L17.8092 60.3565C17.6393 62.2803 18.4199 64.824 20.1088 68.2089L20.5153 69.0066L20.8717 69.6831L21.4619 70.7682L22.1468 71.9919L23.3868 74.1785L24.2517 75.7201L25.1731 77.3981L25.6453 78.2852L26.0601 79.0916L26.4201 79.8245L26.631 80.2759L26.8194 80.7001L26.9862 81.0994L27.132 81.4758L27.2577 81.8315L27.364 82.1688C27.3802 82.2236 27.3955 82.2777 27.4101 82.3312L27.4888 82.6448C27.5004 82.696 27.5113 82.7465 27.5215 82.7966L27.5742 83.0916L27.6106 83.3767L27.6314 83.6543L27.6374 83.9265L27.6307 84.1501H40.7998C40.7999 84.0553 40.8106 83.959 40.8329 83.8627C42.5676 76.363 39.5015 68.7274 34.9879 65.7865L34.7323 65.6157C31.3071 63.2665 30.6423 60.2965 31.6257 54.8728L31.7813 54.0613C31.8091 53.9231 31.8379 53.7834 31.8677 53.6421L32.0152 52.9674L32.3667 51.2574C32.6763 49.8008 31.4556 47.3854 30.335 47.1472C29.0776 46.8799 28.3009 47.4038 28.0267 48.6929L26.8371 54.7652L26.07 58.5877L25.6022 60.8509L25.472 61.4659C25.1549 62.9533 26.1768 65.6409 28.6033 69.3799L29.1448 70.1971C29.3325 70.4748 29.5274 70.7579 29.7295 71.0462L30.3574 71.9268C30.7706 72.497 30.6434 73.2942 30.0733 73.7074C29.5031 74.1207 28.7059 73.9935 28.2927 73.4233L27.9568 72.9563L27.3169 72.0439L26.7194 71.1602C23.8382 66.8134 22.5539 63.5341 22.9345 61.1678L22.9781 60.9342L23.4074 58.8796L24.2333 54.7854L25.3972 48.8578L25.5279 48.185C26.0954 45.5152 28.2104 44.0886 30.8651 44.6529C33.4222 45.1965 35.3294 48.8412 34.9061 51.5433L34.8627 51.7792L34.5627 53.2388C34.5579 53.272 34.5517 53.3052 34.5442 53.3385L34.5123 53.484L34.3145 54.4463C34.3047 54.494 34.2923 54.5406 34.2776 54.5858L34.2094 54.9209L34.0757 55.6473L33.9651 56.333C33.3889 60.2176 34.0245 62.1153 36.3799 63.65L36.663 63.8404C41.8531 67.4406 45.1818 75.8504 43.3817 84.1501H47.175C47.8792 84.1501 48.45 84.7209 48.45 85.4251C48.45 86.0789 47.9578 86.6178 47.3237 86.6915L47.175 86.7001H21.675C20.9709 86.7001 20.4 86.1292 20.4 85.4251C20.4 84.7712 20.8922 84.2323 21.5263 84.1586L21.675 84.1501H25.0517L25.0544 84.0479L25.0461 83.8358L25.0236 83.6134L24.986 83.3787L24.9326 83.1299L24.8627 82.8651L24.7755 82.5826L24.6704 82.2804L24.5464 81.9567L24.3238 81.4268L24.1498 81.0412L23.9544 80.6277L23.6197 79.9508L23.2329 79.2006L22.7913 78.3707L22.1132 77.1296L20.8925 74.949L19.6794 72.8077L19.0142 71.6092L18.4324 70.5261L18.0747 69.8373C16.0057 65.7938 15.0208 62.712 15.2738 60.0782L15.3119 59.7513L15.339 59.6122L21.1439 36.6628C21.7129 33.4354 25.1264 31.3395 28.2715 31.894Z" fill="#000091"/>
<path d="M69.1105 39.7461C68.5269 36.4363 70.9233 32.4312 73.9697 31.894C77.1149 31.3395 80.5283 33.4354 81.0974 36.6628L86.9023 59.6122L86.9293 59.7513L86.9656 60.0622C87.2268 62.7751 86.1112 65.9757 83.776 70.2581L83.3707 70.991L82.9378 71.7539L82.209 73.0046L80.9214 75.1685L80.0481 76.6471L79.2844 77.9597L78.6246 79.1195L78.0631 80.14L77.703 80.8218L77.3926 81.4383L77.1295 81.9951L76.9792 82.3358L76.8481 82.6541L76.7356 82.9516L76.641 83.2301L76.5634 83.4911L76.5023 83.7364L76.457 83.9675L76.4316 84.1501H80.325L80.4737 84.1586C81.1078 84.2323 81.6 84.7712 81.6 85.4251C81.6 86.1292 81.0292 86.7001 80.325 86.7001H54.825L54.6763 86.6915C54.0422 86.6178 53.55 86.0789 53.55 85.4251C53.55 84.7209 54.1209 84.1501 54.825 84.1501H58.8549C57.0547 75.8504 60.3834 67.4406 65.5735 63.8404L65.8566 63.65C68.212 62.1153 68.8477 60.2176 68.2714 56.333L68.1608 55.6473L68.0271 54.9209C68.0065 54.8148 67.9852 54.7074 67.9632 54.5987C67.9466 54.5494 67.9328 54.4985 67.9221 54.4463L67.7151 53.4393L67.6924 53.3385C67.6848 53.3052 67.6787 53.2719 67.6738 53.2387L67.3739 51.7792L67.3304 51.5433C66.9071 48.8412 68.8143 45.1965 71.3714 44.6529C74.0262 44.0886 76.1412 45.5152 76.7086 48.185L76.9244 49.4684L77.5287 52.9911L77.9833 55.5529L78.2348 56.9277L78.5456 58.5723L78.7602 59.6647L79.022 60.9342C79.53 63.3167 78.2579 66.6685 75.2807 71.1602L74.6832 72.0439L74.0433 72.9563L73.7074 73.4233C73.2942 73.9935 72.497 74.1207 71.9268 73.7074C71.3567 73.2942 71.2295 72.497 71.6427 71.9268C71.751 71.7774 71.8574 71.6294 71.9621 71.4826L72.5683 70.6177L73.1314 69.7845C75.7486 65.8344 76.8565 63.0064 76.5281 61.4659L76.3934 60.8232L76.1021 59.3667L75.6967 57.2255L75.3392 55.2558L74.7477 51.8727L74.204 48.6603C73.9356 47.4038 73.1589 46.8799 71.9016 47.1472C70.7809 47.3854 69.5603 49.8008 69.8699 51.2574L70.2214 52.9677L70.3689 53.6421L70.5359 54.4715C71.625 60.1512 71.013 63.2092 67.5042 65.6157L67.2487 65.7865C62.7351 68.7274 59.669 76.363 61.4037 83.8627C61.426 83.959 61.4367 84.0553 61.4368 84.1501H73.8291L73.8308 84.0881L73.8531 83.8137C73.8581 83.7674 73.8638 83.7208 73.8702 83.6739L73.9165 83.3876L73.9798 83.0909L74.0609 82.7814L74.1605 82.4572C74.1969 82.3465 74.2365 82.2329 74.2795 82.1161L74.4187 81.756L74.5788 81.3748L74.7606 80.9703L74.965 80.5405L75.3155 79.8437L75.5797 79.3412L76.0236 78.5255L76.7086 77.3108L77.5059 75.9354L80.2599 71.2884L80.9376 70.1142L81.3435 69.39L81.7831 68.5815C83.7073 64.9748 84.6034 62.3098 84.4302 60.3406L84.41 60.1542L78.6056 37.1967L78.5619 36.9926C78.1234 35.2465 76.1662 34.0961 74.4126 34.4053C72.8397 34.6826 71.2697 37.3066 71.6218 39.3033C71.7441 39.9967 71.281 40.658 70.5876 40.7803C69.8941 40.9026 69.2328 40.4395 69.1105 39.7461Z" fill="#000091"/>
<path d="M70.38 76.5001C71.0842 76.5001 71.655 75.9292 71.655 75.2251C71.655 74.5209 71.0842 73.9501 70.38 73.9501C69.6759 73.9501 69.105 74.5209 69.105 75.2251C69.105 75.9292 69.6759 76.5001 70.38 76.5001Z" fill="#000091"/>
</svg>
