<svg width="16" height="16" viewBox="0 0 16 16" fill="none" xmlns="http://www.w3.org/2000/svg">
<g clip-path="url(#clip0_9_8725)">
<g clip-path="url(#clip1_9_8725)">
<path d="M11 1.5C11 1.10218 11.158 0.720644 11.4393 0.43934C11.7206 0.158035 12.1022 0 12.5 0C12.8978 0 13.2794 0.158035 13.5607 0.43934C13.842 0.720644 14 1.10218 14 1.5C14 1.89782 13.842 2.27936 13.5607 2.56066C13.2794 2.84196 12.8978 3 12.5 3C12.1022 3 11.7206 2.84196 11.4393 2.56066C11.158 2.27936 11 1.89782 11 1.5ZM7.39062 3.79063C7.22188 3.7125 7.025 3.73125 6.87813 3.84375L5.6 4.80312C5.15937 5.13438 4.53125 5.04375 4.2 4.60313C3.86875 4.1625 3.95938 3.53437 4.4 3.20312L5.67812 2.24375C6.41875 1.6875 7.40625 1.5875 8.24375 1.98125L11.0688 3.30938C11.9781 3.7375 12.2188 4.92188 11.5437 5.66875L10.3469 7H13.3906C14.3375 7 15.0469 7.86562 14.8625 8.79375L13.9812 13.1969C13.8719 13.7375 13.3469 14.0906 12.8031 13.9812C12.2594 13.8719 11.9094 13.3469 12.0188 12.8031L12.7812 9H10.5844C10.8531 9.6125 11 10.2875 11 11C11 13.7625 8.7625 16 6 16C3.2375 16 1 13.7625 1 11C1 8.2375 3.2375 6 6 6C6.34688 6 6.6875 6.03438 7.0125 6.10313L8.70625 4.40938L7.39062 3.79063ZM6 14C6.39397 14 6.78407 13.9224 7.14805 13.7716C7.51203 13.6209 7.84274 13.3999 8.12132 13.1213C8.3999 12.8427 8.62087 12.512 8.77164 12.1481C8.9224 11.7841 9 11.394 9 11C9 10.606 8.9224 10.2159 8.77164 9.85195C8.62087 9.48797 8.3999 9.15726 8.12132 8.87868C7.84274 8.6001 7.51203 8.37913 7.14805 8.22836C6.78407 8.0776 6.39397 8 6 8C5.60603 8 5.21593 8.0776 4.85195 8.22836C4.48797 8.37913 4.15726 8.6001 3.87868 8.87868C3.6001 9.15726 3.37913 9.48797 3.22836 9.85195C3.0776 10.2159 3 10.606 3 11C3 11.394 3.0776 11.7841 3.22836 12.1481C3.37913 12.512 3.6001 12.8427 3.87868 13.1213C4.15726 13.3999 4.48797 13.6209 4.85195 13.7716C5.21593 13.9224 5.60603 14 6 14Z" fill="black"/>
</g>
</g>
<defs>
<clipPath id="clip0_9_8725">
<rect width="16" height="16" fill="white"/>
</clipPath>
<clipPath id="clip1_9_8725">
<rect width="14" height="16" fill="white" transform="translate(1)"/>
</clipPath>
</defs>
</svg>
