<svg xmlns="http://www.w3.org/2000/svg" viewBox="0 0 56 56"><title>Fichier 4</title><g id="Calque_2" data-name="Calque 2"><g id="Calque_1-2" data-name="Calque 1"><path d="M39.87,12.19c-2.43,0-4.47,2.2-5.25,5.25h10.5C44.35,14.39,42.3,12.19,39.87,12.19Zm-19.34,25c2.53,1.43,6.29,3.5,10.5,3.5s8-2.08,10.5-3.5A46.21,46.21,0,0,1,31,38.41,46.23,46.23,0,0,1,20.52,37.24ZM49.51,0c.63,3.47,1.36,8.22,1.89,13.39.5-1.26,1.22-2.33,2.15-2.33s0,5,0,9,1,8,0,8a3.83,3.83,0,0,1-1.5-.28c-.16,6.67-1.12,12.73-3.56,16.36C44.59,50,35.13,56.5,26,51.06a9,9,0,0,1-3.56,1.82,17.27,17.27,0,0,1-4.65.58c-5.41,0-12-1.94-17.8-5.29V56H56V0ZM19.06,50.54c8.94-1.83,5.18-4.31,5.18-5.82,0-2.51,2-.67,2-2.68s-7.06-1.31-9.87-7.15c5.05,2,12.53,2.57,12.53.55s-.62-1.27-.62-2.28c0-2,9.09-1,4-7S28.29,0,28.29,0H0V44.89C0,45,10.12,52.37,19.06,50.54ZM14.68,12.19c2.43,0,4.47,2.2,5.25,5.25H9.43C10.19,14.39,12.25,12.19,14.68,12.19Z"/></g></g></svg>