<?xml version="1.0" encoding="UTF-8" standalone="no"?>
<svg
   xmlns:dc="http://purl.org/dc/elements/1.1/"
   xmlns:cc="http://creativecommons.org/ns#"
   xmlns:rdf="http://www.w3.org/1999/02/22-rdf-syntax-ns#"
   xmlns:svg="http://www.w3.org/2000/svg"
   xmlns="http://www.w3.org/2000/svg"
   xmlns:sodipodi="http://sodipodi.sourceforge.net/DTD/sodipodi-0.dtd"
   xmlns:inkscape="http://www.inkscape.org/namespaces/inkscape"
   height="2200"
   width="4266"
   version="1.1"
   id="svg664"
   sodipodi:docname="home2.svg"
   inkscape:version="0.92.5 (2060ec1f9f, 2020-04-08)">
  <metadata
     id="metadata670">
    <rdf:RDF>
      <cc:Work
         rdf:about="">
        <dc:format>image/svg+xml</dc:format>
        <dc:type
           rdf:resource="http://purl.org/dc/dcmitype/StillImage" />
        <dc:title></dc:title>
      </cc:Work>
    </rdf:RDF>
  </metadata>
  <defs
     id="defs668" />
  <sodipodi:namedview
     pagecolor="#ffffff"
     bordercolor="#666666"
     borderopacity="1"
     objecttolerance="10"
     gridtolerance="10"
     guidetolerance="10"
     inkscape:pageopacity="0"
     inkscape:pageshadow="2"
     inkscape:window-width="1864"
     inkscape:window-height="1016"
     id="namedview666"
     showgrid="false"
     inkscape:zoom="0.21266234"
     inkscape:cx="2905.7262"
     inkscape:cy="742.84813"
     inkscape:window-x="56"
     inkscape:window-y="27"
     inkscape:window-maximized="1"
     inkscape:current-layer="layer1" />
  <g
     inkscape:groupmode="layer"
     id="layer1"
     inkscape:label="bulle"
     style="display:inline">
    <path
       d="m 145.0869,2097.7736 c 0,-39.4346 -425.65002,-1377.9919 208.37537,-1805.66071 817.99013,-691.42049 1705.92503,105.80465 1975.00503,188.44094 350.8945,107.76434 463.2021,-56.04023 685.3066,-133.39198 164.0337,-67.15689 436.5731,-138.92046 779.2989,19.28484 592.1448,254.73397 556.1223,1288.58651 281.9419,1738.29841 l -3929.9278,-6.9726"
       id="path362"
       inkscape:connector-curvature="0"
       style="fill:#ebf3fa;stroke-width:1.13670659"
       sodipodi:nodetypes="ccccccc" />
  </g>
  <g
     inkscape:groupmode="layer"
     id="layer3"
     inkscape:label="ville"
     style="opacity:0.173">
    <g
       style="fill:#000000;stroke:none"
       transform="matrix(0.30621751,0,0,-0.33912612,149.70942,2450.8527)"
       id="g1231">
      <path
         inkscape:connector-curvature="0"
         d="M 11740,4540 V 3310 h -360 -360 v 170 170 l -60,47 c -43,33 -70,47 -93,47 l -32,1 -3,452 -2,452 -45,27 c -25,14 -53,27 -62,29 -10,2 -192,4 -405,4 l -388,1 v 156 155 l -32,40 -31,39 H 9103 8340 V 3795 2490 h -65 -65 l 2,578 3,579 -23,17 -23,18 2,738 1,737 -38,57 -37,56 -366,-2 -366,-3 -3,-762 -2,-763 h -160 -160 v -395 -395 l -277,-2 -278,-3 -3,-282 -2,-283 h -90 -90 v 1063 1062 l -247,347 -248,346 -3,-569 -2,-569 h -460 -460 v -560 -560 h -80 -80 v -195 -195 h -270 -270 v 545 545 l -38,50 -37,49 h -452 l -453,1 v -480 -479 l -112,-3 -113,-3 -3,-262 -2,-263 h -25 -25 v 705 705 h -395 -395 v -255 -255 h -80 -80 v 255 255 H 1575 1180 V 3215 2770 H 955 730 v 985 985 H 365 0 V 2868 997 l 548,6 c 301,4 881,7 1290,7 h 742 v 60 60 h 114 115 l 3,-47 3,-48 78,-3 c 42,-2 77,-6 77,-11 0,-7 8294,-29 9150,-24 212,2 450,6 530,10 l 145,8 3,322 2,323 h -195 -195 v 1983 l -1,1982 -62,72 -62,72 -272,1 h -273 z m -3401,-2572 1,-58 h -65 -65 l 1,73 c 1,109 5,115 62,113 26,0 48,4 48,9 3,24 18,-85 18,-137 z"
         id="path1229" />
    </g>
  </g>
  <g
     inkscape:groupmode="layer"
     id="layer2"
     inkscape:label="personnages">
    <path
       d="M 4231.6902,2117.5713 H 28.590308 c -2.611,0 -4.7492,-2.1347 -4.7492,-4.7424 v -1.5618 c 0,-2.6064 2.1382,-4.7424 4.7492,-4.7424 H 4231.6902 a 4.7582538,4.7582538 0 0 1 4.7434,4.7424 v 1.5618 a 4.7582538,4.7582538 0 0 1 -4.7434,4.7424"
       id="path364"
       inkscape:connector-curvature="0"
       style="fill:#2e3552;stroke-width:1.13670659" />
    <path
       d="m 2225.3189,1254.7325 c -2.7509,0 -5.4073,-1.5765 -6.627,-4.2285 l -24.6267,-52.8648 H 2112.37 a 7.3135702,7.3135702 0 0 1 -7.3078,-7.3204 c 0,-4.0319 3.2748,-7.3204 7.3078,-7.3204 h 86.3443 c 2.8441,0 5.4392,1.6528 6.6281,4.2286 l 26.6046,57.0934 c 1.6994,3.6522 0.1229,8.016 -3.5385,9.7143 a 7.279469,7.279469 0 0 1 -3.0896,0.6978"
       id="path366"
       inkscape:connector-curvature="0"
       style="fill:#233862;stroke-width:1.13670659" />
    <path
       d="m 2172.9088,1201.3562 h -62.761 c -6.078,0 -11.0636,-4.9719 -11.0636,-11.0488 0,-6.0927 4.9856,-11.0646 11.0636,-11.0646 h 62.761 c 6.0779,0 11.0647,4.9719 11.0647,11.0646 0,6.0769 -4.9868,11.0488 -11.0647,11.0488"
       id="path368"
       inkscape:connector-curvature="0"
       style="fill:#233862;stroke-width:1.13670659" />
    <path
       d="m 2109.0418,1167.3607 c 2.046,1.5607 38.4662,-3.0611 50.1811,4.3343 11.7308,7.3966 22.9773,27.9027 17.7178,35.2379 -5.2596,7.3204 -30.1603,-14.6703 -37.4966,-14.2918 -7.3203,0.3637 -28.3563,-6.1383 -28.3563,-6.1383 l -2.046,-19.1421"
       id="path370"
       inkscape:connector-curvature="0"
       style="fill:#ffb27d;stroke-width:1.13670659" />
    <path
       d="m 2120.1656,1164.4507 c 0,0 3.8046,6.6237 3.7443,12.3981 -0.1217,9.7303 -3.7443,14.368 -3.7443,14.368 0,0 -44.0428,3.5159 -91.4663,-3.3351 -26.3567,-3.8034 -53.7593,-10.8215 -75.2044,-23.431 -29.1305,-17.1267 -56.184,-78.0996 -76.3264,-136.3138 -21.3554,-61.71519 -34.9197,-120.33959 -34.9197,-120.33959 9.9121,-24.0073 36.1621,-38.4662 58.2448,-34.9197 12.1094,1.9403 40.4975,11.2762 46.9233,19.7185 9.8518,12.9437 37.6625,131.08489 59.5032,186.99609 4.8037,12.2764 113.2455,84.8585 113.2455,84.8585"
       id="path372"
       inkscape:connector-curvature="0"
       style="fill:#f9ddbf;stroke-width:1.13670659" />
    <path
       d="m 2028.6993,1187.8817 c -26.3567,-3.8034 -53.7593,-10.8215 -75.2044,-23.431 -29.1305,-17.1267 -56.184,-78.0996 -76.3264,-136.3138 -0.3184,-42.0434 -0.3184,-76.75049 -0.3184,-76.75049 l 47.6963,19.77879 c 1.455,2.9247 16.8539,147.2569 51.2734,176.5532 29.2508,24.8859 47.9235,37.0567 52.8795,40.1633"
       id="path374"
       inkscape:connector-curvature="0"
       style="fill:#eac3a2;stroke-width:1.13670659" />
    <path
       d="m 2641.2444,2026.8474 a 41.064662,41.064662 0 0 0 -22.9399,0 v -475.7629 h 22.9387 v 475.7629"
       id="path376"
       inkscape:connector-curvature="0"
       style="fill:#c3cedc;stroke-width:1.13670659" />
    <path
       d="m 2632.386,2106.5213 h -5.1845 c -21.2655,-1.3344 -38.0899,-19.0057 -38.0899,-40.6178 0,-18.4908 12.3287,-34.1036 29.2065,-39.0573 v 3.4851 h 22.9331 v -3.4863 c 16.9142,4.9561 29.2429,20.5677 29.2429,39.0573 0,21.6122 -16.8414,39.2846 -38.1081,40.619 m -2.5917,-54.5926 c -7.7057,0 -13.9598,6.2587 -13.9598,13.9748 0,7.7284 6.2541,13.9734 13.9587,13.9734 7.7239,0 13.9781,-6.245 13.9781,-13.9734 0,-7.7161 -6.2542,-13.9748 -13.977,-13.9748"
       id="path378"
       inkscape:connector-curvature="0"
       style="fill:#c3cedc;stroke-width:1.13670659" />
    <path
       d="m 2629.7807,2106.5986 c -0.8775,0 -1.7357,-0.015 -2.5951,-0.075 h 5.1902 c -0.8594,0.061 -1.7369,0.075 -2.5951,0.075"
       id="path380"
       inkscape:connector-curvature="0"
       style="fill:#2c3655;stroke-width:1.13670659" />
    <path
       d="m 2641.2444,2030.3336 h -22.9399 v -3.4862 a 41.064662,41.064662 0 0 1 22.9387,0 v 3.4862"
       id="path382"
       inkscape:connector-curvature="0"
       style="fill:#a3b0c4;stroke-width:1.13670659" />
    <path
       d="m 2629.7875,2079.8793 c -7.7069,0 -13.977,-6.2451 -13.977,-13.9758 0,-7.7137 6.2691,-13.9736 13.977,-13.9736 7.7251,0 13.977,6.2599 13.977,13.9736 0,7.7307 -6.2519,13.9758 -13.977,13.9758"
       id="path384"
       inkscape:connector-curvature="0"
       style="fill:#eee1d6;stroke-width:1.13670659" />
    <path
       d="m 2050.6753,1254.7359 a 7.3385777,7.3385777 0 0 1 -6.6383,-4.2285 l -24.6291,-52.8647 h -81.6758 c -4.0466,0 -7.3204,-3.2738 -7.3204,-7.3205 0,-4.0319 3.2738,-7.3204 7.3204,-7.3204 h 86.3443 a 7.337441,7.337441 0 0 1 6.6383,4.2286 l 26.5842,57.0934 c 1.7119,3.6522 0.1205,8.0171 -3.5317,9.7143 a 7.2862892,7.2862892 0 0 1 -3.0919,0.6978"
       id="path386"
       inkscape:connector-curvature="0"
       style="fill:#233862;stroke-width:1.13670659" />
    <path
       d="m 2369.0782,2081.1069 c -0.9094,-0.2273 -1.8187,-0.4547 -2.7281,-0.698 4.1762,-19.2024 19.6502,-76.1889 36.8748,-138.2826 0.9434,0.2729 1.9028,0.5002 2.8804,0.6672 -17.7816,64.0478 -33.1714,120.6569 -37.0271,138.3134 m 50.0595,-185.0695 a 20.926768,20.926768 0 0 0 -2.8123,-0.9093 c 17.2427,-61.6266 33.9125,-120.3102 40.8999,-144.9097 0.9434,0.2581 1.8869,0.5479 2.8121,0.8185 a 37590.395,37590.395 0 0 0 -40.8997,145.0005 m 156.0652,64.9287 a 37871.202,37871.202 0 0 0 -140.6584,-39.679 c 0.087,-0.8343 0.1228,-1.6676 0.1228,-2.5155 v -0.5162 c 59.7567,16.7335 116.3533,32.7827 141.3074,39.8916 -0.2456,0.939 -0.5081,1.8801 -0.7718,2.8191 m -186.9883,-52.6068 c -67.1793,-18.6727 -126.8996,-34.9037 -143.2034,-38.3139 0.2637,-0.8945 0.5093,-1.8038 0.7548,-2.6984 18.2862,3.834 78.726,20.2481 143.9048,38.3615 a 25.059834,25.059834 0 0 0 -1.4562,2.6508 m 156.9849,111.878 a 39767.991,39767.991 0 0 0 -113.383,-89.968 c 0.4693,-0.8923 0.8866,-1.8028 1.2503,-2.7565 a 37823.695,37823.695 0 0 1 113.9048,90.4057 c -0.5729,0.7877 -1.181,1.5607 -1.771,2.3188 m -151.0978,-119.7179 c -54.6324,-42.9982 -103.6551,-81.1608 -118.3687,-91.3912 0.5911,-0.7434 1.164,-1.472 1.7551,-2.1995 16.2776,11.3069 65.9415,49.9548 118.9939,91.7265 a 26.434112,26.434112 0 0 0 -2.3803,1.8642 m -153.2178,39.2858 c -0.141,-0.956 -0.2808,-1.9268 -0.4047,-2.8952 19.0535,-2.6531 79.7092,-11.0943 145.4984,-19.9913 -0.036,0.6047 -0.071,1.2276 -0.071,1.8494 0,0.3774 0.018,0.7423 0.035,1.1219 -55.5406,7.5012 -109.8696,15.0046 -145.0574,19.9152 m 193.2174,-26.3875 a 23.534373,23.534373 0 0 0 -0.8446,-2.8646 c 62.1858,-8.2752 121.19,-15.8683 146.7636,-18.3236 0.1227,0.9388 0.2455,1.8642 0.3512,2.8031 -24.3789,2.4098 -82.609,9.8973 -146.2714,18.3851 m 40.1645,160.3097 a 40716.876,40716.876 0 0 0 -53.0115,-133.1766 c 0.882,-0.4399 1.7459,-0.9548 2.5757,-1.5004 a 35080.421,35080.421 0 0 1 53.1297,133.5551 c -0.8979,0.3796 -1.7959,0.7422 -2.6939,1.1219 m -71.1215,-178.2958 c -26.2432,-65.2015 -50.0299,-123.3555 -57.5174,-139.0875 0.8639,-0.3478 1.7278,-0.6967 2.6087,-1.0457 8.3185,17.4757 32.3587,76.2503 57.805,139.4511 -0.9821,0.1671 -1.9484,0.3944 -2.8963,0.6821 m -126.4348,126.4745 c -0.5911,-0.7582 -1.1992,-1.5323 -1.7903,-2.3041 a 36217.052,36217.052 0 0 1 114.4129,-88.3745 c 0.5036,0.8481 1.0594,1.6665 1.6687,2.4383 a 33733.496,33733.496 0 0 0 -114.2913,88.2403 m 152.9848,-117.9447 a 25.232613,25.232613 0 0 0 -1.9472,-2.2291 c 52.0089,-39.8154 100.976,-76.9164 119.3667,-89.6634 0.574,0.7423 1.1299,1.5004 1.6869,2.2575 -17.2097,11.9741 -65.6369,48.6828 -119.1064,89.6338"
       id="path388"
       inkscape:connector-curvature="0"
       style="fill:#c5d3e8;stroke-width:1.13670659" />
    <path
       d="m 2410.2838,1943.1539 c -1.4175,0 -2.819,-0.1216 -4.1705,-0.3638 a 25.104165,25.104165 0 0 1 -2.8691,-0.6672 24.339161,24.339161 0 0 1 -12.2458,-8.4571 c -0.6172,-0.7718 -1.1674,-1.5914 -1.6676,-2.4405 a 24.084539,24.084539 0 0 1 -3.4032,-11.3353 c -0.017,-0.3784 -0.017,-0.7422 -0.017,-1.1207 0,-0.623 0.017,-1.2447 0.067,-1.8506 a 24.575596,24.575596 0 0 1 2.2518,-8.5628 c 0.4343,-0.9094 0.9174,-1.804 1.4686,-2.6531 a 24.467609,24.467609 0 0 1 4.4037,-5.1834 24.989358,24.989358 0 0 1 2.3858,-1.8642 24.424415,24.424415 0 0 1 6.6726,-3.227 23.511639,23.511639 0 0 1 2.9031,-0.6821 24.127734,24.127734 0 0 1 4.2206,-0.3785 c 2.1029,0 4.1205,0.2717 6.0564,0.7571 0.9661,0.242 1.8847,0.5456 2.8019,0.9093 a 24.3187,24.3187 0 0 1 8.6083,5.6983 c 0.7002,0.698 1.3345,1.455 1.9359,2.2291 a 24.385766,24.385766 0 0 1 4.4206,9.4574 c 0.3331,1.5596 0.5343,3.1816 0.5672,4.8344 0.016,0.1671 0.016,0.3342 0.016,0.5161 0,0.8468 -0.05,1.6811 -0.1329,2.5155 a 24.300514,24.300514 0 0 1 -1.4846,6.2292 c -0.3672,0.9548 -0.7843,1.8641 -1.2686,2.7576 -1.8847,3.5317 -4.6536,6.5475 -7.974,8.7754 -0.8173,0.5456 -1.6675,1.0605 -2.5519,1.5004 a 24.342572,24.342572 0 0 1 -10.9942,2.6065"
       id="path390"
       inkscape:connector-curvature="0"
       style="fill:#eee1d6;stroke-width:1.13670659" />
    <path
       d="m 2415.9264,2106.5225 h -11.2636 c -103.1198,-2.9861 -186.0868,-87.7992 -186.0868,-191.634 0,-105.6989 86.0123,-191.7101 191.718,-191.7101 105.7058,0 191.7193,86.0112 191.7193,191.7101 0,103.8337 -82.9672,188.6479 -186.0869,191.634 m -46.8414,-25.4179 a 170.95158,170.95158 0 0 0 41.209,5.0174 c 22.6148,0 44.2021,-4.4104 63.9841,-12.398 0.9026,-0.3797 1.8062,-0.7423 2.6918,-1.1219 26.9706,-11.441 50.3992,-29.5987 68.2148,-52.3636 0.6025,-0.7582 1.205,-1.53 1.7892,-2.3189 12.7323,-16.8392 22.4192,-36.1017 28.246,-56.9569 0.2649,-0.939 0.5308,-1.879 0.7787,-2.8179 a 171.63247,171.63247 0 0 0 5.5255,-43.2563 c 0,-6.7156 -0.3899,-13.3381 -1.1515,-19.8559 -0.1053,-0.9378 -0.2296,-1.8631 -0.3534,-2.8031 -3.808,-28.827 -14.858,-55.4258 -31.222,-77.902 a 69.694891,69.694891 0 0 0 -1.6823,-2.2586 c -21.5861,-28.6597 -51.9589,-50.3482 -87.0751,-61.0344 -0.9208,-0.2727 -1.8598,-0.5592 -2.7987,-0.8183 a 170.86064,170.86064 0 0 0 -46.9459,-6.5475 c -21.8532,0 -42.7857,4.124 -62.0358,11.6251 -0.8855,0.349 -1.7528,0.698 -2.603,1.0458 -26.7763,10.9578 -50.1515,28.495 -68.1626,50.5902 -0.6025,0.7275 -1.1686,1.455 -1.7529,2.1984 -13.4585,17.0813 -23.748,36.7838 -29.9635,58.2154 -0.249,0.8934 -0.4968,1.8038 -0.7446,2.6984 a 171.18915,171.18915 0 0 0 -5.9677,44.8465 c 0,7.4558 0.4956,14.8068 1.4163,22.0215 0.1251,0.9707 0.2478,1.9403 0.4081,2.8952 4.3559,29.751 16.38,57.0467 34.0182,79.7956 0.6025,0.773 1.205,1.5483 1.8074,2.3041 22.5784,28.1153 53.8174,48.9853 89.643,58.5018 0.9036,0.2432 1.8073,0.4717 2.728,0.6979"
       id="path392"
       inkscape:connector-curvature="0"
       style="fill:#c3cedc;stroke-width:1.13670659" />
    <path
       d="m 2410.2827,2106.5998 c -1.8722,0 -3.7443,-0.015 -5.6336,-0.077 h 11.266 c -1.8722,0.062 -3.7603,0.077 -5.6324,0.077"
       id="path394"
       inkscape:connector-curvature="0"
       style="fill:#2c3655;stroke-width:1.13670659" />
    <path
       d="m 1998.2652,1201.3562 h -62.7463 c -6.0927,0 -11.0635,-4.9719 -11.0635,-11.0488 0,-6.0927 4.9708,-11.0646 11.0635,-11.0646 h 62.7463 c 6.0927,0 11.0647,4.9719 11.0647,11.0646 0,6.0769 -4.972,11.0488 -11.0647,11.0488"
       id="path396"
       inkscape:connector-curvature="0"
       style="fill:#233862;stroke-width:1.13670659" />
    <path
       d="m 2552.4028,1506.8074 c 0,0 35.4914,3.6546 39.8837,8.5334 4.374,4.881 20.4834,31.5402 20.9812,36.4961 0.4809,4.9721 0.1251,14.1112 -3.5555,12.6562 -3.6455,-1.4698 -18.991,-25.8567 -26.7604,-26.2193 -7.7705,-0.3808 -32.6462,-10.7771 -32.6462,-10.7771 l 2.0972,-20.6881"
       id="path398"
       inkscape:connector-curvature="0"
       style="fill:#ed985f;stroke-width:1.13670659" />
    <path
       d="m 2515.2269,1696.4136 -330.2395,3.3953 -148.5789,-464.3981 305.4717,-3.3953 173.3477,464.3981"
       id="path400"
       inkscape:connector-curvature="0"
       style="fill:#2b478b;stroke-width:1.13670659" />
    <path
       d="m 2408.6197,1255.6771 c 0,0 6.544,170.7493 22.4351,187.7385 10.286,10.9738 121.3275,63.3976 121.3275,63.3976 l -1.114,20.9313 c 0,0 -144.4412,-20.4448 -165.7443,-46.2106 -42.0149,-50.8641 -44.7998,-189.4969 -46.8186,-204.2287 -2.0541,-14.7316 40.1701,-44.286 69.9143,-21.6281"
       id="path402"
       inkscape:connector-curvature="0"
       style="fill:#ed985f;stroke-width:1.13670659" />
    <path
       d="m 2733.7132,1978.077 h -110.5288 c 0,0 -4.149,-17.6293 3.1111,-29.6317 6.4247,-10.6101 3.9626,-16.6562 -0.7785,-25.4316 5.0003,2.0462 11.4625,3.9103 18.6101,3.5 5.4993,-0.3172 11.3137,-2.8191 16.4254,-5.7745 4.7582,5.4107 25.1269,28.5098 31.497,33.0702 7.2215,5.2004 39.4414,3.3499 41.6637,24.2676"
       id="path404"
       inkscape:connector-curvature="0"
       style="fill:#1a3670;stroke-width:1.13670659" />
    <path
       d="m 2224.1163,1573.8618 c 7.3545,44.2713 46.6129,76.1446 91.4696,75.6 55.6497,-0.6683 136.9288,-1.7743 166.7299,-2.894 63.1497,-2.3802 86.8773,0.1648 86.6943,1.954 -2.8361,26.5217 -5.1584,15.2023 24.2573,13.1403 0,0 104.0553,-2.9406 72.9197,-74.1292 -31.1184,-71.1862 -326.7644,-93.377 -352.8882,-90.2828 -22.2273,2.6212 -100.5986,8.0308 -89.1826,76.6117"
       id="path406"
       inkscape:connector-curvature="0"
       style="fill:#ed7d2b;stroke-width:1.13670659" />
    <path
       d="m 2671.8445,1615.4687 c -1.331,50.3175 -9.1527,189.7846 10.4464,301.7864 4.9776,28.4019 -35.7722,29.2817 -36.0632,29.3123 -7.749,0.9242 -21.3496,1.5914 -25.8532,-4.017 -31.4505,-39.0255 -75.8274,-220.0949 -63.7579,-295.2846 5.8711,-36.6634 42.4264,-36.0109 71.9444,-49.5309 18.1771,-8.3207 43.8121,-2.2575 43.2835,17.7338"
       id="path408"
       inkscape:connector-curvature="0"
       style="fill:#ed7d2b;stroke-width:1.13670659" />
    <path
       d="m 2127.1984,1922.8761 h 22.9307 v -382.4937 h -22.9307 v 382.4937 m 175.5587,-972.51489 c 32.3585,-8.8822 67.0906,-0.9378 92.6642,20.78239 11.2796,9.5779 23.7379,21.6406 35.3891,36.0722 28.8564,35.7677 -20.1697,75.6252 -12.6606,87.8709 7.5421,12.2616 23.8731,21.3246 18.5022,48.1054 -5.388,26.7808 -48.9079,63.6408 -63.6396,66.0199 -149.4179,24.0834 -219.4049,-55.0314 -171.7417,-102.5901 47.6792,-47.5551 23.4515,-111.1721 62.7973,-138.69289 12.1549,-8.4946 25.7249,-14.0088 38.6891,-17.5678"
       id="path410"
       inkscape:connector-curvature="0"
       style="fill:#233862;stroke-width:1.13670659" />
    <path
       d="m 2413.5689,1243.3712 c -11.9355,9.3357 -27.115,17.3541 -46.4322,22.9921 -72.3696,21.1724 -104.036,-39.2095 -117.0467,-81.1608 9.6677,-6.3053 19.0205,-8.0933 24.4165,-9.0629 5.263,-0.9253 10.826,-1.6687 15.4103,-2.1689 7.8956,-6.7736 18.6727,-33.2987 19.0853,-73.537 l 3.5102,0.7139 58.7131,12.5026 c 0,0 -1.5891,18.5351 -1.9039,35.9813 -0.1978,13.6393 0.3637,26.6433 3.1293,29.6738 4.0387,1.1366 7.6637,2.3802 7.6637,2.3802 0.8775,1.288 0.9275,0.7128 0.6456,0.2729 0.8446,1.2276 18.2419,26.4477 32.8076,61.4128"
       id="path412"
       inkscape:connector-curvature="0"
       style="fill:#ffb27d;stroke-width:1.13670659" />
    <path
       d="m 2371.2243,1113.6627 c 0,0 -1.596,18.5068 -1.8733,35.9666 -32.961,-1.3947 -49.9389,-31.7062 -56.8467,-48.4692 l 58.72,12.5038"
       id="path414"
       inkscape:connector-curvature="0"
       style="fill:#ed985f;stroke-width:1.13670659" />
    <path
       d="m 2382.0071,1130.3462 c 0,0 -77.9736,0.1818 -77.362,-48.3942 0.6456,-48.5601 -9.0004,-81.245 40.8157,-83.4138 49.8322,-2.1688 59.2452,16.489 63.002,32.7531 3.7216,16.2594 -6.1553,97.7511 -26.4557,99.0549"
       id="path416"
       inkscape:connector-curvature="0"
       style="fill:#ffb27d;stroke-width:1.13670659" />
    <path
       d="m 2406.4997,1004.2615 c -11.849,-14.7794 -20.9893,-11.7012 -26.1578,-7.3829 -42.2776,-24.0322 -70.2303,10.2179 -70.2303,10.2179 -5.7177,34.7719 -31.1265,54.3778 -31.1265,54.3778 0,0 14.4077,10.2258 46.9642,1.0207 41.6466,-11.7796 54.0276,-49.1955 55.6895,-54.929 4.6855,4.3422 10.5862,6.9372 15.5547,16.6561 5.8995,11.5444 9.5722,18.2282 10.7851,37.6762 0,0 16.2867,-35.4733 -1.4778,-57.6368 m 362.8357,972.1046 h -277.1746 v 22.4592 h 277.1746 v -22.4602"
       id="path418"
       inkscape:connector-curvature="0"
       style="fill:#233862;stroke-width:1.13670659" />
    <path
       d="m 2190.1492,1573.864 c 7.3602,44.2714 46.605,76.1446 91.4754,75.599 55.6497,-0.6673 136.9253,-1.7744 166.7298,-2.8963 63.1554,-2.3791 86.883,0.1671 86.6841,1.9551 -2.8213,26.5251 -5.155,15.2035 24.2709,13.1403 0,0 104.0451,-2.9395 72.9198,-74.128 -31.1424,-71.1874 -326.7679,-93.377 -352.902,-90.284 -22.2078,2.6223 -100.5723,8.0319 -89.178,76.6139"
       id="path420"
       inkscape:connector-curvature="0"
       style="fill:#f99746;stroke-width:1.13670659" />
    <path
       d="m 2189.8287,1426.0752 c 5.3061,-36.2394 -7.6012,-173.4615 21.0574,-216.354 20.7403,-31.0093 49.482,-43.2403 84.9768,-43.8313 11.4103,6.4871 54.9212,30.9343 71.9694,26.5989 0.183,-0.061 0.5161,-0.1501 0.9481,-0.2887 8.0001,-2.5008 10.7452,-8.381 3.676,-12.8971 0,-0.015 29.0736,6.2746 38.1059,16.5197 8.6651,9.8519 8.2661,30.9798 11.0443,55.8805 0.682,6.1701 0.7809,12.3834 1.5299,18.5511 3.426,28.0096 -5.605,31.04 -36.4587,111.8667 -15.1034,39.5119 -8.0172,71.0669 2.0461,92.0732 9.0312,18.8557 2.711,41.4534 -14.9705,52.6387 -60.9252,38.5706 -179.4177,105.683 -183.5917,47.0289 -4.2251,-59.5179 -7.6511,-97.7261 -0.333,-147.7866"
       id="path422"
       inkscape:connector-curvature="0"
       style="fill:#f9ddbf;stroke-width:1.13670659" />
    <path
       d="m 2293.2269,1250.3857 c 0,0 29.2782,198.6964 48.7977,215.5356 12.6106,10.868 137.9212,31.04 137.9212,31.04 l 2.054,19.324 c 0,0 -178.7756,13.1245 -189.0105,-1.7892 -41.2943,-60.2454 -70.1825,-216.0947 -74.1542,-232.0699 -3.9716,-15.973 39.0038,-53.4844 74.3918,-32.0393"
       id="path424"
       inkscape:connector-curvature="0"
       style="fill:#ffb27d;stroke-width:1.13670659" />
    <path
       d="m 2699.7439,1976.5913 h -110.5288 c 0,0 -4.1195,-17.627 3.1123,-29.6306 6.4257,-10.61 3.9728,-16.6572 -0.7877,-25.4475 4.998,2.0621 11.4977,3.9251 18.6192,3.5171 5.5119,-0.3184 11.3329,-2.8191 16.4425,-5.7904 4.7593,5.4266 25.1371,28.5097 31.4901,33.0849 7.2136,5.2005 39.4187,3.3511 41.6524,24.2665"
       id="path426"
       inkscape:connector-curvature="0"
       style="fill:#2b478b;stroke-width:1.13670659" />
    <path
       d="m 2637.8786,1615.4664 c -1.3345,50.3174 -9.121,189.7845 10.4714,301.7877 4.9741,28.4017 -35.7949,29.2815 -36.0836,29.3122 -7.7501,0.9241 -21.3224,1.5913 -25.8647,-4.0159 -31.4333,-39.0278 -75.8081,-220.0972 -63.751,-295.2858 5.8937,-36.6633 42.4286,-36.012 71.9524,-49.5319 18.1861,-8.3207 43.8155,-2.2564 43.2744,17.7337"
       id="path428"
       inkscape:connector-curvature="0"
       style="fill:#f99746;stroke-width:1.13670659" />
    <path
       d="m 2394.9656,1101.6876 c 0,0 -7.5125,-2.4861 -28.0938,0.3773 0,0 1.5619,8.0172 16.8494,7.9274 8.664,-0.046 11.2444,-8.3047 11.2444,-8.3047"
       id="path430"
       inkscape:connector-curvature="0"
       style="fill:#ffffff;stroke-width:1.13670659" />
    <path
       d="m 2321.0478,1309.9788 c 0,0 -52.9819,45.9229 -114.5937,30.2364 0,0 -22.2078,-148.2572 54.9189,-150.3034 0,0 63.9011,25.3259 59.6748,120.067"
       id="path432"
       inkscape:connector-curvature="0"
       style="fill:#f9ddbf;stroke-width:1.13670659" />
    <path
       d="m 2520.6375,1698.6721 h -370.5118 v -29.1598 h 370.5118 v 29.1598"
       id="path434"
       inkscape:connector-curvature="0"
       style="fill:#233862;stroke-width:1.13670659" />
    <path
       d="m 2492.1767,1998.8241 26.4842,-15.2921 -181.2991,-314.0186 -26.5012,15.2932 181.3161,314.0175"
       id="path436"
       inkscape:connector-curvature="0"
       style="fill:#233862;stroke-width:1.13670659" />
    <path
       d="m 2150.1257,1669.5145 c 6.7635,0 32.4928,-24.2505 72.8516,-22.9467 40.3759,1.3027 265.5914,-0.061 265.5914,-0.061 0,0 29.4135,-3.0782 32.1677,23.0069 h -370.6117"
       id="path438"
       inkscape:connector-curvature="0"
       style="fill:#2d53a0;stroke-width:1.13670659" />
    <path
       d="m 2488.5859,2030.3313 h 22.9353 v -479.2525 h -22.9353 v 479.2514"
       id="path440"
       inkscape:connector-curvature="0"
       style="fill:#233862;stroke-width:1.13670659" />
    <path
       d="m 2479.9502,1496.9556 c 0,0 39.6552,2.2905 44.0304,7.1693 4.3934,4.8662 20.488,31.5413 20.9733,36.4962 0.4866,4.9571 0.1217,14.111 -3.5237,12.6402 -3.6807,-1.455 -18.8386,-27.7947 -26.616,-28.1597 -7.7785,-0.3785 -32.7974,-8.8208 -32.7974,-8.8208 l -2.0666,-19.324"
       id="path442"
       inkscape:connector-curvature="0"
       style="fill:#ffb27d;stroke-width:1.13670659" />
    <path
       d="m 2112.8213,1564.6465 h 432.1986 c 0,-26.5364 -21.5076,-48.044 -48.0509,-48.044 h -355.5391 c -15.8149,0 -28.6086,12.8221 -28.6086,28.6303 v 19.4148"
       id="path444"
       inkscape:connector-curvature="0"
       style="fill:#233862;stroke-width:1.13670659" />
    <path
       d="m 2093.6451,2087.1075 c -1.7016,-7.6545 84.6699,-311.2472 94.5115,-345.8338 l 2.8247,0.8037 c -26.4569,92.9075 -95.0287,335.9354 -94.4512,344.4675 l -2.885,0.5626"
       id="path446"
       inkscape:connector-curvature="0"
       style="fill:#2d53a0;stroke-width:1.13670659" />
    <path
       d="m 1968.7039,1866.5263 c 7.6535,-1.6983 311.2383,84.6618 345.8238,94.5137 l -0.7957,2.8191 c -92.9145,-26.4796 -335.9389,-95.0288 -344.4699,-94.4684 l -0.5582,-2.8644"
       id="path448"
       inkscape:connector-curvature="0"
       style="fill:#2d53a0;stroke-width:1.13670659" />
    <path
       d="m 2000.4988,1803.6141 c 7.7035,1.3788 254.52,198.1052 282.6546,220.5347 l -1.8267,2.2893 c -75.5352,-60.2454 -273.3302,-217.1871 -281.4428,-219.9595 l 0.6137,-2.8645"
       id="path450"
       inkscape:connector-curvature="0"
       style="fill:#2d53a0;stroke-width:1.13670659" />
    <path
       d="m 2321.5684,1891.5361 c -7.3386,-2.744 -319.9636,40.7998 -355.5697,45.7717 l 0.3989,2.91 c 95.6925,-13.3699 345.8498,-47.6666 354.2284,-45.9241 l 0.9435,-2.7576"
       id="path452"
       inkscape:connector-curvature="0"
       style="fill:#2d53a0;stroke-width:1.13670659" />
    <path
       d="m 2073.7823,1750.1275 c 6.0132,5.0322 122.1141,298.5446 135.3317,331.9956 l -2.7224,1.0753 c -35.5084,-89.8453 -128.8912,-324.4456 -134.5519,-330.8873 l 1.9426,-2.1824"
       id="path454"
       inkscape:connector-curvature="0"
       style="fill:#2d53a0;stroke-width:1.13670659" />
    <path
       d="m 2282.9817,1807.4175 c -7.7205,1.2732 -257.1434,194.6951 -285.5657,216.7325 l 1.796,2.3176 c 76.3186,-59.2292 276.1913,-213.5336 284.3359,-216.1856 l -0.5662,-2.8645"
       id="path456"
       inkscape:connector-curvature="0"
       style="fill:#2d53a0;stroke-width:1.13670659" />
    <path
       d="m 2114.2854,1918.7693 c 0,-13.4734 10.9124,-24.4017 24.3858,-24.4017 13.4745,0 24.3869,10.9283 24.3869,24.4017 0,13.4585 -10.9124,24.3857 -24.3869,24.3857 -13.4734,0 -24.3858,-10.9272 -24.3858,-24.3857"
       id="path458"
       inkscape:connector-curvature="0"
       style="fill:#f99746;stroke-width:1.13670659" />
    <path
       d="m 1967.4377,1914.8863 c 0,94.4228 76.813,171.2357 171.2403,171.2357 94.4114,0 171.2244,-76.8129 171.2244,-171.2357 0,-94.4058 -76.813,-171.2176 -171.2244,-171.2176 -94.4273,0 -171.2403,76.8118 -171.2403,171.2176 z m -20.4698,0 c 0,-105.6967 86.0043,-191.7079 191.7101,-191.7079 105.7217,0 191.7101,86.0112 191.7101,191.7079 0,105.716 -85.9884,191.7249 -191.7101,191.7249 -105.7058,0 -191.7101,-86.0089 -191.7101,-191.7249 m 593.7792,151.0182 c 0,-22.476 -18.2181,-40.6929 -40.6987,-40.6929 -22.4648,0 -40.6816,18.2169 -40.6816,40.6941 0,22.475 18.2168,40.7077 40.6816,40.7077 22.4806,0 40.6987,-18.2327 40.6987,-40.7089"
       id="path460"
       inkscape:connector-curvature="0"
       style="fill:#233862;stroke-width:1.13670659" />
    <path
       d="m 2486.0646,2065.9057 c 0,-7.7137 6.2667,-13.9736 13.9758,-13.9736 7.7092,0 13.9758,6.2599 13.9758,13.9736 0,7.7296 -6.2666,13.9746 -13.9758,13.9746 -7.7091,0 -13.9758,-6.245 -13.9758,-13.9746"
       id="path462"
       inkscape:connector-curvature="0"
       style="fill:#f99746;stroke-width:1.13670659" />
    <path
       d="m 1727.0629,934.15401 c -5.4869,-10.5793 119.6872,-48.6817 121.6731,55.74409 0,0 234.4798,-5.7597 122.5211,-136.46499 -38.7686,-45.2409 -34.7674,-82.6465 -33.6159,-117.4752 1.1822,-34.82873 -24.1436,-136.05586 -110.9278,-125.85619 0,0 -22.7341,-9.24484 -51.1063,5.47096 -64.5036,33.46465 -209.0176,357.09302 -48.5442,318.58133"
       id="path464"
       inkscape:connector-curvature="0"
       style="fill:#163560;stroke-width:1.13670659" />
    <path
       d="m 1568.4082,1987.9265 c 0,0 -26.2647,23.9766 -21.1427,41.0272 5.1231,17.0358 28.8428,28.3881 32.0403,49.2125 3.2134,20.8244 16.0196,32.1757 27.5538,32.1757 h 55.0018 c 0,0 8.4867,-14.6409 -12.0195,-19.066 -20.5062,-4.4105 -28.2358,-28.8871 -26.9627,-51.6065 1.289,-22.7193 -1.9097,-53.0013 -1.9097,-53.0013 l -43.5881,-10.0939 -8.9732,11.3523 m 222.4012,10.1848 c 0,0 -9.4278,102.8186 2.1063,108.5021 h 148.9086 c 0,0 -1.3039,-18.5805 -25.0223,-22.3703 -23.7049,-3.7887 -65.3687,-17.6713 -72.4162,-48.5897 -7.0476,-30.9184 -53.5764,-37.5421 -53.5764,-37.5421"
       id="path466"
       inkscape:connector-curvature="0"
       style="fill:#233862;stroke-width:1.13670659" />
    <path
       d="m 1685.6106,1269.3312 c 30.3728,-68.1273 48.9694,-87.6786 45.408,-108.8361 -2.6371,-15.7321 8.0479,-293.43749 8.0479,-293.43749 3.6068,-1.1207 10.8362,-2.121 14.7772,-3.0008 12.4583,-2.7578 22.7796,-11.5183 27.0684,-23.5367 5.1686,-14.4748 9.2903,-35.8596 9.1846,-62.6553 l 3.8955,0.773 65.4288,12.9425 c 0,0 -1.4857,20.5971 -1.5311,39.9973 v 0.4854 c -0.077,16.8381 10.9726,31.7209 27.1593,36.3893 8.2605,2.3792 15.4592,4.4253 15.4592,4.4253 0,0 24.0232,68.5968 28.6154,139.05779 4.5923,70.4758 -43.695,101.0908 0.3638,241.9059 44.9829,143.8309 -260.6696,53.1377 -243.877,15.4899"
       id="path468"
       inkscape:connector-curvature="0"
       style="fill:#ffb27d;stroke-width:1.13670659" />
    <path
       d="m 1859.421,791.58031 c 0,0 -1.4857,20.5971 -1.5311,39.9973 -36.6167,-1.031 -55.9714,-34.4342 -63.8977,-52.9398 l 65.4288,12.9425"
       id="path470"
       inkscape:connector-curvature="0"
       style="fill:#e8945b;stroke-width:1.13670659" />
    <path
       d="m 1871.652,809.94951 c 0,0 -86.633,1.4402 -86.6932,-52.5306 -0.061,-53.95607 -11.2761,-90.11811 44.028,-93.31567 55.3202,-3.19869 66.0813,17.38365 70.4917,35.40387 4.3945,17.99065 -5.2902,108.6851 -27.8265,110.4424"
       id="path472"
       inkscape:connector-curvature="0"
       style="fill:#ffb27d;stroke-width:1.13670659" />
    <path
       d="m 1868.4533,662.78466 c 0,0 -23.7186,63.3066 -60.1238,72.67305 -36.4053,9.3517 -52.1976,-0.3944 -52.1976,-0.3944 0,0 27.9175,-22.18853 33.7227,-60.8968 0,0 60.7001,-41.51253 78.5987,-11.38185"
       id="path474"
       inkscape:connector-curvature="0"
       style="fill:#163560;stroke-width:1.13670659" />
    <path
       d="m 1862.5731,667.92258 c 0,0 17.5815,6.57698 24.8257,19.39903 7.0782,12.54924 13.1096,29.16107 11.7001,49.5456 0,0 17.8849,-43.02773 -2.212,-67.36916 -21.2951,-25.81006 -34.3138,-1.57547 -34.3138,-1.57547"
       id="path476"
       inkscape:connector-curvature="0"
       style="fill:#163560;stroke-width:1.13670659" />
    <path
       d="m 1852.7974,776.48491 c 0,0 5.987,7.866 17.9452,7.2908 9.6393,-0.4547 13.3518,-8.8061 13.3518,-8.8061 0,0 -17.702,-4.2592 -31.297,1.5153"
       id="path478"
       inkscape:connector-curvature="0"
       style="fill:#ebf3fa;stroke-width:1.13670659" />
    <path
       d="m 1916.8167,1147.8696 -85.9497,25.6749 -27.2515,-6.6839 -77.5074,-18.991 c 0,0 -10.0189,-3.3487 -18.9001,-23.8401 -1.6823,-3.8648 -4.7138,-15.6865 -7.8807,-29.6601 -3.5011,-15.5047 -7.1385,-33.6772 -9.1846,-46.53 -3.0009,-18.8988 -9.0335,-42.4366 -14.2771,-67.7932 v -0.015 c -3.85,-18.55089 -7.2749,-38.07159 -8.8208,-57.48659 -2.0768,-26.251 17.0801,-49.4092 43.255,-52.3192 l 28.7667,-3.1827 c 91.315,74.4918 161.4419,5.8347 161.4419,5.8347 0,0 24.0232,42.7105 39.7393,104.21319 15.7172,61.5038 -23.431,170.7788 -23.431,170.7788"
       id="path480"
       inkscape:connector-curvature="0"
       style="fill:#f9ddbf;stroke-width:1.13670659" />
    <path
       d="m 1911.3606,1164.4507 c 0,0 42.5582,132.4798 45.2864,177.5843 2.728,45.1046 -81.3576,640.7536 -84.7381,661.5473 -3.1976,19.5821 -27.5231,32.0711 -27.5231,32.0711 0,0 -11.1852,6.6076 -27.1594,2.0916 -22.143,-6.2599 -29.1451,-13.7474 -29.1451,-13.7474 0,0 -33.1316,-424.81 -12.6402,-576.5671 20.5062,-151.7436 20.7483,-282.9798 20.7483,-282.9798 h 115.1712"
       id="path482"
       inkscape:connector-curvature="0"
       style="fill:#ed7d2b;stroke-width:1.13670659" />
    <path
       d="m 1731.0186,1160.4951 c 0,0 -64.9138,87.1171 -70.9759,145.9985 -6.0473,58.8962 -9.4881,265.7314 -22.3863,323.143 -12.8971,57.4117 -60.275,167.8836 -60.275,346.9376 0,0 4.9253,10.2611 20.1424,15.7321 4.8492,1.7437 11.3671,3.4408 17.7019,4.881 12.5345,2.8792 25.402,-3.2442 31.1151,-14.7625 32.0404,-64.4887 134.0712,-272.4913 139.3,-315.6713 3.6978,-30.5547 35.9199,-232.7816 106.1831,-351.439 16.8688,-28.4938 -10.3508,-141.7848 -10.3508,-141.7848 l -150.4545,-13.0346"
       id="path484"
       inkscape:connector-curvature="0"
       style="fill:#f99746;stroke-width:1.13670659" />
    <path
       d="m 1854.7219,777.92511 c 0,0 1.5005,6.3507 17.3234,5.38 0,0 13.2768,-0.8184 12.8834,-7.8205 0,0 -12.8834,-4.9709 -30.2068,2.4405"
       id="path486"
       inkscape:connector-curvature="0"
       style="fill:#ffffff;stroke-width:1.13670659" />
    <path
       d="m 1918.1501,1143.9901 c 0,0 -17.0802,13.5188 -51.0301,14.2009 -40.5429,0.8183 -141.0119,-10.3362 -141.0119,-10.3362 0,0 -4.456,12.4731 -4.274,25.6442 0,0 122.7028,30.949 193.7857,4.5161 0,0 9.1687,-17.2473 2.5303,-34.025"
       id="path488"
       inkscape:connector-curvature="0"
       style="fill:#233862;stroke-width:1.13670659" />
    <path
       d="m 1864.4827,1172.1952 c 0,8.1695 5.5472,14.8078 12.3674,14.8078 6.8202,0 12.3675,-6.6383 12.3675,-14.8078 0,-8.1684 -5.5473,-14.8067 -12.3675,-14.8067 -6.8202,0 -12.3674,6.6383 -12.3674,14.8067 z m -6.1382,0 c 0,-11.5489 8.306,-20.9302 18.5056,-20.9302 10.1997,0 18.5056,9.3813 18.5056,20.9302 0,11.5489 -8.3059,20.9461 -18.5056,20.9461 -10.1996,0 -18.5056,-9.3972 -18.5056,-20.9461"
       id="path490"
       inkscape:connector-curvature="0"
       style="fill:#ffffff;stroke-width:1.13670659" />
    <path
       d="m 1772.3186,1144.0049 c -33.1464,-16.9745 -56.608,-33.7068 -72.9913,-49.6355 -3.5011,-15.5047 -7.1385,-33.6772 -9.1846,-46.53 -3.0009,-18.8988 -13.4438,-65.6561 -18.6875,-91.02739 l 138.0258,198.83269 c 0,0 6.2143,10.5339 -37.1624,-11.6398 m 48.8784,-132.5094 c 0,0 61.3821,97.4692 79.175,114.9745 17.7781,17.5201 -72.5969,-13.9133 -72.5969,-13.9133 l -6.5781,-101.0612"
       id="path492"
       inkscape:connector-curvature="0"
       style="fill:#eac3a2;stroke-width:1.13670659" />
    <path
       d="m 1960.7994,1167.8757 c 2.046,1.5459 38.4661,-3.076 50.1969,4.3195 11.716,7.3965 22.9614,27.9027 17.703,35.2379 -5.2594,7.3203 -30.1613,-14.6704 -37.4965,-14.2918 -7.3204,0.3637 -28.3574,-6.1383 -28.3574,-6.1383 l -2.046,-19.1273"
       id="path494"
       inkscape:connector-curvature="0"
       style="fill:#ffb27d;stroke-width:1.13670659" />
    <path
       d="m 1671.4552,956.81201 c 0,0 64.7161,172.35539 124.7342,207.63869 60.0182,35.2835 166.656,26.7501 166.656,26.7501 0,0 3.0918,-4.7286 3.941,-14.7771 0.4239,-4.9855 -3.941,-11.973 -3.941,-11.973 0,0 -108.4418,-72.5821 -113.2307,-84.8585 -21.8396,-55.9259 -53.4856,-127.47819 -66.6713,-136.99589 -13.1858,-9.5335 -96.6815,-21.6735 -111.4882,14.2157"
       id="path496"
       inkscape:connector-curvature="0"
       style="fill:#f9ddbf;stroke-width:1.13670659" />
    <path
       d="m 2866.5055,2105.9155 -9.405,-1.9096 159.8811,-786.9216 9.4039,1.9109 -159.88,786.9192"
       id="path498"
       inkscape:connector-curvature="0"
       style="fill:#163560;stroke-width:1.13670659" />
    <path
       d="m 2995.6218,1395.7956 19.8469,4.0933 17.9338,-87.2537 -19.8469,-4.0761 -17.9338,87.2365"
       id="path500"
       inkscape:connector-curvature="0"
       style="fill:#163560;stroke-width:1.13670659" />
    <path
       d="m 3386.2215,2012.0395 26.808,-8.6992 c 0,0 5.5892,-72.8095 -6.361,-160.0802 -7.5432,-55.2894 -21.4019,-115.1688 -46.5061,-163.2606 -11.3591,-21.7622 -25.0132,-41.1192 -41.4625,-56.5318 0,0 -20.5834,-47.8031 -47.8462,-111.6838 -30.3069,-71.0384 -220.0096,-91.8617 -111.777,56.94 22.2193,30.5387 46.0742,84.2834 74.6544,116.9307 48.8227,55.8043 83.2877,120.9444 106.9606,178.2959 33.8285,82.0088 45.5298,148.0901 45.5298,148.0901"
       id="path502"
       inkscape:connector-curvature="0"
       style="fill:#ffb27d;stroke-width:1.13670659" />
    <path
       d="m 3447.2819,2016.1032 c 8.1456,13.1847 -9.4302,26.0976 -31.1355,38.2536 -21.7293,12.1696 -12.7345,13.3972 -40.5202,34.0705 -27.7868,20.6881 -44.1463,18.4146 -48.4135,15.383 -3.7863,-2.6826 7.5705,-15.4592 19.4798,-29.4316 1.5141,-1.7437 2.9827,-3.534 4.4968,-5.3049 13.3085,-15.9446 15.2818,-35.9496 21.5223,-56.6854 5.8973,-19.6412 -3.4874,-68.4899 -3.4874,-68.4899 l 37.1021,-29.4635 c 0,0 7.5251,44.4225 11.6785,62.9144 2.4327,10.8806 11.3353,19.9902 18.5398,26.7036 3.9,3.6522 7.8694,7.4113 10.7373,12.0502"
       id="path504"
       inkscape:connector-curvature="0"
       style="fill:#ffb27d;stroke-width:1.13670659" />
    <path
       d="m 3416.1464,2054.3568 c -21.7293,12.1696 -12.7345,13.3972 -40.5202,34.0705 -27.7868,20.6881 -44.1463,18.4146 -48.4135,15.383 -3.7863,-2.6826 7.5705,-15.4592 19.4798,-29.4316 l 0.3671,0.1353 c 0,0 25.078,-3.3647 46.5095,-22.4011 17.4598,-15.5047 30.998,-37.2692 42.9755,-48.0599 3.9,3.6522 7.8694,7.4113 10.7373,12.0502 8.1456,13.1847 -9.4302,26.0976 -31.1355,38.2536"
       id="path506"
       inkscape:connector-curvature="0"
       style="fill:#1c468a;stroke-width:1.13670659" />
    <path
       d="m 3200.4734,615.56473 c 0,0 65.4265,-7.9649 98.3205,52.92506 32.8929,60.8911 30.2307,149.10862 62.1324,190.71432 31.9005,41.6091 -5.3016,81.0586 -5.3016,81.0586 l -248.5295,8.39 c 0,0 -17.2587,-46.5106 0,-102.324 17.2814,-55.8146 -67.0964,-222.32279 93.3782,-230.76398"
       id="path508"
       inkscape:connector-curvature="0"
       style="fill:#b64c41;stroke-width:1.13670659" />
    <path
       d="m 2979.0623,1354.5661 c 2.5506,9.7165 10.8804,31.6607 17.354,31.6459 5.2709,0 7.1476,-26.8547 13.9371,-32.5689 9.8269,-8.2616 17.8395,-25.6134 19.1251,-29.8136 2.6361,-8.6685 5.1039,-10.4713 5.1039,-10.4713 l -0.022,-0.017 h 0.044 c 0,0 78.5873,-143.6491 84.7233,-180.4341 2.004,-11.9717 7.1487,-35.9789 13.2006,-62.8802 6.5576,-29.2589 14.1906,-61.9255 19.9264,-86.3977 -25.0928,-4.8902 -52.8421,-6.6134 -75.4466,-7.0533 -4.6173,29.7703 -8.7299,60.1818 -12.2923,86.6148 -5.2721,39.3152 -9.2994,69.8097 -11.7661,76.3571 -6.8316,17.9292 -25.6623,114.6255 -43.4165,164.8213 -2.0245,4.9254 -7.8024,17.794 -14.1066,22.1738 -7.9069,5.4402 -18.9147,18.2942 -16.3628,28.0232"
       id="path510"
       inkscape:connector-curvature="0"
       style="fill:#ffb27d;stroke-width:1.13670659" />
    <path
       d="m 3093.0761,1006.4133 c 4.5014,-69.42779 58.2506,-144.07409 58.2506,-144.07409 0,0 1.938,-0.1967 5.2811,-0.5082 a 4.8025853,4.8025853 0 0 0 4.0785,-3.1043 c 2.0052,-5.488 2.5849,-17.4928 2.5622,-30.009 -0.046,-19.1115 -1.5153,-39.3983 -1.5153,-39.3983 l 64.4672,-12.7663 3.833,-0.7559 c -0.1114,32.4279 6.0166,56.8057 12.6572,70.4212 3.1646,6.4759 9.3369,10.9078 16.4675,11.9093 13.8383,1.9403 38.216,6.0837 54.6403,12.9505 7.9774,3.3271 14.0611,7.3033 16.2003,11.9672 17.6929,38.9254 -241.4682,192.80129 -236.9226,123.36669"
       id="path512"
       inkscape:connector-curvature="0"
       style="fill:#ffb27d;stroke-width:1.13670659" />
    <path
       d="m 3161.731,789.32061 c 0,0 1.4641,20.2868 1.5073,39.4005 36.0768,-1.0185 55.1382,-33.9251 62.9576,-52.1635 l -64.4649,12.763"
       id="path514"
       inkscape:connector-curvature="0"
       style="fill:#e8945b;stroke-width:1.13670659" />
    <path
       d="m 3149.6842,807.41581 c 0,0 85.3439,1.4095 85.4098,-51.7565 0.065,-53.16608 11.1125,-88.78933 -43.3653,-91.9346 -54.5005,-3.1498 -65.114,17.12676 -69.446,34.86735 -4.3331,17.74057 5.1982,107.08685 27.4015,108.82375 m -119.1053,1239.02839 27.3753,6.7451 c 0,0 43.0698,-58.9723 78.8863,-139.4511 22.6887,-50.9847 42.4219,-109.1841 46.4163,-163.2902 1.7914,-24.4778 0.366,-48.1224 -5.4846,-69.8858 0,0 7.6648,-51.4701 18.135,-120.142 11.6364,-76.3559 26.6842,-173.9616 38.515,-245.7412 l -7.1464,-2.1063 -116.5148,-68.1432 c 0,0 -53.5411,122.0539 -39.8529,305.5467 2.8054,37.6466 -5.2254,95.9085 1.8778,138.7089 12.1548,73.1585 7.1454,146.6794 -2.936,207.8945 -14.4215,87.5435 -39.271,149.8634 -39.271,149.8634"
       id="path516"
       inkscape:connector-curvature="0"
       style="fill:#ffb27d;stroke-width:1.13670659" />
    <path
       d="m 3124.8199,669.03086 c 13.1687,-15.96391 23.1387,-12.4924 28.7325,-7.69891 45.7547,-25.38266 76.7299,12.29917 76.7299,12.29917 5.7029,38.14446 33.2169,59.99878 33.2169,59.99878 0,0 -15.1932,8.07291 -51.4144,0.38534 -43.013,-9.12775 -54.8325,-57.57304 -56.5512,-63.87381 -5.2027,4.67982 -15.4773,14.84311 -18.6113,24.80749 -4.2444,13.53475 -6.1609,41.40569 -14.2792,40.45879 0,0 -17.61,-42.39347 2.1768,-66.37685"
       id="path518"
       inkscape:connector-curvature="0"
       style="fill:#b64c41;stroke-width:1.13670659" />
    <path
       d="m 3040.0045,1730.4977 c 103.0708,58.8813 374.3641,-34.8901 374.0924,-40.3156 -1.43,-28.8109 -27.5038,-202.319 -58.1164,-367.8996 -18.8353,-101.8182 -68.964,-139.8456 -60.9309,-146.2714 l 0.1137,-0.1206 c 30.907,-21.9304 55.6656,-253.55709 35.0378,-292.74739 -0.9753,-1.913 -2.7008,-3.6692 -5.0606,-5.3425 0.1819,-0.1614 0.2046,-0.2398 0.2046,-0.2398 -19.2899,-14.0724 -58.7063,-18.3794 -58.7063,-18.3794 0,0 -21.2633,52.0271 -27.7539,60.1614 -42.0729,52.54539 -117.6173,28.8246 -107.338,-3.9081 3.6999,-11.9206 22.8068,-49.4353 25.1212,-53.6207 0.1137,-0.2023 -5.355,0.5172 -5.355,0.5172 -12.6629,1.6744 -21.627,2.9498 -28.0938,4.066 -12.6856,2.154 -15.8172,3.6705 -18.9715,6.1007 -11.1193,11.1239 -25.5976,38.7504 -26.7547,88.0686 -0.432,18.33849 -19.5389,220.82459 42.2536,217.32359 1.4072,-0.091 0.2046,3.2282 -2.4735,9.4869 -8.714,20.0515 -33.4942,70.3712 -40.6657,134.9044 -23.3729,209.9895 -36.603,408.2163 -36.603,408.2163"
       id="path520"
       inkscape:connector-curvature="0"
       style="fill:#f9ddbf;stroke-width:1.13670659" />
    <path
       d="m 3171.1292,774.99011 c 0,0 -1.1867,6.6384 -17.5325,6.5133 0,0 -13.7598,-0.102 -13.7166,-7.3272 0,0 12.9959,-5.8472 31.2491,0.8139"
       id="path522"
       inkscape:connector-curvature="0"
       style="fill:#ffffff;stroke-width:1.13670659" />
    <path
       d="m 3080.3633,2082.0765 c -0.02,15.4899 -21.7555,17.2029 -46.6243,16.1106 -24.8678,-1.0913 -17.8725,4.6832 -52.3738,7.6386 -34.5218,2.9555 -47.2256,-7.6102 -49.2592,-12.4128 -1.8073,-4.274 14.5726,-9.1551 32.0506,-14.7613 2.2007,-0.698 4.4218,-1.4243 6.6224,-2.153 19.6991,-6.5474 31.9051,-22.5215 48.1395,-36.8587 15.3809,-13.595 33.1089,-60.0648 33.1089,-60.0648 l 47.0393,-5.5017 c 0,0 -16.9802,41.7252 -23.1878,59.6248 -3.6738,10.5328 -0.8923,22.9615 1.7029,32.4644 1.4117,5.1675 2.8019,10.4565 2.7815,15.9139"
       id="path524"
       inkscape:connector-curvature="0"
       style="fill:#ffb27d;stroke-width:1.13670659" />
    <path
       d="m 3033.756,2098.1859 c -24.8768,-1.0912 -17.8781,4.6821 -52.3749,7.6387 -34.5161,2.9554 -47.2324,-7.6103 -49.2558,-12.4129 -1.8164,-4.274 14.5533,-9.1539 32.0392,-14.7635 l 0.2478,0.3035 c 0,0 23.1002,10.3532 51.3417,5.4414 22.9967,-3.9852 45.9741,-15.3523 61.8482,-18.2327 1.3845,5.1674 2.7883,10.4577 2.7667,15.9149 -0.02,15.4888 -21.7372,17.203 -46.6141,16.1106"
       id="path526"
       inkscape:connector-curvature="0"
       style="fill:#1c468a;stroke-width:1.13670659" />
    <path
       d="m 3040.0045,1730.4977 c 103.0708,58.8813 374.3641,-34.8901 374.0924,-40.3156 -1.43,-28.8109 -27.5038,-202.319 -58.1164,-367.8996 -18.8353,-101.8182 -68.964,-139.8456 -60.9309,-146.2714 -1.9062,1.5607 -30.9752,24.9939 -84.2811,21.81 -47.7235,-2.8645 -84.4857,-8.8504 -93.4941,-10.4441 -8.7152,20.0515 -33.4954,70.3712 -40.6669,134.9044 -23.3729,209.9895 -36.603,408.2163 -36.603,408.2163"
       id="path528"
       inkscape:connector-curvature="0"
       style="fill:#2b478b;stroke-width:1.13670659" />
    <path
       d="m 3295.153,1175.8975 c 0,0 -84.397,35.2219 -175.4097,2.0006 l -4.6389,14.2599 c 0,0 93.651,32.5257 183.6975,-4.4843 l -3.6489,-11.7762 M 3137.7738,741.06961 h -13.9872 c -6.3838,0 -11.566,-5.1731 -11.566,-11.55686 v -4.31381 c 0,-3.20437 2.6121,-5.80401 5.8142,-5.80401 h 27.3651 c 2.0858,0 3.7921,1.70505 3.7921,3.80454 v 6.4531 a 11.407987,11.407987 0 0 1 -11.4182,11.41704 m 41.7091,0 h 14.002 c 6.3792,0 11.5387,-5.1743 11.5387,-11.558 v -4.3138 c 0,-3.20552 -2.5906,-5.80402 -5.7802,-5.80402 h -27.381 a 3.8125139,3.8125139 0 0 0 -3.8114,3.80455 v 6.45195 c 0,6.30762 5.1379,11.41932 11.4319,11.41932"
       id="path530"
       inkscape:connector-curvature="0"
       style="fill:#163560;stroke-width:1.13670659" />
    <path
       d="m 3171.9568,728.76139 c -0.1274,-0.0535 -12.0468,-5.19021 -23.4582,-0.006 l -0.8491,-1.87897 c 12.2605,-5.58124 24.6256,-0.23985 25.1348,-0.006 l -0.8275,1.89262"
       id="path532"
       inkscape:connector-curvature="0"
       style="fill:#163560;stroke-width:1.13670659" />
    <path
       d="m 3388.2277,1120.5568 c 0.9924,-1.2129 -44.4452,-15.9593 -71.1317,-9.5937 -15.8889,3.8034 -9.421,22.9012 3.6068,24.2481 13.0266,1.3505 58.8246,-4.0614 67.5249,-14.6544"
       id="path534"
       inkscape:connector-curvature="0"
       style="fill:#ffb27d;stroke-width:1.13670659" />
    <path
       d="m 3309.8915,1115.4382 c 0,0 -14.735,19.6264 -14.735,28.9179 0,9.2755 8.0228,30.8411 15.824,28.4472 7.8456,-2.3928 11.1341,-23.0524 12.3344,-27.8573 1.2004,-4.7878 10.2235,-8.0933 12.2674,-14.6703 2.0676,-6.5792 2.4008,-9.2755 2.4008,-9.2755 l -28.0916,-5.562 m 39.8666,-186.85059 c -0.2068,-0.1053 116.9104,195.58279 101.8365,231.80399 -15.0739,36.2234 -26.1442,5.3345 -39.2847,-9.0459 -2.2551,-2.486 -107.2902,-138.1042 -103.9767,-159.9914 3.3146,-21.8896 41.4249,-62.76669 41.4249,-62.76669 m -55.9714,216.81199 c 0,0 -50.8187,6.3963 -55.6293,10.0041 -4.7867,3.592 -16.3833,27.78 -15.1978,35.2379 1.2311,7.441 17.6145,19.1569 23.2139,19.1569 5.6005,0 7.6432,-12.3969 12.8482,-15.2022 5.205,-2.7884 10.1019,-3.4545 14.0986,-4.5298 7.6216,-2.0472 22.0498,-8.6709 22.0498,-8.6709 l -1.3834,-35.9949"
       id="path536"
       inkscape:connector-curvature="0"
       style="fill:#ffb27d;stroke-width:1.13670659" />
    <path
       d="m 3524.3813,902.51491 c 0,0 -66.8849,180.91599 -95.6584,194.88839 -28.7973,13.9746 -134.9566,48.0008 -134.9566,48.0008 v 41.6035 c 0,0 108.0076,1.7107 161.6203,-13.944 53.5889,-15.6547 123.3896,-74.0985 123.3896,-74.0985 l -54.3938,-196.45019"
       id="path538"
       inkscape:connector-curvature="0"
       style="fill:#233862;stroke-width:1.13670659" />
    <path
       d="m 3664.0325,731.20644 -65.406,124.11917 -15.6252,1.114 -7.0499,19.8015 -65.5766,197.57319 c 0,0 -36.2883,-251.03019 153.6577,-342.60786"
       id="path540"
       inkscape:connector-curvature="0"
       style="fill:#233862;stroke-width:1.13670659" />
    <path
       d="m 3554.8939,840.94981 c 0,0 -72.3366,266.68269 -79.3216,521.15269 0,0 60.0146,20.9165 154.2658,4.3513 94.7445,-16.6414 -74.9431,-525.50399 -74.9431,-525.50399 m 329.7984,1267.33009 h 65.0435 c 8.1843,-4.4423 15.4717,-14.6112 17.7872,-29.7965 3.1839,-20.9473 26.6558,-32.3746 31.7334,-49.515 5.0777,-17.1256 -20.9449,-41.2544 -20.9449,-41.2544 l -4.3684,-5.6097 -4.5252,-5.8177 -43.1528,10.1667 c 0,0 -1.0788,10.2781 -1.7357,23.3707 -0.4741,9.4438 -0.7106,20.3709 -0.1842,29.9523 1.289,22.8386 -6.394,47.4506 -26.6808,51.8928 -15.025,3.2886 -14.3407,12.1855 -12.9721,16.6108 m -377.4253,0 h 148.7301 c 7.1443,-8.7288 4.5048,-40.9374 3.4386,-51.453 -0.2421,-2.1245 -0.3865,-3.3499 -0.3865,-3.3499 0,0 -50.788,-40.6202 -57.7629,-9.5177 a 37.612484,37.612484 0 0 1 -0.7502,2.8622 c -8.7925,29.1021 -48.2214,42.3163 -70.9873,45.9992 -14.7976,2.4098 -20.247,10.0939 -22.2818,15.4592"
       id="path542"
       inkscape:connector-curvature="0"
       style="fill:#233862;stroke-width:1.13670659" />
    <path
       d="m 3535.5926,1278.0907 c 0,0 7.7239,96.2268 16.7858,211.8833 12.3048,157.1076 27.1104,350.1056 28.5961,386.6621 2.5257,63.4884 12.7015,165.035 12.7015,165.035 0,0 24.0902,24.1277 72.3446,13.9588 0,0 43.0051,-144.9687 55.2849,-298.348 0.1989,-2.5177 0.3717,-5.0469 0.5694,-7.5784 11.4388,-156.1392 29.1907,-484.9349 29.1907,-484.9349 l -215.4741,13.3221"
       id="path544"
       inkscape:connector-curvature="0"
       style="fill:#f99746;stroke-width:1.13670659" />
    <path
       d="m 3535.5926,1278.0907 c 0,0 7.7239,96.2268 16.7858,211.8833 l 168.9271,267.3079 c 0.1989,-2.5177 0.3717,-5.0469 0.5694,-7.5784 11.4388,-156.1392 29.1907,-484.9349 29.1907,-484.9349 l -215.4741,13.3221"
       id="path546"
       inkscape:connector-curvature="0"
       style="fill:#ed7d2b;stroke-width:1.13670659" />
    <path
       d="m 3570.8134,1289.5192 c 0,0 139.0011,348.471 230.4048,512.2307 91.3764,163.746 119.9612,209.4586 119.9612,209.4586 0,0 52.3567,-20.9461 57.1172,-35.2379 0,0 -34.94,-316.1408 -96.1631,-393.2096 -34.599,-43.5449 -75.2146,-174.2206 -77.1233,-219.9299 -1.9095,-45.6968 -12.3707,-136.1479 -12.3707,-136.1479 l -221.8261,62.8371"
       id="path548"
       inkscape:connector-curvature="0"
       style="fill:#f99746;stroke-width:1.13670659" />
    <path
       d="m 3605.4069,781.54101 c 54.3312,17.1415 148.3027,-29.1179 148.3027,-29.1179 0,0 -50.0947,-37.58751 -47.4439,-115.7395 l -42.0184,33.8443 -28.5153,22.99103 c 0,0 0.099,13.55181 3.2202,37.3033 0.5696,4.33307 1.239,9.00837 2.0314,14.00427 0.6195,3.9852 -1.139,8.0137 -4.5582,10.1314 -19.7947,12.2458 -31.0185,26.5831 -31.0185,26.5831"
       id="path550"
       inkscape:connector-curvature="0"
       style="fill:#ffb27d;stroke-width:1.13670659" />
    <path
       d="m 3529.5863,1286.1079 c 1.655,1.3619 3.5351,2.1826 5.7176,2.1826 20.4153,-0.2889 79.9059,11.0476 130.2178,5.8789 42.4354,-4.0761 79.9808,-16.6413 120.3089,-34.7217 5.3676,-2.3951 17.6826,-8.9733 17.4064,-14.9603 -0.175,-6.561 -0.8275,-16.0639 -1.655,-28.0368 -2.8339,-41.6342 -7.8252,-113.2331 -2.96,-195.8318 a 907.95007,907.95007 0 0 0 1.3799,-45.6616 c 0.4263,-111.95419 -21.7951,-210.42369 -66.387,-243.75076 0,0 -31.1254,17.44847 -52.6443,24.33347 -21.0677,6.7407 -31.9529,5.3846 -42.888,-1.871 0,0 -21.3177,10.5827 -30.3955,20.5073 -21.0939,22.9786 -37.5454,53.4821 -48.4305,97.2692 -9.2551,37.2645 -17.9077,91.5957 -20.9177,161.22929 -1.3538,31.5526 -10.0826,252.342 -8.7526,253.4332"
       id="path552"
       inkscape:connector-curvature="0"
       style="fill:#ffffff;stroke-width:1.13670659" />
    <path
       d="m 3838.717,1338.0032 c -137.1061,85.9793 -248.9659,42.3911 -248.9659,42.3911 -20.0345,-156.8678 -8.9551,-346.1647 -6.3498,-392.3456 6.6532,-202.69629 150.2101,-256.84567 150.2101,-256.84567 l 59.8,184.98198 8.8287,82.30089 15.9867,148.6721 20.4902,190.8452"
       id="path554"
       inkscape:connector-curvature="0"
       style="fill:#2b478b;stroke-width:1.13670659" />
    <path
       d="m 3635.7126,693.51666 c 0,0 0.1228,13.55181 3.2328,37.30671 31.6095,-5.42323 67.4794,-56.51705 67.4794,-56.51705 -16.0866,-4.648 -30.1897,-5.48347 -42.1877,-3.77841 l -28.5245,22.98875"
       id="path556"
       inkscape:connector-curvature="0"
       style="fill:#ed975d;stroke-width:1.13670659" />
    <path
       d="m 3612.2089,692.06508 c 0,0 97.8261,16.25377 107.0028,-44.82943 9.2016,-61.08207 28.0005,-100.12453 -34.0842,-113.08525 -62.0846,-12.96073 -77.7416,8.52075 -85.7566,28.16304 -8.0137,19.64229 -12.3912,123.94876 12.838,129.75164 m 277.3882,532.44932 c 0,0 10.4976,13.9735 10.9125,19.5513 2.8327,37.8466 -14.4714,43.0744 30.2966,64.0977 0,0 19.1229,7.2875 19.4343,-7.5329 0.3375,-14.8386 -13.2507,-15.0796 -10.7828,-35.8608 2.8849,-23.9618 2.5985,-24.1892 -13.1472,-36.6929 l -10.419,-17.2155 -26.2944,13.6531"
       id="path558"
       inkscape:connector-curvature="0"
       style="fill:#ffb27d;stroke-width:1.13670659" />
    <path
       d="m 3719.2946,641.36001 c 0,0 -10.0462,-1.67777 -8.4127,-15.50581 1.6084,-13.83031 1.5834,-31.90736 -9.6506,-28.53702 -11.2602,3.36806 -11.8048,12.37078 -16.4323,7.11465 -4.6037,-5.25954 -4.7014,-27.406 -38.1592,-28.94851 -33.4306,-1.54137 -47.0415,10.10419 -62.6064,3.26463 -15.5411,-6.84071 -16.3823,-30.38873 -16.3823,-30.38873 0,0 4.4299,8.40823 11.1114,11.08289 0,0 -25.959,-35.49933 4.1068,-59.84305 30.0432,-24.34256 60.6775,-8.40594 78.0748,-7.35107 38.307,2.31546 63.077,4.61729 75.5739,29.79307 12.522,25.17806 7.35,95.08551 -17.2234,119.31895"
       id="path560"
       inkscape:connector-curvature="0"
       style="fill:#2b478b;stroke-width:1.13670659" />
    <path
       d="m 3906.1624,1241.1557 c 0,0 -10.1099,10.5339 -10.7533,14.9147 -2.0574,14.0645 -6.7394,20.1278 -4.399,21.6577 4.8878,3.1828 11.3966,-7.2282 14.4839,-16.5663 3.0873,-9.3517 0.6684,-20.0061 0.6684,-20.0061"
       id="path562"
       inkscape:connector-curvature="0"
       style="fill:#ffb27d;stroke-width:1.13670659" />
    <path
       d="m 3818.212,1147.1614 c -30.0534,-76.8698 -114.023,-206.55089 -114.023,-206.55089 l 98.0409,57.88109 15.9821,148.6698"
       id="path564"
       inkscape:connector-curvature="0"
       style="fill:#233862;stroke-width:1.13670659" />
    <path
       d="m 3916.2677,1235.2176 c -16.8687,3.2884 -35.139,1.9563 -35.139,1.9563 0,0 -50.0662,-154.6694 -56.5193,-168.8089 -4.1718,-9.1244 -68.0251,-74.1099 -112.7011,-118.95979 -26.3034,-26.3943 -34.8287,-65.6539 -21.8986,-100.5883 l 43.5881,-117.60251 c 0,0 33.8443,19.81281 69.6324,81.55871 44.21,76.273 92.7984,199.11229 101.4544,219.07409 25.8101,59.6906 34.7765,193.5197 34.7765,193.5197 0,0 -9.9507,7.2749 -23.1934,9.8507"
       id="path566"
       inkscape:connector-curvature="0"
       style="fill:#2b478b;stroke-width:1.13670659" />
    <path
       d="m 3733.6001,731.21326 -65.4254,124.11695 -33.5499,-12.2002 10.8953,33.1167 -65.597,197.57339 c 0,0 -36.2621,-251.03039 153.677,-342.60684"
       id="path568"
       inkscape:connector-curvature="0"
       style="fill:#233862;stroke-width:1.13670659" />
    <path
       d="m 3605.4148,657.40009 c 0,0 3.8,10.07121 13.3483,10.34175 9.4995,0.2728 16.8586,-8.97999 16.8586,-8.97999 0,0 -20.6836,-4.79121 -30.2069,-1.36176"
       id="path570"
       inkscape:connector-curvature="0"
       style="fill:#ffffff;stroke-width:1.13670659" />
    <path
       d="m 3325.153,877.80061 c 0,0 31.5856,25.4725 65.1787,101.72959 0,0 -6.8316,49.0568 -95.1422,62.3905 -88.3335,13.3335 29.9635,-164.12009 29.9635,-164.12009 m -213.8327,-8.8299 c 0,0 -32.5007,4.947 -46.8971,68.4161 -14.4168,63.47259 -12.2707,97.60899 -12.2707,97.60899 0,0 14.9375,18.6659 34.6673,13.8667 19.7502,-4.8003 24.5005,-179.89179 24.5005,-179.89179"
       id="path572"
       inkscape:connector-curvature="0"
       style="fill:#f9ddbf;stroke-width:1.13670659" />
    <path
       d="m 3475.5905,1181.6651 c 0,0 6.494,-13.1393 -22.924,-34.5105 -22.2294,-16.1412 -74.3395,-30.433 -74.3395,-30.433 l -64.6104,4.7741 c 0,0 67.4067,57.3969 100.3825,69.1425 31.4505,11.2011 59.851,4.1524 61.4914,-8.9731 M 1095.0916,1022.2113 c 0,0 15.458,-18.7489 23.7685,-21.386 8.3105,-2.6372 24.3994,-15.0955 26.4978,-9.9576 2.0983,5.1379 -10.8101,13.0494 -10.1304,18.9149 0.6798,5.8653 41.0431,15.2773 40.7942,21.4769 -0.2479,6.2132 -9.4961,21.203 -24.8905,19.4899 -15.3944,-1.7277 -54.4392,-10.9873 -62.4563,-6.9861 -8.0196,4.0012 6.4167,-21.552 6.4167,-21.552"
       id="path574"
       inkscape:connector-curvature="0"
       style="fill:#ffb27d;stroke-width:1.13670659" />
    <path
       d="m 678.82171,930.97131 c 22.7887,30.6149 49.474,54.78919 76.8903,73.85519 87.1387,60.6251 181.6673,69.6573 181.6673,69.6573 22.6522,-7.259 92.23799,-14.8226 133.36059,-21.4609 h 0.017 c 17.9259,-2.8793 30.4296,-5.5767 31.2776,-7.9866 l -1.0344,-35.8141 c 0,0 -150.93179,-7.9878 -175.92339,-19.5822 -39.4097,-33.94879 -74.2281,-78.03829 -96.9157,-112.48839 -19.1637,-29.0838 -40.6122,-50.5755 -75.974,-63.1702 -51.1359,-18.2328 -144.1208,21.9304 -73.3653,116.9899"
       id="path576"
       inkscape:connector-curvature="0"
       style="fill:#f9ddbf;stroke-width:1.13670659" />
    <path
       d="m 748.01871,982.2901 7.6933,22.5364 c 87.1387,60.6251 181.6673,69.6573 181.6673,69.6573 18.1964,0 92.23799,-14.8226 133.36059,-21.4609 -1.6255,0.1364 -111.96209,8.7605 -136.34339,6.245 -24.5687,-2.5463 -138.9362,-101.66699 -138.9362,-101.66699 l -47.4416,24.68919"
       id="path578"
       inkscape:connector-curvature="0"
       style="fill:#eac3a2;stroke-width:1.13670659" />
    <path
       d="m 846.55071,2117.3747 h -166.7935 c -11.9513,-8.1082 3.2248,-87.3446 3.2248,-87.3446 0,0 45.5229,-17.2632 53.3843,17.8543 7.8854,35.1015 57.9834,46.256 84.4971,50.5448 18.1419,2.9554 23.8754,12.913 25.6896,18.9455 m -247.3746,0 h -166.7958 c -11.9502,-8.1082 3.2237,-87.3446 3.2237,-87.3446 0,0 45.5228,-17.2632 53.3843,17.8543 7.8876,35.1015 57.9834,46.256 84.4971,50.5448 18.1429,2.9554 23.8765,12.913 25.6907,18.9455"
       id="path580"
       inkscape:connector-curvature="0"
       style="fill:#233862;stroke-width:1.13670659" />
    <path
       d="m 801.67351,1309.0546 c 0,0 -7.4954,93.5282 -16.3071,205.9713 -11.9764,152.7279 -44.2782,531.4183 -44.2782,531.4183 0,0 -21.178,18.0656 -68.0842,8.1842 0,0 -39.9279,-130.6451 -51.8679,-279.7514 l -0.5547,-7.3659 c -11.1056,-151.7879 -28.3767,-471.4149 -28.3767,-471.4149 l 209.47,12.9584"
       id="path582"
       inkscape:connector-curvature="0"
       style="fill:#2b478b;stroke-width:1.13670659" />
    <path
       d="m 804.23451,1276.7267 c 0,0 -10.0564,125.8561 -18.8681,238.2992 l -164.2303,259.8511 -0.5547,-7.3659 c -11.1056,-151.7879 -28.3767,-471.4149 -28.3767,-471.4149 l 212.0298,-19.3695"
       id="path584"
       inkscape:connector-curvature="0"
       style="fill:#233862;stroke-width:1.13670659" />
    <path
       d="m 756.36671,1276.7267 c 0,0 -119.1098,296.4986 -157.1883,408.8814 -27.123,80.0547 -103.6165,360.8963 -103.6165,360.8963 0,0 -33.2623,10.1247 -61.2185,-9.4415 0,0 -28.4586,-286.9354 29.0258,-367.8383 30.4978,-42.922 7.5796,-446.1959 131.2351,-449.6356 123.6589,-3.4555 161.7624,57.1377 161.7624,57.1377"
       id="path586"
       inkscape:connector-curvature="0"
       style="fill:#2b478b;stroke-width:1.13670659" />
    <path
       d="m 703.16311,839.65621 c -18.1827,9.5779 -35.9313,10.169 -51.3143,6.8953 -14.0758,-2.9555 -26.159,-9.1687 -34.765,-14.6704 -8.8322,-5.638 -14.0259,-10.5646 -14.0259,-10.5646 0,0 0.6139,-0.8786 1.6505,-2.6371 5.3698,-9.1846 21.6611,-42.2241 14.4135,-95.30147 -0.097,-0.68202 5.1606,0.3035 13.1028,2.1677 23.6355,5.60737 71.1487,19.08187 73.2505,19.67297 h 0.082 c 0,0 0.582,11.1693 2.5394,31.1753 0.1614,1.7733 0.3388,3.608 0.5343,5.5177 0.2432,2.3484 0.4853,4.8343 0.7763,7.3953 2.2007,20.8097 -6.2439,50.3493 -6.2439,50.3493"
       id="path588"
       inkscape:connector-curvature="0"
       style="fill:#ffb27d;stroke-width:1.13670659" />
    <path
       d="m 708.09641,776.39391 c -35.2822,8.0934 -87.939,-43.99734 -87.939,-43.99734 a 56.079419,56.079419 0 0 1 12.0673,-6.85093 c 23.6355,5.60737 71.1487,19.08187 73.2505,19.67297 h 0.082 c 0,0 0.582,11.1693 2.5394,31.1753"
       id="path590"
       inkscape:connector-curvature="0"
       style="fill:#ed975d;stroke-width:1.13670659" />
    <path
       d="m 720.08411,742.39961 c 0,0 -14.5089,5.2129 -33.0054,7.6989 -27.049,3.6522 -62.6154,1.5004 -73.7904,-31.2367 -18.8205,-55.07685 -42.8607,-88.10272 12.522,-110.59359 29.6487,-12.0491 48.6169,-12.68565 61.4992,-8.09335 11.1909,3.9705 17.7894,11.89677 22.7875,19.73322 10.7544,16.85281 32.3894,112.85223 9.9871,122.49152"
       id="path592"
       inkscape:connector-curvature="0"
       style="fill:#ffb27d;stroke-width:1.13670659" />
    <path
       d="m 753.68971,624.25712 c -32.0687,23.05242 -76.4298,0.37966 -90.2192,6.51789 -13.7724,6.1223 -16.247,29.22017 -16.4959,36.55648 -0.2467,7.34994 -1.214,13.54954 -19.9197,9.1539 -3.0645,-0.7275 -5.2731,-0.51493 -6.7918,0.39443 -7.7591,4.60707 2.1552,26.91722 5.1459,31.75163 0,0 4.3047,15.99005 -5.247,23.76512 -1.1549,0.92415 -19.9185,9.13914 -65.1345,-60.06358 -7.1067,-10.86691 -13.8928,-35.32884 -2.9168,-58.89731 10.9624,-23.55256 56.7899,-46.31624 95.6471,-58.39603 14.5635,-4.51613 25.361,-4.35018 33.8079,-1.25833 14.0872,5.15383 21.602,18.46011 29.0542,31.8437 12.5004,22.46132 43.0698,38.6321 43.0698,38.6321"
       id="path594"
       inkscape:connector-curvature="0"
       style="fill:#a9453d;stroke-width:1.13670659" />
    <path
       d="m 820.30421,1226.8025 c -2.5747,33.9807 -9.7609,58.3211 -25.493,58.3211 0,0 -69.9813,24.629 -153.6168,25.2803 -16.3481,0.1216 -39.4982,-3.0612 -58.6995,-6.2747 -19.6104,-3.3191 -35.1367,-6.669 -35.1367,-6.669 -16.8153,-3.8796 -35.3709,-14.277 -32.885,-33.4487 1.4062,-10.8521 2.3871,-24.9928 3.0589,-41.4216 1.8449,-44.4225 1.5369,-105.6228 1.771,-164.2018 0.1614,-35.9802 0.5115,-70.9601 1.7119,-100.46889 0,0 -16.5061,-115.8987 1.8301,-134.9203 21.4678,-22.2339 84.5278,-29.069 88.479,-28.2199 1.1856,-0.2433 2.3723,-0.5456 3.5863,-0.7434 0,0 53.7071,30.2523 93.6009,7.8512 0,0 0.3808,0.077 1.1277,0.1819 9.7188,1.5312 58.2164,12.746 74.9578,30.449 5.7801,6.0927 28.8451,43.5131 29.4737,84.6005 0.8775,57.27519 -1.3607,122.35509 -1.3607,122.37099 0.6002,9.3051 1.5937,21.2939 2.6929,34.9946 1.1708,14.5953 2.4587,31.0708 3.5556,48.2578 0.5411,8.6538 1.0537,17.4894 1.4629,26.3409 1.2436,27.2661 1.6244,54.7131 -0.117,77.72"
       id="path596"
       inkscape:connector-curvature="0"
       style="fill:#f9ddbf;stroke-width:1.13670659" />
    <path
       d="m 611.59121,794.83931 c 0,0 59.4281,61.2912 101.9182,48.7419 0,0 5.6608,-8.2751 -13.4745,-10.9272 -19.1364,-2.653 -39.7915,-1.5765 -88.4437,-37.8147"
       id="path598"
       inkscape:connector-curvature="0"
       style="fill:#eac3a2;stroke-width:1.13670659" />
    <path
       d="m 720.50251,706.84341 c 0,0 1.1617,7.1226 -15.4183,12.82204 0,0 -13.9201,4.77417 -16.4618,-2.53143 0,0 11.0579,-10.53387 31.8801,-10.29061"
       id="path600"
       inkscape:connector-curvature="0"
       style="fill:#ffffff;stroke-width:1.13670659" />
    <path
       d="m 573.91961,1010.2679 c 0,0 0.1159,165.7773 -56.3875,212.322 1.8449,-44.4225 1.5369,-105.6228 1.771,-164.2018 l 54.6165,-48.1202"
       id="path602"
       inkscape:connector-curvature="0"
       style="fill:#eac3a2;stroke-width:1.13670659" />
    <path
       d="m 400.21151,1320.6036 c 0,0 -28.77,45.1658 -30.3842,62.4586 -1.0957,11.7456 1.5448,58.0936 7.4102,58.2448 8.2809,0.2274 16.5641,-28.5995 19.7696,-36.0711 3.2055,-7.4874 6.9453,-13.3677 10.1508,-13.3677 3.2078,0 -6.9453,28.8565 0,25.6589 6.9476,-3.2135 18.7034,-29.918 19.7719,-36.3291 1.0685,-6.4258 -6.2701,-26.9627 -2.6895,-35.056 3.5818,-8.0786 -24.0277,-25.5384 -24.0277,-25.5384"
       id="path604"
       inkscape:connector-curvature="0"
       style="fill:#ffb27d;stroke-width:1.13670659" />
    <path
       d="m 528.32401,816.72421 c 0,0 -38.8776,18.3693 -71.4715,154.31929 -24.5745,102.4855 -71.6012,364.186 -71.6012,364.186 l 39.7825,16.3687 c 0,0 145.6871,-334.4793 166.5275,-381.5094 20.8381,-47.04379 -63.2373,-153.36459 -63.2373,-153.36459"
       id="path606"
       inkscape:connector-curvature="0"
       style="fill:#f9ddbf;stroke-width:1.13670659" />
    <path
       d="m 1244.0081,1010.2679 c 0,0 38.4661,188.0261 53.1069,218.7626 14.6249,30.7365 73.1732,141.3154 73.1732,141.3154 l -17.0812,11.8524 c 0,0 -105.516,-109.2295 -109.1989,-120.9763 -3.6682,-11.7307 -72.7527,-158.1534 -72.7527,-158.1534 l 72.7527,-92.8007"
       id="path608"
       inkscape:connector-curvature="0"
       style="fill:#ffb27d;stroke-width:1.13670659" />
    <path
       d="m 1169.8585,723.30292 c 0,0 -74.5725,-89.61795 -114.0527,-32.28247 0,0 -29.4532,12.23097 -40.1063,62.35176 -10.8703,51.1518 23.1444,90.0419 40.7338,80.4186 11.2784,-6.1541 19.8173,13.5791 19.8173,13.5791 l 93.6079,-124.06699"
       id="path610"
       inkscape:connector-curvature="0"
       style="fill:#233862;stroke-width:1.13670659" />
    <path
       d="m 1063.9515,681.94157 c 0,0 -10.0258,-40.10301 -68.93209,-27.58445 0,0 28.20059,-3.54652 35.92889,7.32039 0,0 -22.351,-10.23036 -36.34609,-1.66642 -13.9951,8.56281 -16.2947,37.3897 -14.2043,46.16507 2.0881,8.7606 17.5462,34.87415 27.78109,34.87415 10.2361,0 22.3522,-8.98793 22.3522,-8.98793 l 33.4203,-50.12081"
       id="path612"
       inkscape:connector-curvature="0"
       style="fill:#233862;stroke-width:1.13670659" />
    <path
       d="m 975.80681,1309.6457 c 29.28949,-65.6857 43.30169,-84.2674 43.79049,-104.9408 0.3887,-16.3378 -7.6705,-33.9647 -23.32529,-77.205 -3.684,-10.1997 -6.2269,-20.6722 -7.7944,-31.2663 -12.381,-83.3592 35.82439,-173.47739 65.78339,-179.61559 8.3355,-2.1972 22.4671,-32.312 22.2931,-80.8266 l 3.7523,0.7423 63.0861,12.489 c 0,0 -1.4334,19.8537 -1.4778,38.5571 -0.043,15.5956 0.8981,30.3727 4.4287,32.221 4.5422,0.4092 7.2215,0.6821 7.2215,0.6821 0,0 52.6011,73.05259 57.0263,140.99699 4.4241,67.9455 -42.1241,97.4545 0.3501,233.2375 43.3722,138.6634 -251.31439,51.212 -235.13449,14.9283"
       id="path614"
       inkscape:connector-curvature="0"
       style="fill:#ffb27d;stroke-width:1.13670659" />
    <path
       d="m 1143.3925,849.02271 c 0,0 -1.4334,19.8537 -1.4778,38.5571 -35.3015,-0.9855 -53.9616,-33.1919 -61.6083,-51.0461 l 63.0861,12.489"
       id="path616"
       inkscape:connector-curvature="0"
       style="fill:#e8945b;stroke-width:1.13670659" />
    <path
       d="m 1073.7909,829.66791 c 0,0 -18.5011,-29.2361 -22.94,-54.2288 -3.1714,-17.8383 5.9189,-83.99466 72.3889,-74.4611 0,0 19.3058,1.90965 37.4522,14.1554 14.4317,9.74499 35.2583,30.7968 11.9718,88.512 l -6.0495,19.5059 -92.8234,6.5166"
       id="path618"
       inkscape:connector-curvature="0"
       style="fill:#233862;stroke-width:1.13670659" />
    <path
       d="m 1155.1825,866.73941 c 0,0 -83.5242,1.3799 -83.5821,-50.6517 -0.057,-52.0304 -10.8772,-86.88983 42.4503,-89.96576 53.3251,-3.07707 63.7079,16.76186 67.95,34.11596 4.2445,17.3689 -5.0924,104.8044 -26.8182,106.5015"
       id="path620"
       inkscape:connector-curvature="0"
       style="fill:#ffb27d;stroke-width:1.13670659" />
    <path
       d="m 1152.0917,724.84885 c 0,0 -22.8706,61.03316 -57.9652,70.06656 -35.097,9.0175 -50.3197,-0.3797 -50.3197,-0.3797 0,0 26.9194,-21.3848 32.5063,-58.729 0,0 58.5268,-40.01209 75.7786,-10.95786"
       id="path622"
       inkscape:connector-curvature="0"
       style="fill:#233862;stroke-width:1.13670659" />
    <path
       d="m 1146.4241,729.80488 c 0,0 17.0778,13.62453 21.2404,26.87173 4.165,13.2461 6.0383,40.527 13.9862,39.6029 0,0 17.2312,-41.4978 -2.1325,-64.9594 -20.5313,-24.88592 -33.0941,-1.51523 -33.0941,-1.51523"
       id="path624"
       inkscape:connector-curvature="0"
       style="fill:#233862;stroke-width:1.13670659" />
    <path
       d="m 1049.7631,1939.9575 c 21.012,83.5854 52.6477,147.6661 52.6477,147.6661 l 27.5424,-1.9096 c 0,0 -13.5052,-64.2467 -12.7311,-151.0763 0.5456,-60.7002 8.0512,-132.4343 32.0358,-200.9243 82.4124,-235.3744 69.0947,-406.6829 69.0947,-406.6829 l -154.9831,18.1259 -7.2204,0.8492 c -0.6434,71.1725 -2.4826,167.8233 -4.0898,243.3916 -1.4209,67.9603 -2.669,118.8687 -2.669,118.8687 -29.7976,64.1718 -18.9762,154.7593 0.3728,231.6916"
       id="path626"
       inkscape:connector-curvature="0"
       style="fill:#163560;stroke-width:1.13670659" />
    <path
       d="m 867.17851,1379.4099 25.0746,7.5171 c 0,0 82.7159,-137.238 90.2375,-172.9465 2.4541,-11.624 8.4685,-34.9037 15.4865,-60.957 14.52599,-53.9868 33.27129,-120.0363 33.27129,-120.0363 l 6.1712,-26.7353 21.0564,-91.19459 c 0,0 -40.3189,4.1229 -63.89989,13.9895 -7.8081,3.2578 -13.7644,7.1386 -15.8457,11.7001 -17.3246,38.10239 -34.6196,134.23709 -46.7755,202.81919 -6.777,38.2229 -11.9434,67.8841 -14.6408,74.1735 -7.5227,17.536 -30.5001,114.0491 -50.1356,161.6703"
       id="path628"
       inkscape:connector-curvature="0"
       style="fill:#ffb27d;stroke-width:1.13670659" />
    <path
       d="m 927.59221,1851.7184 c -7.567,50.8949 -26.4409,191.5429 -19.0978,215.0649 l 30.0727,-5.0618 c 0,0 55.2553,-127.0838 67.80679,-161.9431 25.8203,-71.7331 55.7043,-115.3679 65.8778,-149.0292 31.8118,-105.259 71.3363,-448.5603 71.3363,-448.5603 l -157.13489,-7.7898 c -15.8036,26.5682 -22.6932,70.1427 -24.3289,119.6872 -4.1342,125.0378 12.5402,269.6575 16.9324,293.2408 -12.8232,21.0972 -37.2465,48.7874 -51.4644,144.3913"
       id="path630"
       inkscape:connector-curvature="0"
       style="fill:#1c468a;stroke-width:1.13670659" />
    <path
       d="m 1149.5966,731.86573 c 0,0 -16.2935,63.91358 -60.5785,84.38918 0,0 44.285,-39.2699 48.0452,-81.4644 3.7602,-42.19458 12.5322,-2.92478 12.5322,-2.92478"
       id="path632"
       inkscape:connector-curvature="0"
       style="fill:#233862;stroke-width:1.13670659" />
    <path
       d="m 956.10881,1357.0544 c -0.2717,5.305 0.015,9.5335 0.9775,12.564 3.3431,10.519 14.8261,15.3228 42.5845,12.4435 16.96539,-1.7585 24.52999,-30.191 27.90149,-54.4562 10.1917,34.7081 24.4597,54.1834 42.9027,58.2755 26.9115,5.987 162.6661,22.492 171.5473,-42.0434 9.7756,-70.9759 -19.4923,-196.6502 -21.0985,-264.4127 3.9887,-24.022 5.3528,-44.8772 4.9219,-62.7917 -1.1333,-48.27249 -15.3011,-75.32609 -26.1942,-86.22259 -3.085,-2.3643 -6.1712,-3.8352 -18.5578,-5.9722 -6.3292,-1.0753 -15.0989,-2.3189 -27.5288,-3.9557 0,0 -5.0709,-0.5752 -4.9572,-0.3786 2.2961,4.1069 33.044,50.66649 30.649,62.62459 -2.5132,12.5345 -111.5518,1.2583 -119.0745,-5.6381 -7.5205,-6.8804 -19.4195,-59.68389 -19.4195,-59.68389 0,0 -38.6082,4.2286 -57.49689,17.96 0,0 0.07,0.09 0.2012,0.2421 -2.2825,1.6368 -3.9898,3.3795 -4.9674,5.2289 -20.1504,38.36039 -40.2735,135.19189 -54.4255,204.25819 34.3035,18.9 64.2728,13.2767 73.5733,10.7759 -12.157,79.54 -39.729,164.9442 -41.5386,201.1824"
       id="path634"
       inkscape:connector-curvature="0"
       style="fill:#f99746;stroke-width:1.13670659" />
    <path
       d="m 1086.548,2110.7215 h 17.5849 c 5.8904,-0.9253 10.2384,-2.6224 16.2799,-3.4101 9.1733,-1.2129 13.3984,2.5462 14.2373,3.4101 l 0.1637,0.1819 h 74.6975 c 1.8801,-2.6826 0.075,-8.897 -1.6915,-13.4745 a 10.63048,10.63048 0 0 0 -6.9929,-6.3951 c -7.9229,-2.2893 -23.5378,-4.3354 -37.8376,-17.278 -8.0479,-7.2749 -38.8538,-26.7353 -38.8538,-26.7353 l -0.1636,-0.046 c -0.6764,0.015 -3.8967,1.0151 -17.9088,12.8368 -7.2443,6.1075 -19.589,-8.6242 -19.589,-8.6242 0,0 -2.3188,1.9256 -4.05,5.4869 -1.3902,2.8338 -2.4053,6.6986 -1.6028,11.4727 1.114,6.7294 -2.4814,19.249 -5.3527,27.7062 a 187.94307,187.94307 0 0 1 -3.2078,8.7594 c 0,0 -0.84,4.2138 14.2872,6.1087"
       id="path636"
       inkscape:connector-curvature="0"
       style="fill:#233862;stroke-width:1.13670659" />
    <path
       d="m 1082.4241,2056.6745 c 4.2001,2.9703 13.0607,8.7901 18.9375,9.5631 7.9343,1.031 22.7739,-19.2171 22.7739,-19.2171 l -0.1636,-0.046 c -0.6764,0.015 -3.8967,1.0151 -17.9088,12.8368 -7.2443,6.1075 -19.589,-8.6242 -19.589,-8.6242 0,0 -2.3188,1.9256 -4.05,5.4869 m 4.1239,54.047 h 17.5849 c 5.8904,-0.9253 10.2384,-2.6224 16.2799,-3.4101 9.1733,-1.2129 13.3984,2.5462 14.2373,3.4101 l 0.1637,0.1819 h 74.6975 c 1.8801,-2.6826 0.075,-8.897 -1.6915,-13.4745 -2.2677,-2.0154 -2.9076,8.7605 -4.1602,10.4736 -1.2538,1.7277 -60.9389,0.6365 -64.3831,-1.8801 -3.4465,-2.5008 -13.7883,-6.8953 -28.1995,-3.4398 -12.547,2.9851 -31.0344,-4.6832 -35.6084,-6.7292 a 187.94307,187.94307 0 0 1 -3.2078,8.7594 c 0,0 -0.84,4.2138 14.2872,6.1087"
       id="path638"
       inkscape:connector-curvature="0"
       style="fill:#466aa5;stroke-width:1.13670659" />
    <path
       d="m 906.11411,2110.7215 h 17.5838 c 5.8904,-0.9253 10.2405,-2.6224 16.2799,-3.4101 9.1755,-1.2129 13.3983,2.5462 14.2384,3.4101 l 0.1636,0.1819 h 74.69749 c 1.8801,-2.6826 0.075,-8.897 -1.6925,-13.4745 a 10.62707,10.62707 0 0 0 -6.993,-6.3951 c -7.9205,-2.2893 -23.53779,-4.3354 -37.83759,-17.278 -8.0456,-7.2749 -38.8537,-26.7353 -38.8537,-26.7353 l -0.1626,-0.046 c -0.6774,0.015 -3.8977,1.0151 -17.9099,12.8368 -7.2442,6.1075 -19.5889,-8.6242 -19.5889,-8.6242 0,0 -2.3189,1.9256 -4.0478,5.4869 -1.3913,2.8338 -2.4075,6.6986 -1.605,11.4727 1.1151,6.7294 -2.4815,19.249 -5.3516,27.7062 -1.7415,5.122 -3.209,8.7594 -3.209,8.7594 0,0 -0.84,4.2138 14.2884,6.1087"
       id="path640"
       inkscape:connector-curvature="0"
       style="fill:#233862;stroke-width:1.13670659" />
    <path
       d="m 901.99131,2056.6745 c 4.1979,2.9703 13.0596,8.7901 18.9375,9.5631 7.932,1.031 22.7717,-19.2171 22.7717,-19.2171 l -0.1626,-0.046 c -0.6774,0.015 -3.8977,1.0151 -17.9099,12.8368 -7.2442,6.1075 -19.5889,-8.6242 -19.5889,-8.6242 0,0 -2.3189,1.9256 -4.0478,5.4869 m 4.1228,54.047 h 17.5838 c 5.8904,-0.9253 10.2405,-2.6224 16.2799,-3.4101 9.1755,-1.2129 13.3983,2.5462 14.2384,3.4101 l 0.1636,0.1819 h 74.69749 c 1.8801,-2.6826 0.075,-8.897 -1.6925,-13.4745 -2.2678,-2.0154 -2.9066,8.7605 -4.1603,10.4736 -1.2538,1.7277 -60.93659,0.6365 -64.38309,-1.8801 -3.4465,-2.5008 -13.786,-6.8953 -28.1994,-3.4398 -12.5458,2.9851 -31.0321,-4.6832 -35.6073,-6.7292 -1.7415,5.122 -3.209,8.7594 -3.209,8.7594 0,0 -0.84,4.2138 14.2884,6.1087"
       id="path642"
       inkscape:connector-curvature="0"
       style="fill:#466aa5;stroke-width:1.13670659" />
    <path
       d="m 956.10881,1357.0544 c 18.6454,-6.2292 42.5719,-22.7797 71.30549,-59.9125 76.0718,-98.3171 6.4599,-213.8668 -2.8702,-216.0197 -9.3277,-2.1518 -26.89669,74.7498 -26.89669,74.7498 -12.157,79.54 -39.729,164.9442 -41.5386,201.1824"
       id="path644"
       inkscape:connector-curvature="0"
       style="fill:#ef7e29;stroke-width:1.13670659" />
    <path
       d="m 1194.9854,928.21241 c 0,0 52.0839,26.2057 69.4379,131.99439 0,0 -17.0506,23.3866 -41.0886,30.2819 -3.4328,0.9855 -7.01,1.6368 -10.6964,1.8346 -29.5066,1.5755 -17.6529,-164.11089 -17.6529,-164.11089"
       id="path646"
       inkscape:connector-curvature="0"
       style="fill:#f99746;stroke-width:1.13670659" />
    <path
       d="m 1370.2882,1370.3459 c 0,0 29.2668,24.0527 28.5393,35.0264 -0.7434,10.9727 -17.5667,30.0091 -28.5393,29.2657 -10.9885,-0.7276 -17.0812,-52.4397 -17.0812,-52.4397 l 17.0812,-11.8524"
       id="path648"
       inkscape:connector-curvature="0"
       style="fill:#ffb27d;stroke-width:1.13670659" />
    <path
       d="m 1513.6644,2107.508 8.6095,-1.7585 -146.2259,-719.6865 -8.6095,1.7427 146.2259,719.7023"
       id="path650"
       inkscape:connector-curvature="0"
       style="fill:#163560;stroke-width:1.13670659" />
    <path
       d="m 1395.5833,1458.0394 -18.1566,3.7283 -16.4141,-79.7968 18.1567,-3.7283 16.414,79.7968"
       id="path652"
       inkscape:connector-curvature="0"
       style="fill:#163560;stroke-width:1.13670659" />
    <path
       d="m 1138.8661,835.85171 c 0,0 1.4436,6.1382 16.6948,5.1833 0,0 12.8073,-0.7877 12.4163,-7.5329 0,0 -12.4174,-4.789 -29.1111,2.3496"
       id="path654"
       inkscape:connector-curvature="0"
       style="fill:#ffffff;stroke-width:1.13670659" />
    <path
       d="m 871.64921,1367.9065 c 0,0 -36.3166,22.3397 -41.5807,31.9789 -5.263,9.6541 -17.5451,45.1807 -17.5451,45.1807 0,0 8.772,1.3186 17.5439,-14.0349 8.7743,-15.3535 37.7239,-14.0349 47.3734,-22.3704 9.6507,-8.3355 20.8768,-32.7519 20.8768,-32.7519 l -26.6694,-8.0024"
       id="path656"
       inkscape:connector-curvature="0"
       style="fill:#ffb27d;stroke-width:1.13670659" />
    <path
       d="m 894.57201,1383.4567 c 0,0 -5.7256,26.9626 -12.7425,34.8581 -7.0191,7.8967 -16.6698,21.0518 -20.6175,17.5508 -3.9478,-3.5158 4.3865,-32.9031 4.3865,-32.9031 l 28.9735,-19.5058 m -59.6782,19.5058 c -0.8775,1.3186 -31.1435,33.4795 -31.1435,33.4795 0,0 10.9658,4.9707 14.0361,0 3.0713,-4.9709 17.1074,-33.4795 17.1074,-33.4795"
       id="path658"
       inkscape:connector-curvature="0"
       style="fill:#ffb27d;stroke-width:1.13670659" />
    <path
       d="m 1134.2284,803.12921 h -11.9844 a 9.8961676,9.8961676 0 0 1 -9.9018,-9.8961 v -3.6989 a 4.9730913,4.9730913 0 0 1 4.9709,-4.9707 h 23.4388 a 3.2555276,3.2555276 0 0 1 3.2578,3.2588 v 5.5313 c 0,5.396 -4.3808,9.7756 -9.7825,9.7756 m 35.7278,0 h 11.9844 c 5.4675,0 9.9007,-4.4251 9.9007,-9.8961 v -3.6989 a 4.9730913,4.9730913 0 0 0 -4.9708,-4.9707 h -23.4379 a 3.2555276,3.2555276 0 0 0 -3.2578,3.2588 v 5.5313 c 0,5.396 4.3787,9.7756 9.7814,9.7756"
       id="path660"
       inkscape:connector-curvature="0"
       style="fill:#163560;stroke-width:1.13670659" />
    <path
       d="m 1163.4985,792.58061 c -0.102,-0.046 -10.3122,-4.4399 -20.0742,0 l -0.7332,-1.6062 c 10.5044,-4.7889 21.0803,-0.2125 21.5247,0 l -0.7173,1.6062"
       id="path662"
       inkscape:connector-curvature="0"
       style="fill:#163560;stroke-width:1.13670659" />
  </g>
</svg>
