<svg xmlns="http://www.w3.org/2000/svg" height="2666.667" width="4266.667">
  <path d="M4266.666 2666.667H0V0h4266.666v2666.667" fill="transparent"/>
  <path d="M386.922 2245.64c0-34.692-374.459-1212.267 183.315-1588.502 914.042-616.54 1500.761 93.08 1737.48 165.778 308.694 94.804 518.65 26.753 714.043-41.296 181.537-63.217 350.508-126.436 574.421-59.088 525.067 157.91 489.24 1133.614 248.034 1529.241l-3457.293-6.134" fill="#ebf3fa"/>
  <path d="M3973.114 2258.133H275.502c-2.297 0-4.178-1.878-4.178-4.172v-1.374c0-2.293 1.881-4.172 4.178-4.172h3697.612a4.186 4.186 0 014.173 4.172v1.374a4.186 4.186 0 01-4.173 4.172" fill="#2e3552"/>
  <path d="M2208.04 1499.064c-2.42 0-4.757-1.387-5.83-3.72l-21.665-46.507h-71.87a6.434 6.434 0 01-6.429-6.44c0-3.547 2.881-6.44 6.429-6.44h75.96c2.502 0 4.785 1.454 5.831 3.72l23.405 50.227c1.495 3.213.108 7.052-3.113 8.546a6.404 6.404 0 01-2.718.614" fill="#233862"/>
  <path d="M2161.933 1452.107h-55.213c-5.347 0-9.733-4.374-9.733-9.72 0-5.36 4.386-9.734 9.733-9.734h55.213c5.347 0 9.734 4.374 9.734 9.734 0 5.346-4.387 9.72-9.734 9.72" fill="#233862"/>
  <path d="M2105.747 1422.2c1.8 1.373 33.84-2.693 44.146 3.813 10.32 6.507 20.214 24.547 15.587 31-4.627 6.44-26.533-12.906-32.987-12.573-6.44.32-24.946-5.4-24.946-5.4l-1.8-16.84" fill="#ffb27d"/>
  <path d="M2115.533 1419.64s3.347 5.827 3.294 10.907c-.107 8.56-3.294 12.64-3.294 12.64s-38.746 3.093-80.466-2.934c-23.187-3.346-47.294-9.52-66.16-20.613-25.627-15.067-49.427-68.707-67.147-119.92-18.787-54.293-30.72-105.867-30.72-105.867 8.72-21.12 31.813-33.84 51.24-30.72 10.653 1.707 35.627 9.92 41.28 17.347 8.667 11.387 33.133 115.32 52.347 164.507 4.226 10.8 99.626 74.653 99.626 74.653" fill="#f9ddbf"/>
  <path d="M2035.067 1440.253c-23.187-3.346-47.294-9.52-66.16-20.613-25.627-15.067-49.427-68.707-67.147-119.92-.28-36.987-.28-67.52-.28-67.52l41.96 17.4c1.28 2.573 14.827 129.547 45.107 155.32 25.733 21.893 42.16 32.6 46.52 35.333" fill="#eac3a2"/>
  <path d="M2573.944 2178.32a36.126 36.126 0 00-20.181 0v-418.545h20.18v418.545" fill="#c3cedc"/>
  <path d="M2566.151 2248.412h-4.561c-18.708-1.174-33.509-16.72-33.509-35.733 0-16.267 10.846-30.002 25.694-34.36v3.066h20.175v-3.067c14.88 4.36 25.726 18.094 25.726 34.36 0 19.013-14.816 34.56-33.525 35.734m-2.28-48.027c-6.779 0-12.281 5.506-12.281 12.294 0 6.799 5.502 12.293 12.28 12.293 6.795 0 12.297-5.494 12.297-12.293 0-6.788-5.502-12.294-12.296-12.294" fill="#c3cedc"/>
  <path d="M2563.859 2248.48c-.772 0-1.527-.013-2.283-.066h4.566c-.756.053-1.528.066-2.283.066" fill="#2c3655"/>
  <path d="M2573.944 2181.387h-20.181v-3.067a36.126 36.126 0 0120.18 0v3.067" fill="#a3b0c4"/>
  <path d="M2563.865 2224.974c-6.78 0-12.296-5.494-12.296-12.295 0-6.786 5.515-12.293 12.296-12.293 6.796 0 12.296 5.507 12.296 12.293 0 6.801-5.5 12.295-12.296 12.295" fill="#eee1d6"/>
  <path d="M2054.4 1499.067a6.456 6.456 0 01-5.84-3.72l-21.667-46.507h-71.853c-3.56 0-6.44-2.88-6.44-6.44 0-3.547 2.88-6.44 6.44-6.44H2031a6.455 6.455 0 015.84 3.72l23.387 50.227c1.506 3.213.106 7.053-3.107 8.546a6.41 6.41 0 01-2.72.614" fill="#233862"/>
  <path d="M2334.51 2226.054c-.8-.2-1.6-.4-2.4-.614 3.674-16.893 17.287-67.026 32.44-121.652.83.24 1.674.44 2.534.587-15.643 56.345-29.182 106.146-32.574 121.679m44.039-162.812a18.41 18.41 0 00-2.474-.8c15.169-54.215 29.834-105.841 35.981-127.482.83.227 1.66.482 2.474.72a33069.567 33069.567 0 00-35.981 127.562M2515.845 2120.362a33316.603 33316.603 0 00-123.742-34.907c.077-.734.108-1.467.108-2.213v-.454c52.57 14.721 102.36 28.84 124.313 35.094-.216.826-.447 1.654-.679 2.48m-164.5-46.28c-59.1-16.427-111.638-30.706-125.981-33.706.232-.787.448-1.587.664-2.374 16.087 3.373 69.258 17.813 126.598 33.748a22.046 22.046 0 00-1.281 2.332M2489.45 2172.505a34985.273 34985.273 0 00-99.747-79.148c.413-.785.78-1.586 1.1-2.425a33274.81 33274.81 0 01100.206 79.533c-.504.693-1.039 1.373-1.558 2.04m-132.926-105.32c-48.062-37.827-91.189-71.4-104.133-80.4.52-.654 1.024-1.295 1.544-1.935 14.32 9.947 58.011 43.947 104.683 80.695a23.255 23.255 0 00-2.094 1.64M2221.734 2101.746c-.124-.841-.247-1.695-.356-2.547 16.762-2.334 70.123-9.76 128-17.587-.032.532-.063 1.08-.063 1.627 0 .332.016.653.031.987-48.861 6.599-96.656 13.2-127.612 17.52m169.98-23.214a20.704 20.704 0 00-.743-2.52c54.707-7.28 106.615-13.96 129.113-16.12.108.826.216 1.64.309 2.466-21.447 2.12-72.674 8.707-128.68 16.174M2427.047 2219.562a35820.041 35820.041 0 00-46.636-117.16c.776-.387 1.536-.84 2.266-1.32a30861.457 30861.457 0 0146.74 117.493c-.79.334-1.58.653-2.37.987m-62.568-156.853c-23.087-57.36-44.013-108.52-50.6-122.36.76-.306 1.52-.613 2.295-.92 7.318 15.374 28.467 67.08 50.853 122.68-.864.147-1.714.347-2.548.6M2253.25 2173.973c-.52-.667-1.055-1.348-1.575-2.027a31861.39 31861.39 0 01100.653-77.746c.443.746.932 1.466 1.468 2.145a29676.52 29676.52 0 00-100.546 77.628m134.586-103.76a22.198 22.198 0 00-1.713-1.961c45.754-35.027 88.832-67.666 105.011-78.88.505.653.994 1.32 1.484 1.986-15.14 10.534-57.743 42.828-104.782 78.854" fill="#c5d3e8"/>
  <path d="M2370.76 2104.692c-1.247 0-2.48-.107-3.669-.32a22.085 22.085 0 01-2.524-.587 21.412 21.412 0 01-10.773-7.44c-.543-.679-1.027-1.4-1.467-2.147a21.188 21.188 0 01-2.994-9.972c-.015-.333-.015-.653-.015-.986 0-.548.015-1.095.059-1.628a21.62 21.62 0 011.981-7.533c.382-.8.807-1.587 1.292-2.334a21.525 21.525 0 013.874-4.56 21.984 21.984 0 012.099-1.64 21.487 21.487 0 015.87-2.839 20.684 20.684 0 012.554-.6 21.226 21.226 0 013.713-.333c1.85 0 3.625.239 5.328.666.85.213 1.658.48 2.465.8a21.394 21.394 0 017.573 5.013c.616.614 1.174 1.28 1.703 1.961a21.453 21.453 0 013.889 8.32c.293 1.372.47 2.799.499 4.253.014.147.014.294.014.454 0 .745-.044 1.479-.117 2.213a21.378 21.378 0 01-1.306 5.48c-.323.84-.69 1.64-1.116 2.426-1.658 3.107-4.094 5.76-7.015 7.72-.719.48-1.467.933-2.245 1.32a21.415 21.415 0 01-9.672 2.293" fill="#eee1d6"/>
  <path d="M2375.724 2248.413h-9.909c-90.718-2.627-163.707-77.24-163.707-168.587 0-92.987 75.668-168.654 168.661-168.654s168.662 75.667 168.662 168.654c0 91.346-72.989 165.96-163.707 168.587m-41.208-22.361a150.392 150.392 0 0036.253 4.414c19.895 0 38.886-3.88 56.289-10.907.794-.334 1.589-.653 2.368-.987 23.727-10.065 44.338-26.039 60.011-46.066.53-.667 1.06-1.346 1.574-2.04 11.201-14.814 19.723-31.76 24.849-50.107.233-.826.467-1.653.685-2.479a150.991 150.991 0 004.861-38.054c0-5.908-.343-11.734-1.013-17.468-.093-.825-.202-1.639-.311-2.466-3.35-25.36-13.071-48.76-27.467-68.533a61.313 61.313 0 00-1.48-1.987c-18.99-25.213-45.71-44.293-76.603-53.694-.81-.24-1.636-.492-2.462-.72a150.312 150.312 0 00-41.3-5.76c-19.225 0-37.64 3.628-54.575 10.227-.779.307-1.542.614-2.29.92-23.556 9.64-44.12 25.068-59.965 44.506-.53.64-1.028 1.28-1.542 1.934-11.84 15.027-20.892 32.36-26.36 51.214-.219.786-.437 1.587-.655 2.374a150.601 150.601 0 00-5.25 39.453c0 6.559.436 13.026 1.246 19.373.11.854.218 1.707.359 2.547 3.832 26.173 14.41 50.186 29.927 70.199.53.68 1.06 1.362 1.59 2.027 19.863 24.734 47.345 43.094 78.862 51.466.795.214 1.59.415 2.4.614" fill="#c3cedc"/>
  <path d="M2370.759 2248.481c-1.647 0-3.294-.013-4.956-.067h9.911c-1.647.054-3.308.067-4.955.067" fill="#2c3655"/>
  <path d="M2008.293 1452.107h-55.2c-5.36 0-9.733-4.374-9.733-9.72 0-5.36 4.373-9.734 9.733-9.734h55.2c5.36 0 9.734 4.374 9.734 9.734 0 5.346-4.374 9.72-9.734 9.72" fill="#233862"/>
  <path d="M2495.787 1720.823s31.223 3.215 35.087 7.507c3.848 4.294 18.02 27.747 18.458 32.107.423 4.374.11 12.414-3.128 11.134-3.207-1.293-16.707-22.747-23.542-23.066-6.836-.335-28.72-9.481-28.72-9.481l1.845-18.2" fill="#ed985f"/>
  <path d="M2463.082 1887.626l-290.523 2.987-130.71-408.547 268.734-2.987 152.5 408.547" fill="#2b478b"/>
  <path d="M2369.296 1499.895s5.757 150.214 19.737 165.16c9.049 9.654 106.736 55.773 106.736 55.773l-.98 18.414s-127.07-17.986-145.811-40.653c-36.962-44.747-39.412-166.707-41.188-179.667-1.807-12.96 35.339-38.96 61.506-19.027" fill="#ed985f"/>
  <path d="M2655.292 2135.415h-97.236s-3.65-15.509 2.737-26.068c5.652-9.334 3.486-14.653-.685-22.373 4.399 1.8 10.084 3.44 16.372 3.079 4.838-.279 9.953-2.48 14.45-5.08 4.186 4.76 22.105 25.081 27.709 29.093 6.353 4.575 34.698 2.947 36.653 21.349" fill="#1a3670"/>
  <path d="M2206.982 1779.813c6.47 38.947 41.007 66.987 80.469 66.508 48.957-.588 120.461-1.561 146.678-2.546 55.555-2.094 76.429.145 76.268 1.719-2.495 23.332-4.538 13.374 21.34 11.56 0 0 91.541-2.587 64.15-65.214-27.376-62.625-287.466-82.147-310.448-79.425-19.554 2.306-88.5 7.065-78.457 67.398" fill="#ed7d2b"/>
  <path d="M2600.864 1816.416c-1.171 44.266-8.052 166.96 9.19 265.492 4.379 24.986-31.47 25.76-31.726 25.787-6.817.813-18.782 1.4-22.744-3.534-27.668-34.332-66.708-193.625-56.09-259.772 5.165-32.254 37.324-31.68 63.292-43.574 15.991-7.32 38.543-1.986 38.078 15.601" fill="#ed7d2b"/>
  <path d="M2121.72 2086.853h20.173V1750.36h-20.173v336.493M2276.165 1231.298c28.467-7.814 59.022-.825 81.52 18.283 9.923 8.426 20.883 19.038 31.133 31.734 25.386 31.466-17.744 66.53-11.138 77.303 6.635 10.787 21.002 18.76 16.277 42.32-4.74 23.56-43.026 55.987-55.986 58.08-131.448 21.187-193.018-48.413-151.087-90.252 41.945-41.836 20.631-97.802 55.245-122.013 10.693-7.473 22.631-12.324 34.036-15.455" fill="#233862"/>
  <path d="M2373.65 1489.069c-10.5 8.213-23.854 15.267-40.848 20.227-63.666 18.626-91.524-34.494-102.97-71.4 8.505-5.547 16.733-7.12 21.48-7.973 4.63-.814 9.524-1.468 13.557-1.908 6.946-5.959 16.427-29.294 16.79-64.693l3.088.628 51.652 10.999s-1.398 16.306-1.675 31.654c-.174 11.999.32 23.439 2.753 26.105 3.553 1 6.742 2.094 6.742 2.094.772 1.133.816.627.568.24.743 1.08 16.048 23.267 28.862 54.027" fill="#ffb27d"/>
  <path d="M2336.398 1374.96s-1.404 16.281-1.648 31.641c-28.997-1.227-43.933-27.893-50.01-42.64l51.658 11" fill="#ed985f"/>
  <path d="M2345.884 1389.637s-68.596.16-68.058-42.574c.568-42.72-7.918-71.474 35.907-73.382 43.839-1.908 52.12 14.506 55.425 28.814 3.274 14.304-5.415 85.995-23.274 87.142" fill="#ffb27d"/>
  <path d="M2367.431 1278.716c-10.424-13.002-18.465-10.294-23.012-6.495-37.193-21.142-61.784 8.989-61.784 8.989-5.03 30.59-27.383 47.838-27.383 47.838s12.675 8.996 41.316.898c36.638-10.363 47.53-43.279 48.992-48.323 4.122 3.82 9.313 6.103 13.684 14.653 5.19 10.156 8.421 16.036 9.488 33.145 0 0 14.328-31.207-1.3-50.705M2686.631 2133.91h-243.84v19.758h243.84v-19.759" fill="#233862"/>
  <path d="M2177.1 1779.815c6.475 38.947 41 66.987 80.474 66.507 48.957-.587 120.458-1.561 146.678-2.548 55.56-2.093 76.434.147 76.259 1.72-2.482 23.335-4.535 13.375 21.352 11.56 0 0 91.532-2.586 64.15-65.213-27.397-62.626-287.469-82.147-310.46-79.426-19.537 2.307-88.477 7.066-78.453 67.4" fill="#f99746"/>
  <path d="M2176.818 1649.8c4.668-31.881-6.687-152.6 18.525-190.334 18.246-27.28 43.531-38.04 74.757-38.56 10.038 5.707 48.316 27.214 63.314 23.4.161-.053.454-.132.834-.254 7.038-2.2 9.453-7.373 3.234-11.346 0-.013 25.577 5.52 33.523 14.533 7.623 8.667 7.272 27.254 9.716 49.16.6 5.428.687 10.894 1.346 16.32 3.014 24.641-4.931 27.307-32.074 98.413-13.287 34.76-7.053 62.52 1.8 81 7.945 16.588 2.385 36.468-13.17 46.308-53.598 33.932-157.84 92.973-161.512 41.373-3.717-52.36-6.731-85.973-.293-130.013" fill="#f9ddbf"/>
  <path d="M2267.781 1495.24s25.757 174.8 42.929 189.614c11.094 9.561 121.334 27.307 121.334 27.307l1.807 17s-157.275 11.546-166.279-1.574c-36.328-53-61.742-190.106-65.236-204.16-3.494-14.052 34.313-47.052 65.445-28.186" fill="#ffb27d"/>
  <path d="M2625.408 2134.108h-97.236s-3.624-15.507 2.738-26.067c5.653-9.334 3.495-14.654-.693-22.387 4.397 1.814 10.115 3.453 16.38 3.094 4.849-.28 9.97-2.48 14.465-5.094 4.187 4.774 22.114 25.081 27.703 29.106 6.346 4.575 34.678 2.948 36.643 21.348" fill="#2b478b"/>
  <path d="M2570.983 1816.414c-1.174 44.266-8.024 166.96 9.212 265.493 4.376 24.986-31.49 25.76-31.744 25.787-6.818.813-18.758 1.4-22.754-3.533-27.653-34.334-66.691-193.627-56.084-259.773 5.185-32.254 37.326-31.681 63.299-43.575 15.999-7.32 38.546-1.985 38.07 15.601" fill="#f99746"/>
  <path d="M2357.284 1364.425s-6.609-2.187-24.715.332c0 0 1.374 7.053 14.823 6.974 7.622-.04 9.892-7.306 9.892-7.306" fill="#fff"/>
  <path d="M2292.256 1547.666s-46.61 40.4-100.812 26.6c0 0-19.537-130.427 48.314-132.227 0 0 56.216 22.28 52.498 105.627" fill="#f9ddbf"/>
  <path d="M2467.842 1889.613H2141.89v-25.653h325.952v25.653" fill="#233862"/>
  <path d="M2442.804 2153.667l23.299-13.453-159.495-276.253-23.314 13.454 159.51 276.252" fill="#233862"/>
  <path d="M2141.89 1863.962c5.95 0 28.585-21.334 64.09-20.187 35.52 1.146 233.65-.053 233.65-.053s25.876-2.708 28.299 20.24h-326.04" fill="#2d53a0"/>
  <path d="M2439.645 2181.385h20.177V1759.77h-20.177v421.614" fill="#233862"/>
  <path d="M2432.048 1712.156s34.886 2.015 38.735 6.307c3.865 4.281 18.024 27.748 18.451 32.107.428 4.361.107 12.414-3.1 11.12-3.238-1.28-16.573-24.452-23.415-24.773-6.843-.333-28.853-7.76-28.853-7.76l-1.818-17" fill="#ffb27d"/>
  <path d="M2109.072 1771.706h380.22c0-23.345-18.921-42.266-42.272-42.266h-312.78c-13.913 0-25.168 11.28-25.168 25.187v17.08" fill="#233862"/>
  <path d="M2092.202 2231.333c-1.497-6.734 74.487-273.815 83.145-304.242l2.485.707c-23.275 81.734-83.6 295.534-83.092 303.04l-2.538.495" fill="#2d53a0"/>
  <path d="M1982.287 2037.28c6.733-1.494 273.807 74.48 304.233 83.147l-.7 2.48c-81.74-23.295-295.537-83.6-303.042-83.107l-.491-2.52" fill="#2d53a0"/>
  <path d="M2010.258 1981.934c6.777 1.213 223.91 174.28 248.661 194.012l-1.607 2.014c-66.451-53-240.458-191.067-247.595-193.506l.54-2.52" fill="#2d53a0"/>
  <path d="M2292.714 2059.282c-6.456-2.414-281.483 35.893-312.807 40.267l.351 2.56c84.184-11.762 304.256-41.934 311.627-40.401l.83-2.426" fill="#2d53a0"/>
  <path d="M2074.728 1934.88c5.29 4.427 107.428 262.64 119.056 292.068l-2.395.946c-31.238-79.04-113.39-285.426-118.37-291.093l1.709-1.92" fill="#2d53a0"/>
  <path d="M2258.768 1985.28c-6.792 1.12-226.218 171.28-251.222 190.667l1.58 2.039c67.14-52.106 242.975-187.853 250.14-190.186l-.498-2.52" fill="#2d53a0"/>
  <path d="M2110.36 2083.24c0-11.853 9.6-21.467 21.453-21.467 11.854 0 21.454 9.614 21.454 21.467 0 11.84-9.6 21.453-21.454 21.453-11.853 0-21.453-9.613-21.453-21.453" fill="#f99746"/>
  <path d="M1981.173 2079.824c0 83.067 67.575 150.642 150.646 150.642 83.057 0 150.632-67.575 150.632-150.642 0-83.052-67.575-150.626-150.632-150.626-83.071 0-150.646 67.574-150.646 150.626zm-18.008 0c0-92.985 75.661-168.652 168.654-168.652 93.007 0 168.654 75.667 168.654 168.652 0 93.002-75.647 168.667-168.654 168.667-92.993 0-168.654-75.665-168.654-168.667M2485.533 2212.68c0-19.773-16.027-35.799-35.804-35.799-19.763 0-35.789 16.026-35.789 35.8 0 19.772 16.026 35.812 35.789 35.812 19.777 0 35.804-16.04 35.804-35.813" fill="#233862"/>
  <path d="M2437.427 2212.681c0-6.786 5.513-12.293 12.295-12.293s12.295 5.507 12.295 12.293c0 6.8-5.513 12.294-12.295 12.294s-12.295-5.494-12.295-12.294" fill="#f99746"/>
  <path d="M1769.707 1217.04c-4.827-9.307 105.293-42.827 107.04 49.04 0 0 206.28-5.067 107.786-120.053-34.106-39.8-30.586-72.707-29.573-103.347 1.04-30.64-21.24-119.693-97.587-110.72 0 0-20-8.133-44.96 4.813-56.746 29.44-183.88 314.147-42.706 280.267" fill="#163560"/>
  <path d="M1630.133 2144.08s-23.106 21.093-18.6 36.093c4.507 14.987 25.374 24.974 28.187 43.294 2.827 18.32 14.093 28.306 24.24 28.306h48.387s7.466-12.88-10.574-16.773c-18.04-3.88-24.84-25.413-23.72-45.4 1.134-19.987-1.68-46.627-1.68-46.627l-38.346-8.88-7.894 9.987M1825.787 2153.04s-8.294 90.453 1.853 95.453h131s-1.147-16.346-22.013-19.68c-20.854-3.333-57.507-15.546-63.707-42.746-6.2-27.2-47.133-33.027-47.133-33.027" fill="#233862"/>
  <path d="M1733.24 1511.907c26.72-59.934 43.08-77.134 39.947-95.747-2.32-13.84 7.08-258.147 7.08-258.147 3.173-.986 9.533-1.866 13-2.64 10.96-2.426 20.04-10.133 23.813-20.706 4.547-12.734 8.173-31.547 8.08-55.12l3.427.68 57.56 11.386s-1.307 18.12-1.347 35.187v.427c-.067 14.813 9.653 27.906 23.893 32.013 7.267 2.093 13.6 3.893 13.6 3.893s21.134 60.347 25.174 122.334c4.04 62-38.44 88.933.32 212.813 39.573 126.533-229.32 46.747-214.547 13.627" fill="#ffb27d"/>
  <path d="M1886.147 1091.613s-1.307 18.12-1.347 35.187c-32.213-.907-49.24-30.293-56.213-46.573l57.56 11.386" fill="#e8945b"/>
  <path d="M1896.907 1107.773s-76.214 1.267-76.267-46.213c-.053-47.467-9.92-79.28 38.733-82.093 48.667-2.814 58.134 15.293 62.014 31.146 3.866 15.827-4.654 95.614-24.48 97.16" fill="#ffb27d"/>
  <path d="M1894.093 978.307s-20.866 55.693-52.893 63.933c-32.027 8.227-45.92-.347-45.92-.347s24.56-19.52 29.667-53.573c0 0 53.4-36.52 69.146-10.013" fill="#163560"/>
  <path d="M1888.92 982.827s15.467 5.786 21.84 17.066c6.227 11.04 11.533 25.654 10.293 43.587 0 0 15.734-37.853-1.946-59.267-18.734-22.706-30.187-1.386-30.187-1.386" fill="#163560"/>
  <path d="M1880.32 1078.333s5.267 6.92 15.787 6.414c8.48-.4 11.746-7.747 11.746-7.747s-15.573-3.747-27.533 1.333" fill="#ebf3fa"/>
  <path d="M1936.64 1405.053l-75.613 22.587-23.974-5.88-68.186-16.707s-8.814-2.946-16.627-20.973c-1.48-3.4-4.147-13.8-6.933-26.093-3.08-13.64-6.28-29.627-8.08-40.934-2.64-16.626-7.947-37.333-12.56-59.64v-.013c-3.387-16.32-6.4-33.493-7.76-50.573-1.827-23.094 15.026-43.467 38.053-46.027l25.307-2.8c80.333 65.533 142.026 5.133 142.026 5.133s21.134 37.574 34.96 91.68c13.827 54.107-20.613 150.24-20.613 150.24" fill="#f9ddbf"/>
  <path d="M1931.84 1419.64s37.44 116.547 39.84 156.227c2.4 39.68-71.573 563.693-74.547 581.986-2.813 17.227-24.213 28.214-24.213 28.214s-9.84 5.813-23.893 1.84c-19.48-5.507-25.64-12.094-25.64-12.094s-29.147-373.72-11.12-507.226c18.04-133.494 18.253-248.947 18.253-248.947h101.32" fill="#ed7d2b"/>
  <path d="M1773.187 1416.16s-57.107 76.64-62.44 128.44c-5.32 51.813-8.347 233.773-19.694 284.28-11.346 50.507-53.026 147.693-53.026 305.213 0 0 4.333 9.027 17.72 13.84 4.266 1.534 10 3.027 15.573 4.294 11.027 2.533 22.347-2.854 27.373-12.987 28.187-56.733 117.947-239.72 122.547-277.707 3.253-26.88 31.6-204.786 93.413-309.173 14.84-25.067-9.106-124.733-9.106-124.733l-132.36-11.467" fill="#f99746"/>
  <path d="M1882.013 1079.6s1.32 5.587 15.24 4.733c0 0 11.68-.72 11.334-6.88 0 0-11.334-4.373-26.574 2.147" fill="#fff"/>
  <path d="M1937.813 1401.64s-15.026 11.893-44.893 12.493c-35.667.72-124.053-9.093-124.053-9.093s-3.92 10.973-3.76 22.56c0 0 107.946 27.227 170.48 3.973 0 0 8.066-15.173 2.226-29.933" fill="#233862"/>
  <path d="M1890.6 1426.453c0 7.187 4.88 13.027 10.88 13.027 6 0 10.88-5.84 10.88-13.027 0-7.186-4.88-13.026-10.88-13.026-6 0-10.88 5.84-10.88 13.026zm-5.4 0c0-10.16 7.307-18.413 16.28-18.413s16.28 8.253 16.28 18.413-7.307 18.427-16.28 18.427-16.28-8.267-16.28-18.427" fill="#fff"/>
  <path d="M1809.52 1401.653c-29.16-14.933-49.8-29.653-64.213-43.666-3.08-13.64-6.28-29.627-8.08-40.934-2.64-16.626-11.827-57.76-16.44-80.08l121.426 174.92s5.467 9.267-32.693-10.24M1852.52 1285.08s54 85.747 69.653 101.147c15.64 15.413-63.866-12.24-63.866-12.24l-5.787-88.907" fill="#eac3a2"/>
  <path d="M1975.333 1422.653c1.8 1.36 33.84-2.706 44.16 3.8 10.307 6.507 20.2 24.547 15.574 31-4.627 6.44-26.534-12.906-32.987-12.573-6.44.32-24.947-5.4-24.947-5.4l-1.8-16.827" fill="#ffb27d"/>
  <path d="M1720.787 1236.973s56.933 151.627 109.733 182.667c52.8 31.04 146.613 23.533 146.613 23.533s2.72-4.16 3.467-13c.373-4.386-3.467-10.533-3.467-10.533s-95.4-63.853-99.613-74.653c-19.213-49.2-47.053-112.147-58.653-120.52-11.6-8.387-85.054-19.067-98.08 12.506" fill="#f9ddbf"/>
  <path d="M2772.114 2247.879l-8.274-1.68 140.653-692.282 8.273 1.681-140.652 692.28" fill="#163560"/>
  <path d="M2885.702 1623.162l17.46 3.601 15.777-76.76-17.46-3.586-15.777 76.745" fill="#163560"/>
  <path d="M3229.326 2165.293l23.584-7.653s4.917-64.053-5.596-140.828c-6.636-48.64-18.828-101.318-40.913-143.626-9.993-19.145-22.005-36.174-36.476-49.733 0 0-18.108-42.054-42.092-98.252-26.662-62.495-193.55-80.814-98.334 50.092 19.547 26.866 40.533 74.147 65.676 102.868 42.951 49.093 73.271 106.399 94.097 156.853 29.76 72.146 40.054 130.28 40.054 130.28" fill="#ffb27d"/>
  <path d="M3283.043 2168.868c7.166 11.599-8.296 22.959-27.391 33.653-19.116 10.706-11.203 11.786-35.647 29.973-24.445 18.2-38.837 16.2-42.591 13.533-3.331-2.36 6.66-13.6 17.137-25.892 1.332-1.534 2.624-3.109 3.956-4.667 11.708-14.027 13.444-31.626 18.934-49.868 5.188-17.279-3.068-60.253-3.068-60.253l32.64-25.92s6.62 39.08 10.274 55.348c2.14 9.572 9.972 17.586 16.31 23.492 3.431 3.213 6.923 6.52 9.446 10.601" fill="#ffb27d"/>
  <path d="M3255.652 2202.521c-19.116 10.706-11.203 11.786-35.647 29.973-24.445 18.2-38.837 16.2-42.591 13.533-3.331-2.36 6.66-13.6 17.137-25.892l.323.119s22.062-2.96 40.916-19.707c15.36-13.64 27.27-32.787 37.807-42.28 3.431 3.213 6.923 6.52 9.446 10.601 7.166 11.599-8.296 22.959-27.391 33.653" fill="#1c468a"/>
  <path d="M3065.917 936.766s57.558-7.007 86.496 46.56c28.937 53.568 26.595 131.176 54.66 167.778 28.064 36.605-4.664 71.31-4.664 71.31l-218.64 7.381s-15.183-40.917 0-90.018c15.203-49.102-59.027-195.585 82.148-203.011" fill="#b64c41"/>
  <path d="M2871.134 1586.891c2.244 8.548 9.572 27.853 15.267 27.84 4.637 0 6.288-23.625 12.261-28.652 8.645-7.268 15.694-22.533 16.825-26.228 2.319-7.626 4.49-9.212 4.49-9.212l-.02-.015h.038s69.136-126.373 74.534-158.734c1.763-10.532 6.289-31.652 11.613-55.318 5.769-25.74 12.484-54.478 17.53-76.007-22.075-4.302-46.487-5.818-66.373-6.205-4.062 26.19-7.68 52.944-10.814 76.198-4.638 34.587-8.181 61.414-10.351 67.174-6.01 15.773-22.576 100.84-38.195 144.999-1.781 4.333-6.864 15.654-12.41 19.507-6.956 4.786-16.64 16.094-14.395 24.653" fill="#ffb27d"/>
  <path d="M2971.436 1280.609c3.96-61.078 51.245-126.747 51.245-126.747s1.705-.173 4.646-.447a4.225 4.225 0 003.588-2.731c1.764-4.828 2.274-15.389 2.254-26.4-.04-16.813-1.333-34.66-1.333-34.66l56.714-11.231 3.372-.665c-.098 28.528 5.293 49.974 11.135 61.952 2.784 5.697 8.214 9.596 14.487 10.477 12.174 1.707 33.62 5.352 48.069 11.393 7.018 2.927 12.37 6.425 14.252 10.528 15.565 34.244-212.428 169.614-208.429 108.53" fill="#ffb27d"/>
  <path d="M3031.834 1089.625s1.288 17.847 1.326 34.662c31.738-.896 48.507-29.845 55.386-45.89l-56.712 11.228" fill="#e8945b"/>
  <path d="M3021.236 1105.544s75.08 1.24 75.138-45.532c.057-46.772 9.776-78.111-38.15-80.878-47.946-2.771-57.283 15.067-61.094 30.674-3.812 15.607 4.573 94.208 24.106 95.736M2916.455 2195.56l24.083 5.934s37.89-51.88 69.399-122.68c19.96-44.853 37.32-96.053 40.834-143.652 1.576-21.534.322-42.335-4.825-61.481 0 0 6.743-45.28 15.954-105.693 10.237-67.173 23.475-153.04 33.883-216.187l-6.287-1.853L2986.994 1490s-47.102 107.375-35.06 268.8c2.468 33.119-4.597 84.374 1.652 122.027 10.693 64.36 6.286 129.039-2.583 182.892-12.687 77.015-34.548 131.84-34.548 131.84" fill="#ffb27d"/>
  <path d="M2999.362 983.802c11.585-14.044 20.356-10.99 25.277-6.773 40.252-22.33 67.502 10.82 67.502 10.82 5.017 33.557 29.222 52.783 29.222 52.783s-13.366 7.102-45.231.339c-37.84-8.03-48.238-50.649-49.75-56.192-4.577 4.117-13.616 13.058-16.373 21.824-3.734 11.907-5.42 36.426-12.562 35.593 0 0-15.492-37.295 1.915-58.394" fill="#b64c41"/>
  <path d="M2924.747 1917.611c90.675 51.8 329.341-30.694 329.102-35.467-1.258-25.346-24.196-177.987-51.127-323.654-16.57-89.573-60.67-123.027-53.603-128.68l.1-.106c27.19-19.293 48.971-223.063 30.824-257.54-.858-1.683-2.376-3.228-4.452-4.7.16-.142.18-.211.18-.211-16.97-12.38-51.646-16.169-51.646-16.169s-18.706 45.77-24.416 52.926c-37.013 46.226-103.472 25.358-94.429-3.438 3.255-10.487 20.064-43.49 22.1-47.172.1-.178-4.711.455-4.711.455-11.14 1.473-19.026 2.595-24.715 3.577-11.16 1.895-13.915 3.229-16.69 5.367-9.782 9.786-22.519 34.09-23.537 77.477-.38 16.133-17.189 194.267 37.172 191.187 1.238-.08.18 2.84-2.176 8.346-7.666 17.64-29.466 61.908-35.775 118.68-20.562 184.735-32.201 359.122-32.201 359.122" fill="#f9ddbf"/>
  <path d="M3040.102 1077.018s-1.044 5.84-15.424 5.73c0 0-12.105-.09-12.067-6.446 0 0 11.433-5.144 27.491.716" fill="#fff"/>
  <path d="M2960.252 2226.907c-.018 13.627-19.139 15.134-41.017 14.173-21.877-.96-15.723 4.12-46.075 6.72-30.37 2.6-41.546-6.695-43.335-10.92-1.59-3.76 12.82-8.054 28.196-12.986 1.936-.614 3.89-1.253 5.826-1.894 17.33-5.76 28.068-19.813 42.35-32.426 13.531-11.96 29.127-52.841 29.127-52.841l41.382-4.84s-14.938 36.707-20.399 52.454c-3.232 9.266-.785 20.2 1.498 28.56 1.242 4.546 2.465 9.199 2.447 14" fill="#ffb27d"/>
  <path d="M2919.25 2241.079c-21.885-.96-15.728 4.119-46.076 6.72-30.365 2.6-41.552-6.695-43.332-10.92-1.598-3.76 12.803-8.053 28.186-12.988l.218.267s20.322 9.108 45.167 4.787c20.231-3.506 40.445-13.506 54.41-16.04 1.218 4.546 2.453 9.2 2.434 14.001-.018 13.626-19.123 15.134-41.008 14.173" fill="#1c468a"/>
  <path d="M2924.747 1917.611c90.675 51.8 329.341-30.694 329.102-35.467-1.258-25.346-24.196-177.987-51.127-323.654-16.57-89.573-60.67-123.027-53.603-128.68-1.677 1.373-27.25 21.988-74.145 19.187-41.984-2.52-74.325-7.786-82.25-9.188-7.667 17.64-29.467 61.908-35.776 118.68-20.562 184.735-32.201 359.122-32.201 359.122" fill="#2b478b"/>
  <path d="M3149.21 1429.71s-74.247 30.986-154.314 1.76l-4.081 12.545s82.388 28.614 161.605-3.945l-3.21-10.36M3010.758 1047.177h-12.305c-5.616 0-10.175-4.551-10.175-10.167v-3.795c0-2.819 2.298-5.106 5.115-5.106h24.074c1.835 0 3.336 1.5 3.336 3.347v5.677a10.036 10.036 0 01-10.045 10.044M3047.451 1047.18h12.318c5.612 0 10.151-4.552 10.151-10.168v-3.795c0-2.82-2.279-5.106-5.085-5.106h-24.088a3.354 3.354 0 00-3.353 3.347v5.676c0 5.549 4.52 10.046 10.057 10.046" fill="#163560"/>
  <path d="M3040.83 1036.349c-.112-.047-10.598-4.566-20.637-.006l-.747-1.653c10.786-4.91 21.664-.211 22.112-.006l-.728 1.665" fill="#163560"/>
  <path d="M3231.091 1381.025c.873-1.067-39.1-14.04-62.577-8.44-13.978 3.346-8.288 20.147 3.173 21.332 11.46 1.188 51.75-3.573 59.404-12.892" fill="#ffb27d"/>
  <path d="M3162.176 1376.522s-12.963 17.266-12.963 25.44c0 8.16 7.058 27.132 13.921 25.026 6.902-2.105 9.795-20.28 10.851-24.507 1.056-4.212 8.994-7.12 10.792-12.906 1.819-5.788 2.112-8.16 2.112-8.16l-24.713-4.893M3197.248 1212.143c-.182-.093 102.85 172.061 89.589 203.926-13.261 31.867-23 4.693-34.56-7.958-1.984-2.187-94.387-121.495-91.472-140.75 2.916-19.257 36.443-55.218 36.443-55.218M3148.008 1402.88s-44.707 5.627-48.939 8.801c-4.211 3.16-14.413 24.439-13.37 31 1.083 6.546 15.496 16.853 20.422 16.853 4.927 0 6.724-10.906 11.303-13.374 4.579-2.453 8.887-3.039 12.403-3.985 6.705-1.801 19.398-7.628 19.398-7.628l-1.217-31.666" fill="#ffb27d"/>
  <path d="M3350.87 1189.206s-58.841 159.158-84.154 171.45c-25.334 12.294-118.726 42.228-118.726 42.228v36.6s95.018 1.505 142.183-12.267c47.144-13.772 108.55-65.187 108.55-65.187l-47.852-172.824" fill="#233862"/>
  <path d="M3473.726 1038.5l-57.54 109.192-13.746.98-6.202 17.42-57.69 173.812s-31.924-220.84 135.178-301.404" fill="#233862"/>
  <path d="M3377.713 1135.045s-63.637 234.61-69.782 458.476c0 0 52.797 18.401 135.713 3.828 83.35-14.64-65.93-462.304-65.93-462.304M3667.849 2249.959h57.221c7.2-3.908 13.611-12.854 15.648-26.213 2.801-18.428 23.45-28.481 27.917-43.56 4.467-15.066-18.426-36.293-18.426-36.293l-3.843-4.935-3.981-5.118-37.963 8.944s-.949 9.042-1.527 20.56c-.417 8.308-.625 17.921-.162 26.35 1.134 20.092-5.625 41.744-23.472 45.652-13.218 2.893-12.616 10.72-11.412 14.613M3335.815 2249.958h130.843c6.285-7.679 3.963-36.014 3.025-45.265-.213-1.869-.34-2.947-.34-2.947s-44.68-35.735-50.816-8.373a33.089 33.089 0 01-.66 2.518c-7.735 25.602-42.422 37.227-62.45 40.467-13.018 2.12-17.812 8.88-19.602 13.6" fill="#233862"/>
  <path d="M3360.733 1519.613s6.795 84.654 14.767 186.401c10.825 138.213 23.85 308 25.157 340.16 2.222 55.853 11.174 145.187 11.174 145.187s21.193 21.226 63.644 12.28c0 0 37.833-127.534 48.636-262.467.175-2.215.327-4.44.501-6.667 10.063-137.361 25.68-426.614 25.68-426.614l-189.56 11.72" fill="#f99746"/>
  <path d="M3360.733 1519.613s6.795 84.654 14.767 186.401l148.611 235.16c.175-2.215.327-4.44.501-6.667 10.063-137.361 25.68-426.614 25.68-426.614l-189.56 11.72" fill="#ed7d2b"/>
  <path d="M3391.718 1529.667s122.284 306.562 202.695 450.627c80.387 144.053 105.534 184.268 105.534 184.268s46.06-18.427 50.248-31c0 0-30.738-278.12-84.598-345.92-30.438-38.308-66.169-153.268-67.848-193.48-1.68-40.201-10.883-119.774-10.883-119.774l-195.148 55.28" fill="#f99746"/>
  <path d="M3422.151 1082.781c47.797 15.08 130.467-25.616 130.467-25.616s-44.07-33.067-41.738-101.82l-36.965 29.774-25.086 20.226s.087 11.922 2.833 32.817c.501 3.812 1.09 7.925 1.787 12.32.545 3.506-1.002 7.05-4.01 8.913-17.414 10.773-27.288 23.386-27.288 23.386" fill="#ffb27d"/>
  <path d="M3355.449 1526.666c1.456 1.198 3.11 1.92 5.03 1.92 17.96-.254 70.296 9.719 114.557 5.172 37.332-3.586 70.362-14.64 105.84-30.546 4.722-2.107 15.556-7.894 15.313-13.161-.154-5.772-.728-14.132-1.456-24.665-2.493-36.627-6.884-99.615-2.604-172.28a798.755 798.755 0 001.214-40.17c.375-98.49-19.174-185.117-58.403-214.436 0 0-27.382 15.35-46.313 21.407-18.534 5.93-28.11 4.737-37.73-1.646 0 0-18.754 9.31-26.74 18.041-18.557 20.215-33.03 47.05-42.606 85.571-8.142 32.783-15.754 80.58-18.402 141.839-1.191 27.758-8.87 221.994-7.7 222.954" fill="#fff"/>
  <path d="M3627.402 1572.32c-120.617 75.639-219.024 37.293-219.024 37.293-17.625-138.002-7.878-304.533-5.586-345.16 5.853-178.319 132.145-225.956 132.145-225.956l52.608 162.735 7.767 72.403 14.064 130.792 18.026 167.893" fill="#2b478b"/>
  <path d="M3448.812 1005.343s.108 11.922 2.844 32.82c27.808-4.771 59.364-49.72 59.364-49.72-14.152-4.089-26.559-4.824-37.114-3.324l-25.094 20.224" fill="#ed975d"/>
  <path d="M3428.135 1004.066s86.061 14.299 94.134-39.438c8.095-53.736 24.633-88.083-29.985-99.485-54.618-11.402-68.392 7.496-75.443 24.776-7.05 17.28-10.901 109.042 11.294 114.147M3672.163 1472.48s9.235 12.293 9.6 17.2c2.492 33.295-12.731 37.894 26.653 56.389 0 0 16.823 6.411 17.097-6.627.297-13.054-11.657-13.266-9.486-31.548 2.538-21.08 2.286-21.28-11.566-32.28l-9.166-15.145-23.132 12.011" fill="#ffb27d"/>
  <path d="M3522.342 959.459s-8.838-1.476-7.401-13.641c1.415-12.167 1.393-28.07-8.49-25.105-9.906 2.963-10.385 10.883-14.456 6.259-4.05-4.627-4.136-24.11-33.57-25.467-29.41-1.356-41.384 8.889-55.077 2.872-13.672-6.018-14.412-26.734-14.412-26.734s3.897 7.397 9.775 9.75c0 0-22.837-31.23 3.613-52.646 26.43-21.415 53.38-7.395 68.685-6.467 33.7 2.037 55.491 4.062 66.485 26.21 11.016 22.15 6.466 83.65-15.152 104.969" fill="#2b478b"/>
  <path d="M3686.736 1487.12s-8.894 9.267-9.46 13.121c-1.81 12.373-5.929 17.707-3.87 19.053 4.3 2.8 10.026-6.359 12.742-14.574 2.716-8.227.588-17.6.588-17.6" fill="#ffb27d"/>
  <path d="M3609.363 1404.43c-26.439-67.625-100.31-181.71-100.31-181.71l86.25 50.92 14.06 130.79" fill="#233862"/>
  <path d="M3695.626 1481.896c-14.84 2.893-30.913 1.721-30.913 1.721s-44.045-136.068-49.722-148.507c-3.67-8.027-59.844-65.197-99.147-104.653-23.14-23.22-30.64-57.758-19.265-88.491l38.346-103.459s29.774 17.43 61.258 71.75c38.893 67.1 81.638 175.166 89.253 192.727 22.706 52.512 30.594 170.246 30.594 170.246s-8.754 6.4-20.404 8.666" fill="#2b478b"/>
  <path d="M3534.927 1038.506l-57.557 109.19-29.515-10.733 9.585 29.134-57.708 173.812s-31.901-220.84 135.195-301.403" fill="#233862"/>
  <path d="M3422.158 973.57s3.343 8.86 11.743 9.098c8.357.24 14.831-7.9 14.831-7.9s-18.196-4.215-26.574-1.198" fill="#fff"/>
  <path d="M3175.602 1167.464s27.787 22.409 57.34 89.495c0 0-6.01 43.157-83.7 54.887-77.71 11.73 26.36-144.382 26.36-144.382M2987.486 1159.696s-28.592 4.352-41.257 60.188c-12.683 55.839-10.795 85.87-10.795 85.87s13.141 16.421 30.498 12.199c17.375-4.223 21.554-158.257 21.554-158.257" fill="#f9ddbf"/>
  <path d="M3307.947 1434.784s5.713-11.559-20.167-30.36c-19.556-14.2-65.399-26.773-65.399-26.773l-56.84 4.2s59.3 50.494 88.31 60.827c27.668 9.854 52.653 3.653 54.096-7.894M1213.74 1294.507s13.599-16.494 20.91-18.814c7.311-2.32 21.465-13.28 23.311-8.76s-9.51 11.48-8.912 16.64c.598 5.16 36.107 13.44 35.888 18.894-.218 5.466-8.354 18.653-21.897 17.146-13.543-1.52-47.892-9.666-54.945-6.146-7.055 3.52 5.645-18.96 5.645-18.96" fill="#ffb27d"/>
  <path d="M847.533 1214.24c20.048 26.933 43.524 48.2 67.643 64.973 76.659 53.334 159.819 61.28 159.819 61.28 19.928-6.386 81.145-13.04 117.322-18.88h.015c15.77-2.533 26.77-4.906 27.516-7.026l-.91-31.507s-132.78-7.027-154.766-17.227c-34.67-29.866-65.301-68.653-85.26-98.96-16.859-25.586-35.728-44.493-66.837-55.573-44.986-16.04-126.788 19.293-64.542 102.92" fill="#f9ddbf"/>
  <path d="M908.408 1259.387l6.768 19.826c76.659 53.334 159.819 61.28 159.819 61.28 16.008 0 81.145-13.04 117.322-18.88-1.43.12-98.497 7.707-119.946 5.494-21.614-2.24-122.227-89.44-122.227-89.44l-41.736 21.72" fill="#eac3a2"/>
  <path d="M995.09 2257.96H848.356c-10.514-7.133 2.837-76.84 2.837-76.84s40.048-15.187 46.964 15.707c6.937 30.88 51.01 40.693 74.335 44.466 15.96 2.6 21.004 11.36 22.6 16.667M777.468 2257.96H630.732c-10.513-7.133 2.836-76.84 2.836-76.84s40.048-15.187 46.964 15.707c6.939 30.88 51.01 40.693 74.335 44.466 15.961 2.6 21.005 11.36 22.601 16.667" fill="#233862"/>
  <path d="M955.61 1546.853s-6.594 82.28-14.346 181.2c-10.536 134.36-38.953 467.507-38.953 467.507s-18.631 15.893-59.896 7.2c0 0-35.126-114.933-45.63-246.107l-.488-6.48c-9.77-133.533-24.964-414.72-24.964-414.72l184.278 11.4" fill="#2b478b"/>
  <path d="M957.863 1518.413s-8.847 110.72-16.599 209.64l-144.479 228.6-.488-6.48c-9.77-133.533-24.964-414.72-24.964-414.72l186.53-17.04" fill="#233862"/>
  <path d="M915.752 1518.413s-104.785 260.84-138.284 359.707c-23.861 70.427-91.155 317.493-91.155 317.493s-29.262 8.907-53.856-8.306c0 0-25.036-252.427 25.535-323.6 26.83-37.76 6.668-392.534 115.452-395.56 108.787-3.04 142.308 50.266 142.308 50.266" fill="#2b478b"/>
  <path d="M868.947 1133.907c-15.996 8.426-31.61 8.946-45.143 6.066-12.383-2.6-23.013-8.066-30.584-12.906-7.77-4.96-12.339-9.294-12.339-9.294s.54-.773 1.452-2.32c4.724-8.08 19.056-37.146 12.68-83.84-.085-.6 4.54.267 11.527 1.907 20.793 4.933 62.592 16.787 64.441 17.307h.072s.512 9.826 2.234 27.426c.142 1.56.298 3.174.47 4.854.214 2.066.427 4.253.683 6.506 1.936 18.307-5.493 44.294-5.493 44.294" fill="#ffb27d"/>
  <path d="M873.287 1078.253c-31.039 7.12-77.363-38.706-77.363-38.706a49.335 49.335 0 0110.616-6.027c20.793 4.933 62.592 16.787 64.441 17.307h.072s.512 9.826 2.234 27.426" fill="#ed975d"/>
  <path d="M883.833 1048.347s-12.764 4.586-29.036 6.773c-23.796 3.213-55.085 1.32-64.916-27.48-16.557-48.453-37.706-77.507 11.016-97.293 26.083-10.6 42.77-11.16 54.103-7.12 9.845 3.493 15.65 10.466 20.047 17.36 9.461 14.826 28.494 99.28 8.786 107.76" fill="#ffb27d"/>
  <path d="M913.397 944.413c-28.212 20.28-67.238.334-79.369 5.734-12.116 5.386-14.293 25.706-14.512 32.16-.217 6.466-1.068 11.92-17.524 8.053-2.696-.64-4.639-.453-5.975.347-6.826 4.053 1.896 23.68 4.527 27.933 0 0 3.787 14.067-4.616 20.907-1.016.813-17.523 8.04-57.301-52.84-6.252-9.56-12.222-31.08-2.566-51.814 9.644-20.72 49.96-40.746 84.144-51.373 12.812-3.973 22.311-3.827 29.742-1.107 12.393 4.534 19.004 16.24 25.56 28.014 10.997 19.76 37.89 33.986 37.89 33.986" fill="#a9453d"/>
  <path d="M972 1474.493c-2.265 29.894-8.587 51.307-22.427 51.307 0 0-61.565 21.667-135.142 22.24-14.382.107-34.748-2.693-51.64-5.52-17.252-2.92-30.911-5.867-30.911-5.867-14.793-3.413-31.117-12.56-28.93-29.426 1.237-9.547 2.1-21.987 2.691-36.44 1.623-39.08 1.352-92.92 1.558-144.454.142-31.653.45-62.426 1.506-88.386 0 0-14.521-101.96 1.61-118.694 18.886-19.56 74.362-25.573 77.838-24.826 1.043-.214 2.087-.48 3.155-.654 0 0 47.248 26.614 82.344 6.907 0 0 .335.067.992.16 8.55 1.347 51.215 11.213 65.943 26.787 5.085 5.36 25.376 38.28 25.929 74.426.772 50.387-1.197 107.64-1.197 107.654.528 8.186 1.402 18.733 2.369 30.786 1.03 12.84 2.163 27.334 3.128 42.454.476 7.613.927 15.386 1.287 23.173 1.094 23.987 1.429 48.133-.103 68.373" fill="#f9ddbf"/>
  <path d="M788.388 1094.48s52.281 53.92 89.661 42.88c0 0 4.98-7.28-11.854-9.613-16.835-2.334-35.006-1.387-77.807-33.267" fill="#eac3a2"/>
  <path d="M884.201 1017.067s1.022 6.266-13.564 11.28c0 0-12.246 4.2-14.482-2.227 0 0 9.728-9.267 28.046-9.053" fill="#fff"/>
  <path d="M755.247 1284s.102 145.84-49.606 186.787c1.623-39.08 1.352-92.92 1.558-144.454L755.247 1284" fill="#eac3a2"/>
  <path d="M602.43 1557.013s-25.31 39.734-26.73 54.947c-.964 10.333 1.359 51.107 6.519 51.24 7.285.2 14.572-25.16 17.392-31.733 2.82-6.587 6.11-11.76 8.93-11.76 2.822 0-6.11 25.386 0 22.573 6.112-2.827 16.454-26.32 17.394-31.96.94-5.653-5.516-23.72-2.366-30.84 3.151-7.107-21.138-22.467-21.138-22.467" fill="#ffb27d"/>
  <path d="M715.135 1113.733s-34.202 16.16-62.876 135.76c-21.619 90.16-62.99 320.387-62.99 320.387l34.998 14.4s128.166-294.253 146.5-335.627c18.332-41.386-55.632-134.92-55.632-134.92" fill="#f9ddbf"/>
  <path d="M1344.747 1284s33.84 165.413 46.72 192.453c12.866 27.04 64.373 124.32 64.373 124.32l-15.027 10.427s-92.826-96.093-96.066-106.427c-3.227-10.32-64.003-139.133-64.003-139.133l64.003-81.64" fill="#ffb27d"/>
  <path d="M1279.515 1031.547s-65.604-78.84-100.336-28.4c0 0-25.911 10.76-35.283 54.853-9.563 45 20.361 79.213 35.835 70.747 9.922-5.414 17.434 11.946 17.434 11.946l82.35-109.146" fill="#233862"/>
  <path d="M1186.345 995.16s-8.82-35.28-60.642-24.267c0 0 24.809-3.12 31.608 6.44 0 0-19.663-9-31.975-1.466-12.312 7.533-14.335 32.893-12.496 40.613 1.837 7.707 15.436 30.68 24.44 30.68 9.005 0 19.664-7.907 19.664-7.907l29.401-44.093" fill="#233862"/>
  <path d="M1108.801 1547.373c25.767-57.786 38.094-74.133 38.524-92.32.342-14.373-6.748-29.88-20.52-67.92-3.241-8.973-5.478-18.186-6.857-27.506-10.892-73.334 31.516-152.614 57.872-158.014 7.333-1.933 19.765-28.426 19.612-71.106l3.301.653 55.499 10.987s-1.261 17.466-1.3 33.92c-.037 13.72.79 26.72 3.896 28.346 3.996.36 6.353.6 6.353.6s46.275 64.267 50.168 124.04c3.892 59.774-37.058 85.734.308 205.187 38.156 121.987-221.09 45.053-206.856 13.133" fill="#ffb27d"/>
  <path d="M1256.232 1142.147s-1.261 17.466-1.3 33.92c-31.056-.867-47.472-29.2-54.199-44.907l55.499 10.987" fill="#e8945b"/>
  <path d="M1195.001 1125.12s-16.276-25.72-20.181-47.707c-2.79-15.693 5.207-73.893 63.683-65.506 0 0 16.984 1.68 32.948 12.453 12.696 8.573 31.018 27.093 10.532 77.867l-5.322 17.16-81.66 5.733" fill="#233862"/>
  <path d="M1266.604 1157.733s-73.479 1.214-73.53-44.56c-.05-45.773-9.569-76.44 37.345-79.146 46.912-2.707 56.046 14.746 59.778 30.013 3.734 15.28-4.48 92.2-23.593 93.693" fill="#ffb27d"/>
  <path d="M1263.885 1032.907s-20.12 53.693-50.994 61.64c-30.876 7.933-44.268-.334-44.268-.334s23.682-18.813 28.597-51.666c0 0 51.488-35.2 66.665-9.64" fill="#233862"/>
  <path d="M1258.899 1037.267s15.024 11.986 18.686 23.64c3.664 11.653 5.312 35.653 12.304 34.84 0 0 15.159-36.507-1.876-57.147-18.062-21.893-29.114-1.333-29.114-1.333" fill="#233862"/>
  <path d="M1173.863 2101.88c18.485 73.533 46.316 129.907 46.316 129.907l24.23-1.68s-11.881-56.52-11.2-132.907c.48-53.4 7.083-116.507 28.183-176.76 72.501-207.067 60.785-357.773 60.785-357.773l-136.344 15.946-6.352.747c-.566 62.613-2.184 147.64-3.598 214.12-1.25 59.787-2.348 104.573-2.348 104.573-26.214 56.454-16.694 136.147.328 203.827" fill="#163560"/>
  <path d="M1013.237 1608.747l22.059 6.613s72.768-120.733 79.385-152.147c2.159-10.226 7.45-30.706 13.624-53.626 12.779-47.494 29.27-105.6 29.27-105.6l5.429-23.52 18.524-80.227s-35.47 3.627-56.215 12.307c-6.869 2.866-12.109 6.28-13.94 10.293-15.241 33.52-30.456 118.093-41.15 178.427-5.962 33.626-10.507 59.72-12.88 65.253-6.618 15.427-26.832 100.333-44.106 142.227" fill="#ffb27d"/>
  <path d="M1066.385 2024.253c-6.657 44.774-23.261 168.507-16.801 189.2l26.456-4.453s48.61-111.8 59.652-142.467c22.715-63.106 49.005-101.493 57.955-131.106 27.986-92.6 62.757-394.614 62.757-394.614l-138.237-6.853c-13.903 23.373-19.964 61.707-21.403 105.293-3.637 110 11.032 237.227 14.896 257.974-11.281 18.56-32.767 42.92-45.275 127.026" fill="#1c468a"/>
  <path d="M1261.69 1039.08s-14.334 56.227-53.293 74.24c0 0 38.959-34.547 42.267-71.667 3.308-37.12 11.025-2.573 11.025-2.573" fill="#233862"/>
  <path d="M1091.472 1589.08c-.239 4.667.013 8.387.86 11.053 2.941 9.254 13.043 13.48 37.463 10.947 14.925-1.547 21.58-26.56 24.546-47.907 8.966 30.534 21.518 47.667 37.743 51.267 23.675 5.267 143.103 19.787 150.916-36.987 8.6-62.44-17.148-173-18.561-232.613 3.509-21.133 4.709-39.48 4.33-55.24-.997-42.467-13.461-66.267-23.044-75.853-2.714-2.08-5.429-3.374-16.326-5.254-5.568-.946-13.283-2.04-24.218-3.48 0 0-4.461-.506-4.361-.333 2.02 3.613 29.07 44.573 26.963 55.093-2.211 11.027-98.136 1.107-104.754-4.96-6.616-6.053-17.084-52.506-17.084-52.506s-33.965 3.72-50.582 15.8c0 0 .062.08.177.213-2.008 1.44-3.51 2.973-4.37 4.6-17.727 33.747-35.43 118.933-47.88 179.693 30.178 16.627 56.543 11.68 64.725 9.48-10.695 69.974-34.951 145.107-36.543 176.987" fill="#f99746"/>
  <path d="M1206.224 2252.107h15.47c5.182-.814 9.007-2.307 14.322-3 8.07-1.067 11.787 2.24 12.525 3l.144.16h65.714c1.654-2.36.066-7.827-1.488-11.854a9.352 9.352 0 00-6.152-5.626c-6.97-2.014-20.707-3.814-33.287-15.2-7.08-6.4-34.181-23.52-34.181-23.52l-.144-.04c-.595.013-3.428.893-15.755 11.293-6.373 5.373-17.233-7.587-17.233-7.587s-2.04 1.694-3.563 4.827c-1.223 2.493-2.116 5.893-1.41 10.093.98 5.92-2.183 16.934-4.709 24.374a165.34 165.34 0 01-2.822 7.706s-.739 3.707 12.569 5.374" fill="#233862"/>
  <path d="M1202.596 2204.56c3.695 2.613 11.49 7.733 16.66 8.413 6.98.907 20.035-16.906 20.035-16.906l-.144-.04c-.595.013-3.428.893-15.755 11.293-6.373 5.373-17.233-7.587-17.233-7.587s-2.04 1.694-3.563 4.827M1206.224 2252.107h15.47c5.182-.814 9.007-2.307 14.322-3 8.07-1.067 11.787 2.24 12.525 3l.144.16h65.714c1.654-2.36.066-7.827-1.488-11.854-1.995-1.773-2.558 7.707-3.66 9.214-1.103 1.52-53.61.56-56.64-1.654-3.032-2.2-12.13-6.066-24.808-3.026-11.038 2.626-27.302-4.12-31.326-5.92a165.34 165.34 0 01-2.822 7.706s-.739 3.707 12.569 5.374" fill="#466aa5"/>
  <path d="M1047.49 2252.107h15.469c5.182-.814 9.009-2.307 14.322-3 8.072-1.067 11.787 2.24 12.526 3l.144.16h65.714c1.654-2.36.066-7.827-1.489-11.854a9.349 9.349 0 00-6.152-5.626c-6.968-2.014-20.707-3.814-33.287-15.2-7.078-6.4-34.181-23.52-34.181-23.52l-.143-.04c-.596.013-3.429.893-15.756 11.293-6.373 5.373-17.233-7.587-17.233-7.587s-2.04 1.694-3.561 4.827c-1.224 2.493-2.118 5.893-1.412 10.093.981 5.92-2.183 16.934-4.708 24.374-1.532 4.506-2.823 7.706-2.823 7.706s-.739 3.707 12.57 5.374" fill="#233862"/>
  <path d="M1043.863 2204.56c3.693 2.613 11.489 7.733 16.66 8.413 6.978.907 20.033-16.906 20.033-16.906l-.143-.04c-.596.013-3.429.893-15.756 11.293-6.373 5.373-17.233-7.587-17.233-7.587s-2.04 1.694-3.561 4.827M1047.49 2252.107h15.469c5.182-.814 9.009-2.307 14.322-3 8.072-1.067 11.787 2.24 12.526 3l.144.16h65.714c1.654-2.36.066-7.827-1.489-11.854-1.995-1.773-2.557 7.707-3.66 9.214-1.103 1.52-53.608.56-56.64-1.654-3.032-2.2-12.128-6.066-24.808-3.026-11.037 2.626-27.3-4.12-31.325-5.92-1.532 4.506-2.823 7.706-2.823 7.706s-.739 3.707 12.57 5.374" fill="#466aa5"/>
  <path d="M1091.472 1589.08c16.403-5.48 37.452-20.04 62.73-52.707 66.923-86.493 5.683-188.146-2.525-190.04-8.206-1.893-23.662 65.76-23.662 65.76-10.695 69.974-34.951 145.107-36.543 176.987" fill="#ef7e29"/>
  <path d="M1301.62 1211.813s45.82 23.054 61.087 116.12c0 0-15 20.574-36.147 26.64-3.02.867-6.167 1.44-9.41 1.614-25.958 1.386-15.53-144.374-15.53-144.374" fill="#f99746"/>
  <path d="M1455.84 1600.773s25.747 21.16 25.107 30.814c-.654 9.653-15.454 26.4-25.107 25.746-9.667-.64-15.027-46.133-15.027-46.133l15.027-10.427" fill="#ffb27d"/>
  <path d="M1581.973 2249.28l7.574-1.547-128.64-633.133-7.574 1.533 128.64 633.147" fill="#163560"/>
  <path d="M1478.093 1677.92l-15.973 3.28-14.44-70.2 15.973-3.28 14.44 70.2" fill="#163560"/>
  <path d="M1252.25 1130.56s1.27 5.4 14.687 4.56c0 0 11.267-.693 10.923-6.627 0 0-10.924-4.213-25.61 2.067" fill="#fff"/>
  <path d="M1017.17 1598.627s-31.949 19.653-36.58 28.133c-4.63 8.493-15.435 39.747-15.435 39.747s7.717 1.16 15.434-12.347c7.719-13.507 33.187-12.347 41.676-19.68 8.49-7.333 18.366-28.813 18.366-28.813l-23.462-7.04" fill="#ffb27d"/>
  <path d="M1037.336 1612.307s-5.037 23.72-11.21 30.666c-6.175 6.947-14.665 18.52-18.138 15.44-3.473-3.093 3.859-28.946 3.859-28.946l25.489-17.16M984.835 1629.467c-.772 1.16-27.398 29.453-27.398 29.453s9.647 4.373 12.348 0c2.702-4.373 15.05-29.453 15.05-29.453" fill="#ffb27d"/>
  <path d="M1248.17 1101.773h-10.543a8.706 8.706 0 01-8.711-8.706v-3.254a4.375 4.375 0 014.373-4.373h20.62a2.864 2.864 0 012.866 2.867v4.866c0 4.747-3.854 8.6-8.606 8.6M1279.6 1101.773h10.543c4.81 0 8.71-3.893 8.71-8.706v-3.254a4.375 4.375 0 00-4.373-4.373h-20.619a2.864 2.864 0 00-2.866 2.867v4.866c0 4.747 3.852 8.6 8.605 8.6" fill="#163560"/>
  <path d="M1273.92 1092.493c-.09-.04-9.072-3.906-17.66 0l-.645-1.413c9.241-4.213 18.545-.187 18.936 0l-.631 1.413" fill="#163560"/>
</svg>
