<?xml version="1.0" encoding="UTF-8" standalone="no"?>
<svg
   width="323.89963"
   height="118.6"
   version="1.1"
   xml:space="preserve"
   id="svg28"
   sodipodi:docname="logo-acceslibre-solo.svg"
   inkscape:version="1.1.2 (0a00cf5339, 2022-02-04)"
   xmlns:inkscape="http://www.inkscape.org/namespaces/inkscape"
   xmlns:sodipodi="http://sodipodi.sourceforge.net/DTD/sodipodi-0.dtd"
   xmlns="http://www.w3.org/2000/svg"
   xmlns:svg="http://www.w3.org/2000/svg"><defs
   id="defs32">
  
  
  
  
  
  
  
  
  
 </defs><sodipodi:namedview
   id="namedview30"
   pagecolor="#ffffff"
   bordercolor="#666666"
   borderopacity="1.0"
   inkscape:pageshadow="2"
   inkscape:pageopacity="0.0"
   inkscape:pagecheckerboard="0"
   showgrid="false"
   inkscape:zoom="1.9228571"
   inkscape:cx="157.83804"
   inkscape:cy="144.83655"
   inkscape:window-width="1850"
   inkscape:window-height="1016"
   inkscape:window-x="70"
   inkscape:window-y="27"
   inkscape:window-maximized="1"
   inkscape:current-layer="svg28" />
 <metadata
   id="metadata109">image/svg+xml</metadata>

 <style
   id="style10"
   type="text/css">.st0{fill:#FFFFFF;stroke:#1A578B;stroke-width:4;stroke-miterlimit:10;}
	.st1{fill:#FFFFFF;stroke:#1A578B;stroke-width:6;stroke-miterlimit:10;}
	.st2{fill:#1A578B;}
	.st3{fill:#FFFFFF;}
	.st4{fill:#010202;}
	.st5{fill:#293173;}
	.st6{fill:#E10814;}
	.st7{fill:#9D9D9C;}</style>
 <path
   class="st0"
   d="M 458.53,229.10094"
   id="path12" /><path
   class="st0"
   d="M 523.53,229.10094"
   id="path14" /><polyline
   class="st1"
   id="polyline16"
   points="270.86962890625,118.99906158447266 270.86962890625,19.19906234741211 323.86962890625,19.19906234741211 "
   transform="translate(-17.27,-9.7990608)" /><polygon
   class="st2"
   id="polygon18"
   points="341.16962,116.89906 299.06964,128.39906 299.06964,9.7990608 341.16962,19.899063 "
   transform="translate(-17.27,-9.7990608)" /><circle
   class="st3"
   cx="288.90002"
   cy="63.800938"
   id="circle20"
   r="3.3" /><rect
   class="st3"
   height="43.200001"
   id="rect22"
   width="14.1"
   x="244.59999"
   y="37.700939" /><g
   id="g36"
   transform="translate(-17.27,-9.7990608)">
   <g
   id="g34">
    <path
   class="st2"
   d="m 173.77,75.5 c 0,0.8 0.2,1.4 0.7,1.8 0.4,0.4 1.1,0.6 1.9,0.6 h 1.4 v 8 h -4.4 c -2.5,0 -4.5,-0.7 -5.9,-2.2 -1.4,-1.5 -2.1,-3.5 -2.1,-6.1 V 41.9 h 8.3 v 33.6 z"
   id="path24" />
    <path
   class="st2"
   d="m 182.97,41.9 h 8.3 v 8.3 h -8.3 z m 0,12.6 h 8.3 v 31.4 h -8.3 z"
   id="path26" />
    <path
   class="st2"
   d="m 198.97,41.9 h 8.3 v 44 h -8.3 z m 10.8,43 c -1.3,-0.9 -2.3,-2.3 -3,-4 l 0.4,-7.2 c 0,1 0.2,1.9 0.5,2.6 0.4,0.7 0.9,1.3 1.6,1.7 0.7,0.4 1.5,0.6 2.5,0.6 1.6,0 2.8,-0.5 3.6,-1.5 0.9,-1 1.3,-2.5 1.3,-4.4 v -5 c 0,-1.9 -0.4,-3.4 -1.3,-4.5 -0.9,-1.1 -2.1,-1.6 -3.6,-1.6 -1,0 -1.8,0.2 -2.5,0.6 -0.7,0.4 -1.2,1 -1.6,1.7 -0.4,0.7 -0.5,1.7 -0.5,2.7 l -0.6,-7 c 0.8,-1.8 2,-3.3 3.3,-4.2 1.4,-1 2.9,-1.5 4.6,-1.5 2.2,0 4.1,0.5 5.7,1.6 1.6,1.1 2.8,2.6 3.6,4.7 0.8,2.1 1.2,4.5 1.2,7.4 v 5 c 0,2.9 -0.4,5.3 -1.2,7.3 -0.8,2 -2,3.6 -3.6,4.6 -1.6,1.1 -3.5,1.6 -5.7,1.6 -1.8,0.2 -3.4,-0.3 -4.7,-1.2 z"
   id="path28" />
    <path
   class="st2"
   d="m 232.67,54.5 h 8.9 v 31.4 h -8.9 z m 16.1,7.8 c -0.6,-0.2 -1.3,-0.3 -2,-0.3 -1.7,0 -3,0.5 -3.9,1.6 -0.9,1.1 -1.4,2.6 -1.4,4.5 l -0.6,-8.2 c 0.9,-1.9 2,-3.3 3.4,-4.4 1.4,-1 2.9,-1.6 4.6,-1.6 1.3,0 2.5,0.2 3.6,0.6 1.1,0.4 2,1 2.8,1.8 l -4.8,6.7 c -0.6,-0.2 -1.1,-0.5 -1.7,-0.7 z"
   id="path30" />
    <path
   class="st2"
   d="m 264.77,84.7 c -2.1,-1.1 -3.8,-2.7 -4.9,-4.8 -1.1,-2.1 -1.7,-4.6 -1.7,-7.6 v -3.5 c 0,-3.1 0.5,-5.8 1.6,-8 1.1,-2.2 2.7,-3.9 4.7,-5 2.1,-1.1 4.6,-1.7 7.5,-1.7 2.7,0 5.1,0.7 7,2.1 2,1.4 3.4,3.4 4.5,6 1,2.6 1.5,5.8 1.5,9.4 v 2.1 h -21.5 V 68 h 13.9 l -0.1,-0.7 c -0.2,-1.8 -0.8,-3.2 -1.7,-4.2 -0.9,-1 -2.1,-1.5 -3.7,-1.5 -2,0 -3.5,0.6 -4.6,1.8 -1.1,1.2 -1.6,2.9 -1.6,5 v 4 c 0,2.1 0.6,3.8 1.8,5 1.2,1.2 2.9,1.8 5,1.8 1.1,0 2.2,-0.2 3.3,-0.6 1.1,-0.4 2.1,-1 3,-1.7 l 5.4,4.8 c -1.6,1.5 -3.5,2.6 -5.5,3.5 -2,0.9 -4.1,1.2 -6.2,1.2 -3,-0.1 -5.6,-0.6 -7.7,-1.7 z"
   id="path32" />
   </g>
  </g><g
   id="g50"
   transform="translate(-17.27,-9.7990608)">
   <g
   id="g48">
    <path
   class="st2"
   d="m 19.97,84 c -1.8,-1.5 -2.7,-3.7 -2.7,-6.5 0,-2.7 0.8,-4.7 2.5,-6.2 1.7,-1.5 4,-2.2 7.1,-2.2 h 9.4 l 0.4,3.7 h -9.8 c -1.8,0 -3.2,0.4 -4.2,1.2 -1,0.8 -1.5,2 -1.5,3.5 0,1.6 0.6,2.8 1.9,3.7 1.2,0.9 3,1.3 5.3,1.3 2.4,0 4.3,-0.2 5.7,-0.7 1.3,-0.5 2,-1.2 2,-2.1 l 0.6,3.7 c -0.6,0.6 -1.3,1.1 -2.2,1.5 -0.9,0.4 -1.9,0.8 -3,1 -1.1,0.2 -2.4,0.3 -3.7,0.3 -3.4,0.1 -6,-0.7 -7.8,-2.2 z m 16,-16.1 c 0,-2.3 -0.6,-4.1 -1.8,-5.3 -1.2,-1.3 -3,-1.9 -5.2,-1.9 -1.3,0 -2.7,0.2 -4,0.7 -1.3,0.4 -2.4,1.1 -3.4,1.9 l -2.9,-2 c 1.1,-1.3 2.5,-2.3 4.2,-3 1.8,-0.7 3.7,-1.1 5.9,-1.1 2.3,0 4.4,0.4 6,1.2 1.7,0.8 2.9,2 3.8,3.6 0.9,1.6 1.3,3.5 1.3,5.7 v 18.2 h -3.9 z"
   id="path38" />
    <path
   class="st2"
   d="m 52.97,84.9 c -1.8,-0.9 -3.2,-2.3 -4.1,-4.1 -0.9,-1.8 -1.3,-4.1 -1.3,-6.8 v -4.7 c 0,-2.7 0.5,-5 1.4,-6.8 0.9,-1.8 2.3,-3.2 4.1,-4.1 1.8,-0.9 4.1,-1.4 6.8,-1.4 1.5,0 3,0.2 4.2,0.5 1.3,0.3 2.4,0.8 3.4,1.5 1,0.7 1.9,1.5 2.6,2.5 l -2.9,2.6 c -1,-1.2 -2,-2 -3.3,-2.6 -1.2,-0.6 -2.5,-0.9 -4,-0.9 -2.8,0 -4.9,0.7 -6.3,2.1 -1.4,1.4 -2.1,3.5 -2.1,6.4 v 4.7 c 0,2.9 0.7,5.1 2.1,6.5 1.4,1.4 3.5,2.2 6.3,2.2 1.5,0 3,-0.3 4.2,-0.8 1.2,-0.5 2.4,-1.4 3.4,-2.5 l 2.5,2.5 c -0.7,1 -1.6,1.8 -2.6,2.5 -1,0.7 -2.1,1.1 -3.4,1.5 -1.3,0.3 -2.7,0.5 -4.2,0.5 -2.8,0.1 -5,-0.4 -6.8,-1.3 z"
   id="path40" />
    <path
   class="st2"
   d="m 80.77,84.9 c -1.8,-0.9 -3.2,-2.3 -4.1,-4.1 -0.9,-1.8 -1.3,-4.1 -1.3,-6.8 v -4.7 c 0,-2.7 0.5,-5 1.4,-6.8 0.9,-1.8 2.3,-3.2 4.1,-4.1 1.8,-0.9 4.1,-1.4 6.8,-1.4 1.5,0 3,0.2 4.2,0.5 1.3,0.3 2.4,0.8 3.4,1.5 1,0.7 1.9,1.5 2.6,2.5 l -2.9,2.6 c -1,-1.2 -2,-2 -3.3,-2.6 -1.2,-0.6 -2.5,-0.9 -4,-0.9 -2.8,0 -4.9,0.7 -6.3,2.1 -1.4,1.4 -2.1,3.5 -2.1,6.4 v 4.7 c 0,2.9 0.7,5.1 2.1,6.5 1.4,1.4 3.5,2.2 6.3,2.2 1.5,0 3,-0.3 4.2,-0.8 1.2,-0.5 2.4,-1.4 3.4,-2.5 l 2.5,2.5 c -0.7,1 -1.6,1.8 -2.6,2.5 -1,0.7 -2.1,1.1 -3.4,1.5 -1.3,0.3 -2.7,0.5 -4.2,0.5 -2.7,0.1 -5,-0.4 -6.8,-1.3 z"
   id="path42" />
    <path
   class="st2"
   d="m 108.87,84.8 c -1.9,-1 -3.3,-2.4 -4.2,-4.3 -1,-1.9 -1.5,-4.2 -1.5,-6.9 v -3.2 c 0,-2.8 0.5,-5.2 1.4,-7.2 0.9,-2 2.3,-3.5 4.1,-4.5 1.8,-1 3.9,-1.6 6.4,-1.6 2.4,0 4.4,0.5 6.1,1.5 1.7,1 3,2.5 3.8,4.5 0.8,2 1.3,4.3 1.3,7.1 v 3.2 h -20.5 v -3.5 h 16.8 v -0.3 c 0,-2.8 -0.7,-5 -2,-6.5 -1.3,-1.5 -3.2,-2.3 -5.6,-2.3 -2.6,0 -4.7,0.8 -6.1,2.4 -1.4,1.6 -2.2,3.9 -2.2,6.9 v 3.6 c 0,2.8 0.8,5 2.3,6.6 1.5,1.6 3.7,2.3 6.5,2.3 1.3,0 2.6,-0.3 3.9,-0.8 1.3,-0.5 2.4,-1.3 3.4,-2.3 l 2.7,2.6 c -1.4,1.3 -2.9,2.4 -4.7,3.1 -1.7,0.7 -3.5,1.1 -5.3,1.1 -2.5,0 -4.8,-0.5 -6.6,-1.5 z"
   id="path44" />
    <path
   class="st2"
   d="m 139.17,85.8 c -1.4,-0.3 -2.8,-0.7 -4,-1.3 -1.2,-0.6 -2.3,-1.3 -3.3,-2.1 l 2.3,-2.8 c 1.5,1 3.1,1.8 4.8,2.4 1.7,0.6 3.2,0.9 4.7,0.9 2.7,0 4.8,-0.5 6.3,-1.4 1.5,-0.9 2.2,-2.2 2.2,-3.9 0,-1.2 -0.4,-2.2 -1.1,-2.8 -0.7,-0.6 -1.6,-1 -2.7,-1.3 -1.1,-0.3 -2.6,-0.4 -4.6,-0.5 -0.2,0 -0.4,0 -0.6,0 -0.2,0 -0.4,0 -0.6,0 -0.1,0 -0.1,0 -0.2,0 -0.1,0 -0.1,0 -0.2,0 -1.9,-0.2 -3.4,-0.5 -4.7,-0.8 -1.3,-0.4 -2.3,-1 -3.2,-2 -0.8,-1 -1.3,-2.4 -1.3,-4.3 0,-1.8 0.4,-3.4 1.3,-4.6 0.9,-1.3 2.2,-2.2 3.9,-2.9 1.7,-0.7 3.7,-1 6.1,-1 1.2,0 2.5,0.1 3.7,0.4 1.2,0.2 2.4,0.6 3.6,1.1 1.1,0.5 2.2,1 3.1,1.7 l -2.3,2.7 c -1.3,-0.8 -2.7,-1.4 -4.2,-1.8 -1.5,-0.4 -2.8,-0.6 -4.1,-0.6 -2.4,0 -4.2,0.4 -5.5,1.3 -1.3,0.9 -2,2.1 -2,3.8 0,1.1 0.4,2 1.1,2.5 0.7,0.6 1.6,0.9 2.7,1.1 1.1,0.2 2.6,0.3 4.5,0.4 0.1,0 0.2,0 0.2,0 0.1,0 0.2,0 0.2,0 0.1,0 0.1,0 0.2,0 0.1,0 0.1,0 0.2,0 2,0.1 3.7,0.4 5.1,0.7 1.4,0.4 2.6,1.1 3.5,2.3 0.9,1.1 1.4,2.8 1.4,4.9 0,1.8 -0.5,3.4 -1.4,4.7 -0.9,1.3 -2.3,2.3 -4.1,3 -1.8,0.7 -4,1 -6.6,1 -1.5,-0.3 -2.9,-0.5 -4.4,-0.8 z"
   id="path46" />
   </g>
  </g>
</svg>
