<?xml version="1.0" encoding="UTF-8" standalone="no"?>
<svg
   xmlns:dc="http://purl.org/dc/elements/1.1/"
   xmlns:cc="http://creativecommons.org/ns#"
   xmlns:rdf="http://www.w3.org/1999/02/22-rdf-syntax-ns#"
   xmlns:svg="http://www.w3.org/2000/svg"
   xmlns="http://www.w3.org/2000/svg"
   xmlns:sodipodi="http://sodipodi.sourceforge.net/DTD/sodipodi-0.dtd"
   xmlns:inkscape="http://www.inkscape.org/namespaces/inkscape"
   version="1.1"
   id="Calque_1"
   x="0px"
   y="0px"
   viewBox="0 0 328.00001 121.99999"
   xml:space="preserve"
   sodipodi:docname="logo-acceslibre-light.svg"
   inkscape:version="1.0.1 (c497b03c, 2020-09-10)"
   width="328"
   height="122"><metadata
   id="metadata109"><rdf:RDF><cc:Work
       rdf:about=""><dc:format>image/svg+xml</dc:format><dc:type
         rdf:resource="http://purl.org/dc/dcmitype/StillImage" /><dc:title></dc:title></cc:Work></rdf:RDF></metadata><defs
   id="defs107" /><sodipodi:namedview
   pagecolor="#ffffff"
   bordercolor="#666666"
   borderopacity="1"
   objecttolerance="10"
   gridtolerance="10"
   guidetolerance="10"
   inkscape:pageopacity="0"
   inkscape:pageshadow="2"
   inkscape:window-width="1920"
   inkscape:window-height="1035"
   id="namedview105"
   showgrid="false"
   inkscape:zoom="4.1820584"
   inkscape:cx="187.3616"
   inkscape:cy="48.519835"
   inkscape:window-x="0"
   inkscape:window-y="23"
   inkscape:window-maximized="1"
   inkscape:current-layer="Calque_1"
   inkscape:document-rotation="0"
   showguides="true"
   inkscape:guide-bbox="true"
   inkscape:pagecheckerboard="true" />
<style
   type="text/css"
   id="style10">
	.st0{fill:#FFFFFF;stroke:#1A578B;stroke-width:4;stroke-miterlimit:10;}
	.st1{fill:#FFFFFF;stroke:#1A578B;stroke-width:6;stroke-miterlimit:10;}
	.st2{fill:#1A578B;}
	.st3{fill:#FFFFFF;}
	.st4{fill:#010202;}
	.st5{fill:#293173;}
	.st6{fill:#E10814;}
	.st7{fill:#9D9D9C;}
</style>
<path
   class="st0"
   d="M 475.8,238.9"
   id="path12" />
<path
   class="st0"
   d="M 540.8,238.9"
   id="path14" />
<polyline
   class="st1"
   points="470.5,151 470.5,51.2 523.5,51.2 "
   id="polyline16"
   transform="translate(-214.82227,-40.000939)"
   style="fill:#1a578b;fill-opacity:1;stroke:#ffffff;stroke-opacity:1" />
<polygon
   class="st2"
   points="498.7,160.4 498.7,41.8 540.8,51.9 540.8,148.9 "
   id="polygon18"
   transform="translate(-214.82227,-40.000939)"
   style="fill:#ffffff;fill-opacity:1" />
<circle
   class="st3"
   cx="290.97772"
   cy="65.59906"
   r="3.3"
   id="circle20"
   style="fill:#1a578b;fill-opacity:1" />
<rect
   x="246.67773"
   y="39.499062"
   class="st3"
   width="14.1"
   height="43.200001"
   id="rect22"
   style="fill:#1a578b;fill-opacity:1;stroke:none;stroke-opacity:1" />
<g
   id="g36"
   transform="translate(-214.82227,-40.000939)"
   style="fill:#ffffff;fill-opacity:1">
	<g
   id="g34"
   style="fill:#ffffff;fill-opacity:1">
		<path
   class="st2"
   d="m 373.4,107.5 c 0,0.8 0.2,1.4 0.7,1.8 0.4,0.4 1.1,0.6 1.9,0.6 h 1.4 v 8 H 373 c -2.5,0 -4.5,-0.7 -5.9,-2.2 -1.4,-1.5 -2.1,-3.5 -2.1,-6.1 V 73.9 h 8.3 v 33.6 z"
   id="path24"
   style="fill:#ffffff;fill-opacity:1" />
		<path
   class="st2"
   d="m 382.6,73.9 h 8.3 v 8.3 h -8.3 z m 0,12.6 h 8.3 v 31.4 h -8.3 z"
   id="path26"
   style="fill:#ffffff;fill-opacity:1" />
		<path
   class="st2"
   d="m 398.6,73.9 h 8.3 v 44 h -8.3 z m 10.8,43 c -1.3,-0.9 -2.3,-2.3 -3,-4 l 0.4,-7.2 c 0,1 0.2,1.9 0.5,2.6 0.4,0.7 0.9,1.3 1.6,1.7 0.7,0.4 1.5,0.6 2.5,0.6 1.6,0 2.8,-0.5 3.6,-1.5 0.9,-1 1.3,-2.5 1.3,-4.4 v -5 c 0,-1.9 -0.4,-3.4 -1.3,-4.5 -0.9,-1.1 -2.1,-1.6 -3.6,-1.6 -1,0 -1.8,0.2 -2.5,0.6 -0.7,0.4 -1.2,1 -1.6,1.7 -0.4,0.7 -0.5,1.7 -0.5,2.7 l -0.6,-7 c 0.8,-1.8 2,-3.3 3.3,-4.2 1.4,-1 2.9,-1.5 4.6,-1.5 2.2,0 4.1,0.5 5.7,1.6 1.6,1.1 2.8,2.6 3.6,4.7 0.8,2.1 1.2,4.5 1.2,7.4 v 5 c 0,2.9 -0.4,5.3 -1.2,7.3 -0.8,2 -2,3.6 -3.6,4.6 -1.6,1.1 -3.5,1.6 -5.7,1.6 -1.8,0.2 -3.4,-0.3 -4.7,-1.2 z"
   id="path28"
   style="fill:#ffffff;fill-opacity:1" />
		<path
   class="st2"
   d="m 432.3,86.5 h 8.9 v 31.4 h -8.9 z m 16.1,7.8 c -0.6,-0.2 -1.3,-0.3 -2,-0.3 -1.7,0 -3,0.5 -3.9,1.6 -0.9,1.1 -1.4,2.6 -1.4,4.5 l -0.6,-8.2 c 0.9,-1.9 2,-3.3 3.4,-4.4 1.4,-1 2.9,-1.6 4.6,-1.6 1.3,0 2.5,0.2 3.6,0.6 1.1,0.4 2,1 2.8,1.8 l -4.8,6.7 c -0.6,-0.2 -1.1,-0.5 -1.7,-0.7 z"
   id="path30"
   style="fill:#ffffff;fill-opacity:1" />
		<path
   class="st2"
   d="m 464.4,116.7 c -2.1,-1.1 -3.8,-2.7 -4.9,-4.8 -1.1,-2.1 -1.7,-4.6 -1.7,-7.6 v -3.5 c 0,-3.1 0.5,-5.8 1.6,-8 1.1,-2.2 2.7,-3.9 4.7,-5 2.1,-1.1 4.6,-1.7 7.5,-1.7 2.7,0 5.1,0.7 7,2.1 2,1.4 3.4,3.4 4.5,6 1,2.6 1.5,5.8 1.5,9.4 v 2.1 H 463.1 V 100 H 477 l -0.1,-0.7 c -0.2,-1.8 -0.8,-3.2 -1.7,-4.2 -0.9,-1 -2.1,-1.5 -3.7,-1.5 -2,0 -3.5,0.6 -4.6,1.8 -1.1,1.2 -1.6,2.9 -1.6,5 v 4 c 0,2.1 0.6,3.8 1.8,5 1.2,1.2 2.9,1.8 5,1.8 1.1,0 2.2,-0.2 3.3,-0.6 1.1,-0.4 2.1,-1 3,-1.7 l 5.4,4.8 c -1.6,1.5 -3.5,2.6 -5.5,3.5 -2,0.9 -4.1,1.2 -6.2,1.2 -3,-0.1 -5.6,-0.6 -7.7,-1.7 z"
   id="path32"
   style="fill:#ffffff;fill-opacity:1" />
	</g>
</g>
<g
   id="g50"
   transform="translate(-214.82227,-40.000939)"
   style="fill:#ffffff;fill-opacity:1">
	<g
   id="g48"
   style="fill:#ffffff;fill-opacity:1">
		<path
   class="st2"
   d="m 219.6,116 c -1.8,-1.5 -2.7,-3.7 -2.7,-6.5 0,-2.7 0.8,-4.7 2.5,-6.2 1.7,-1.5 4,-2.2 7.1,-2.2 h 9.4 l 0.4,3.7 h -9.8 c -1.8,0 -3.2,0.4 -4.2,1.2 -1,0.8 -1.5,2 -1.5,3.5 0,1.6 0.6,2.8 1.9,3.7 1.2,0.9 3,1.3 5.3,1.3 2.4,0 4.3,-0.2 5.7,-0.7 1.3,-0.5 2,-1.2 2,-2.1 l 0.6,3.7 c -0.6,0.6 -1.3,1.1 -2.2,1.5 -0.9,0.4 -1.9,0.8 -3,1 -1.1,0.2 -2.4,0.3 -3.7,0.3 -3.4,0.1 -6,-0.7 -7.8,-2.2 z m 16,-16.1 c 0,-2.3 -0.6,-4.1 -1.8,-5.3 -1.2,-1.3 -3,-1.9 -5.2,-1.9 -1.3,0 -2.7,0.2 -4,0.7 -1.3,0.4 -2.4,1.1 -3.4,1.9 l -2.9,-2 c 1.1,-1.3 2.5,-2.3 4.2,-3 1.8,-0.7 3.7,-1.1 5.9,-1.1 2.3,0 4.4,0.4 6,1.2 1.7,0.8 2.9,2 3.8,3.6 0.9,1.6 1.3,3.5 1.3,5.7 v 18.2 h -3.9 z"
   id="path38"
   style="fill:#ffffff;fill-opacity:1" />
		<path
   class="st2"
   d="m 252.6,116.9 c -1.8,-0.9 -3.2,-2.3 -4.1,-4.1 -0.9,-1.8 -1.3,-4.1 -1.3,-6.8 v -4.7 c 0,-2.7 0.5,-5 1.4,-6.8 0.9,-1.8 2.3,-3.2 4.1,-4.1 1.8,-0.9 4.1,-1.4 6.8,-1.4 1.5,0 3,0.2 4.2,0.5 1.3,0.3 2.4,0.8 3.4,1.5 1,0.7 1.9,1.5 2.6,2.5 l -2.9,2.6 c -1,-1.2 -2,-2 -3.3,-2.6 -1.2,-0.6 -2.5,-0.9 -4,-0.9 -2.8,0 -4.9,0.7 -6.3,2.1 -1.4,1.4 -2.1,3.5 -2.1,6.4 v 4.7 c 0,2.9 0.7,5.1 2.1,6.5 1.4,1.4 3.5,2.2 6.3,2.2 1.5,0 3,-0.3 4.2,-0.8 1.2,-0.5 2.4,-1.4 3.4,-2.5 l 2.5,2.5 c -0.7,1 -1.6,1.8 -2.6,2.5 -1,0.7 -2.1,1.1 -3.4,1.5 -1.3,0.3 -2.7,0.5 -4.2,0.5 -2.8,0.1 -5,-0.4 -6.8,-1.3 z"
   id="path40"
   style="fill:#ffffff;fill-opacity:1" />
		<path
   class="st2"
   d="m 280.4,116.9 c -1.8,-0.9 -3.2,-2.3 -4.1,-4.1 -0.9,-1.8 -1.3,-4.1 -1.3,-6.8 v -4.7 c 0,-2.7 0.5,-5 1.4,-6.8 0.9,-1.8 2.3,-3.2 4.1,-4.1 1.8,-0.9 4.1,-1.4 6.8,-1.4 1.5,0 3,0.2 4.2,0.5 1.3,0.3 2.4,0.8 3.4,1.5 1,0.7 1.9,1.5 2.6,2.5 l -2.9,2.6 c -1,-1.2 -2,-2 -3.3,-2.6 -1.2,-0.6 -2.5,-0.9 -4,-0.9 -2.8,0 -4.9,0.7 -6.3,2.1 -1.4,1.4 -2.1,3.5 -2.1,6.4 v 4.7 c 0,2.9 0.7,5.1 2.1,6.5 1.4,1.4 3.5,2.2 6.3,2.2 1.5,0 3,-0.3 4.2,-0.8 1.2,-0.5 2.4,-1.4 3.4,-2.5 l 2.5,2.5 c -0.7,1 -1.6,1.8 -2.6,2.5 -1,0.7 -2.1,1.1 -3.4,1.5 -1.3,0.3 -2.7,0.5 -4.2,0.5 -2.7,0.1 -5,-0.4 -6.8,-1.3 z"
   id="path42"
   style="fill:#ffffff;fill-opacity:1" />
		<path
   class="st2"
   d="m 308.5,116.8 c -1.9,-1 -3.3,-2.4 -4.2,-4.3 -1,-1.9 -1.5,-4.2 -1.5,-6.9 v -3.2 c 0,-2.8 0.5,-5.2 1.4,-7.2 0.9,-2 2.3,-3.5 4.1,-4.5 1.8,-1 3.9,-1.6 6.4,-1.6 2.4,0 4.4,0.5 6.1,1.5 1.7,1 3,2.5 3.8,4.5 0.8,2 1.3,4.3 1.3,7.1 v 3.2 h -20.5 v -3.5 h 16.8 v -0.3 c 0,-2.8 -0.7,-5 -2,-6.5 -1.3,-1.5 -3.2,-2.3 -5.6,-2.3 -2.6,0 -4.7,0.8 -6.1,2.4 -1.4,1.6 -2.2,3.9 -2.2,6.9 v 3.6 c 0,2.8 0.8,5 2.3,6.6 1.5,1.6 3.7,2.3 6.5,2.3 1.3,0 2.6,-0.3 3.9,-0.8 1.3,-0.5 2.4,-1.3 3.4,-2.3 l 2.7,2.6 c -1.4,1.3 -2.9,2.4 -4.7,3.1 -1.7,0.7 -3.5,1.1 -5.3,1.1 -2.5,0 -4.8,-0.5 -6.6,-1.5 z"
   id="path44"
   style="fill:#ffffff;fill-opacity:1" />
		<path
   class="st2"
   d="m 338.8,117.8 c -1.4,-0.3 -2.8,-0.7 -4,-1.3 -1.2,-0.6 -2.3,-1.3 -3.3,-2.1 l 2.3,-2.8 c 1.5,1 3.1,1.8 4.8,2.4 1.7,0.6 3.2,0.9 4.7,0.9 2.7,0 4.8,-0.5 6.3,-1.4 1.5,-0.9 2.2,-2.2 2.2,-3.9 0,-1.2 -0.4,-2.2 -1.1,-2.8 -0.7,-0.6 -1.6,-1 -2.7,-1.3 -1.1,-0.3 -2.6,-0.4 -4.6,-0.5 -0.2,0 -0.4,0 -0.6,0 -0.2,0 -0.4,0 -0.6,0 -0.1,0 -0.1,0 -0.2,0 -0.1,0 -0.1,0 -0.2,0 -1.9,-0.2 -3.4,-0.5 -4.7,-0.8 -1.3,-0.4 -2.3,-1 -3.2,-2 -0.8,-1 -1.3,-2.4 -1.3,-4.3 0,-1.8 0.4,-3.4 1.3,-4.6 0.9,-1.3 2.2,-2.2 3.9,-2.9 1.7,-0.7 3.7,-1 6.1,-1 1.2,0 2.5,0.1 3.7,0.4 1.2,0.2 2.4,0.6 3.6,1.1 1.1,0.5 2.2,1 3.1,1.7 l -2.3,2.7 c -1.3,-0.8 -2.7,-1.4 -4.2,-1.8 -1.5,-0.4 -2.8,-0.6 -4.1,-0.6 -2.4,0 -4.2,0.4 -5.5,1.3 -1.3,0.9 -2,2.1 -2,3.8 0,1.1 0.4,2 1.1,2.5 0.7,0.6 1.6,0.9 2.7,1.1 1.1,0.2 2.6,0.3 4.5,0.4 0.1,0 0.2,0 0.2,0 0.1,0 0.2,0 0.2,0 0.1,0 0.1,0 0.2,0 0.1,0 0.1,0 0.2,0 2,0.1 3.7,0.4 5.1,0.7 1.4,0.4 2.6,1.1 3.5,2.3 0.9,1.1 1.4,2.8 1.4,4.9 0,1.8 -0.5,3.4 -1.4,4.7 -0.9,1.3 -2.3,2.3 -4.1,3 -1.8,0.7 -4,1 -6.6,1 -1.5,-0.3 -2.9,-0.5 -4.4,-0.8 z"
   id="path46"
   style="fill:#ffffff;fill-opacity:1" />
	</g>
</g>

</svg>
