<?xml version="1.0"?>
<svg width="350.00001" height="142.99999" xmlns="http://www.w3.org/2000/svg" xmlns:svg="http://www.w3.org/2000/svg" version="1.1" xml:space="preserve">
 <metadata id="metadata109">image/svg+xml</metadata>

 <style id="style10" type="text/css">.st0{fill:#FFFFFF;stroke:#1A578B;stroke-width:4;stroke-miterlimit:10;}
	.st1{fill:#FFFFFF;stroke:#1A578B;stroke-width:6;stroke-miterlimit:10;}
	.st2{fill:#1A578B;}
	.st3{fill:#FFFFFF;}
	.st4{fill:#010202;}
	.st5{fill:#293173;}
	.st6{fill:#E10814;}
	.st7{fill:#9D9D9C;}</style>
 <g class="layer">
  <title>Layer 1</title>
  <path class="st0" d="m475.8,238.9" id="path12"/>
  <path class="st0" d="m540.8,238.9" id="path14"/>
  <polyline class="st1" id="polyline16" points="270.86962890625,118.99906158447266 270.86962890625,19.19906234741211 323.86962890625,19.19906234741211 "/>
  <polygon class="st2" id="polygon18" points="341.16961669921875,116.89905548095703 299.06964111328125,128.39905548095703 299.06964111328125,9.799060821533203 341.16961669921875,19.899063110351562 "/>
  <circle class="st3" cx="306.17" cy="73.6" id="circle20" r="3.3"/>
  <rect class="st3" height="43.2" id="rect22" width="14.1" x="261.87" y="47.5"/>
  <g id="g36">
   <g id="g34">
    <path class="st2" d="m173.77,75.5c0,0.8 0.2,1.4 0.7,1.8c0.4,0.4 1.1,0.6 1.9,0.6l1.4,0l0,8l-4.4,0c-2.5,0 -4.5,-0.7 -5.9,-2.2c-1.4,-1.5 -2.1,-3.5 -2.1,-6.1l0,-35.7l8.3,0l0,33.6l0.1,0z" id="path24"/>
    <path class="st2" d="m182.97,41.9l8.3,0l0,8.3l-8.3,0l0,-8.3zm0,12.6l8.3,0l0,31.4l-8.3,0l0,-31.4z" id="path26"/>
    <path class="st2" d="m198.97,41.9l8.3,0l0,44l-8.3,0l0,-44zm10.8,43c-1.3,-0.9 -2.3,-2.3 -3,-4l0.4,-7.2c0,1 0.2,1.9 0.5,2.6c0.4,0.7 0.9,1.3 1.6,1.7c0.7,0.4 1.5,0.6 2.5,0.6c1.6,0 2.8,-0.5 3.6,-1.5c0.9,-1 1.3,-2.5 1.3,-4.4l0,-5c0,-1.9 -0.4,-3.4 -1.3,-4.5c-0.9,-1.1 -2.1,-1.6 -3.6,-1.6c-1,0 -1.8,0.2 -2.5,0.6c-0.7,0.4 -1.2,1 -1.6,1.7c-0.4,0.7 -0.5,1.7 -0.5,2.7l-0.6,-7c0.8,-1.8 2,-3.3 3.3,-4.2c1.4,-1 2.9,-1.5 4.6,-1.5c2.2,0 4.1,0.5 5.7,1.6c1.6,1.1 2.8,2.6 3.6,4.7c0.8,2.1 1.2,4.5 1.2,7.4l0,5c0,2.9 -0.4,5.3 -1.2,7.3c-0.8,2 -2,3.6 -3.6,4.6c-1.6,1.1 -3.5,1.6 -5.7,1.6c-1.8,0.2 -3.4,-0.3 -4.7,-1.2z" id="path28"/>
    <path class="st2" d="m232.67,54.5l8.9,0l0,31.4l-8.9,0l0,-31.4zm16.1,7.8c-0.6,-0.2 -1.3,-0.3 -2,-0.3c-1.7,0 -3,0.5 -3.9,1.6c-0.9,1.1 -1.4,2.6 -1.4,4.5l-0.6,-8.2c0.9,-1.9 2,-3.3 3.4,-4.4c1.4,-1 2.9,-1.6 4.6,-1.6c1.3,0 2.5,0.2 3.6,0.6c1.1,0.4 2,1 2.8,1.8l-4.8,6.7c-0.6,-0.2 -1.1,-0.5 -1.7,-0.7z" id="path30"/>
    <path class="st2" d="m264.77,84.7c-2.1,-1.1 -3.8,-2.7 -4.9,-4.8c-1.1,-2.1 -1.7,-4.6 -1.7,-7.6l0,-3.5c0,-3.1 0.5,-5.8 1.6,-8c1.1,-2.2 2.7,-3.9 4.7,-5c2.1,-1.1 4.6,-1.7 7.5,-1.7c2.7,0 5.1,0.7 7,2.1c2,1.4 3.4,3.4 4.5,6c1,2.6 1.5,5.8 1.5,9.4l0,2.1l-21.5,0l0,-5.7l13.9,0l-0.1,-0.7c-0.2,-1.8 -0.8,-3.2 -1.7,-4.2c-0.9,-1 -2.1,-1.5 -3.7,-1.5c-2,0 -3.5,0.6 -4.6,1.8c-1.1,1.2 -1.6,2.9 -1.6,5l0,4c0,2.1 0.6,3.8 1.8,5c1.2,1.2 2.9,1.8 5,1.8c1.1,0 2.2,-0.2 3.3,-0.6c1.1,-0.4 2.1,-1 3,-1.7l5.4,4.8c-1.6,1.5 -3.5,2.6 -5.5,3.5c-2,0.9 -4.1,1.2 -6.2,1.2c-3,-0.1 -5.6,-0.6 -7.7,-1.7z" id="path32"/>
   </g>
  </g>
  <g id="g50">
   <g id="g48">
    <path class="st2" d="m19.97,84c-1.8,-1.5 -2.7,-3.7 -2.7,-6.5c0,-2.7 0.8,-4.7 2.5,-6.2c1.7,-1.5 4,-2.2 7.1,-2.2l9.4,0l0.4,3.7l-9.8,0c-1.8,0 -3.2,0.4 -4.2,1.2c-1,0.8 -1.5,2 -1.5,3.5c0,1.6 0.6,2.8 1.9,3.7c1.2,0.9 3,1.3 5.3,1.3c2.4,0 4.3,-0.2 5.7,-0.7c1.3,-0.5 2,-1.2 2,-2.1l0.6,3.7c-0.6,0.6 -1.3,1.1 -2.2,1.5c-0.9,0.4 -1.9,0.8 -3,1c-1.1,0.2 -2.4,0.3 -3.7,0.3c-3.4,0.1 -6,-0.7 -7.8,-2.2zm16,-16.1c0,-2.3 -0.6,-4.1 -1.8,-5.3c-1.2,-1.3 -3,-1.9 -5.2,-1.9c-1.3,0 -2.7,0.2 -4,0.7c-1.3,0.4 -2.4,1.1 -3.4,1.9l-2.9,-2c1.1,-1.3 2.5,-2.3 4.2,-3c1.8,-0.7 3.7,-1.1 5.9,-1.1c2.3,0 4.4,0.4 6,1.2c1.7,0.8 2.9,2 3.8,3.6c0.9,1.6 1.3,3.5 1.3,5.7l0,18.2l-3.9,0l0,-18z" id="path38"/>
    <path class="st2" d="m52.97,84.9c-1.8,-0.9 -3.2,-2.3 -4.1,-4.1c-0.9,-1.8 -1.3,-4.1 -1.3,-6.8l0,-4.7c0,-2.7 0.5,-5 1.4,-6.8c0.9,-1.8 2.3,-3.2 4.1,-4.1c1.8,-0.9 4.1,-1.4 6.8,-1.4c1.5,0 3,0.2 4.2,0.5c1.3,0.3 2.4,0.8 3.4,1.5c1,0.7 1.9,1.5 2.6,2.5l-2.9,2.6c-1,-1.2 -2,-2 -3.3,-2.6c-1.2,-0.6 -2.5,-0.9 -4,-0.9c-2.8,0 -4.9,0.7 -6.3,2.1c-1.4,1.4 -2.1,3.5 -2.1,6.4l0,4.7c0,2.9 0.7,5.1 2.1,6.5c1.4,1.4 3.5,2.2 6.3,2.2c1.5,0 3,-0.3 4.2,-0.8c1.2,-0.5 2.4,-1.4 3.4,-2.5l2.5,2.5c-0.7,1 -1.6,1.8 -2.6,2.5c-1,0.7 -2.1,1.1 -3.4,1.5c-1.3,0.3 -2.7,0.5 -4.2,0.5c-2.8,0.1 -5,-0.4 -6.8,-1.3z" id="path40"/>
    <path class="st2" d="m80.77,84.9c-1.8,-0.9 -3.2,-2.3 -4.1,-4.1c-0.9,-1.8 -1.3,-4.1 -1.3,-6.8l0,-4.7c0,-2.7 0.5,-5 1.4,-6.8c0.9,-1.8 2.3,-3.2 4.1,-4.1c1.8,-0.9 4.1,-1.4 6.8,-1.4c1.5,0 3,0.2 4.2,0.5c1.3,0.3 2.4,0.8 3.4,1.5c1,0.7 1.9,1.5 2.6,2.5l-2.9,2.6c-1,-1.2 -2,-2 -3.3,-2.6c-1.2,-0.6 -2.5,-0.9 -4,-0.9c-2.8,0 -4.9,0.7 -6.3,2.1c-1.4,1.4 -2.1,3.5 -2.1,6.4l0,4.7c0,2.9 0.7,5.1 2.1,6.5c1.4,1.4 3.5,2.2 6.3,2.2c1.5,0 3,-0.3 4.2,-0.8c1.2,-0.5 2.4,-1.4 3.4,-2.5l2.5,2.5c-0.7,1 -1.6,1.8 -2.6,2.5c-1,0.7 -2.1,1.1 -3.4,1.5c-1.3,0.3 -2.7,0.5 -4.2,0.5c-2.7,0.1 -5,-0.4 -6.8,-1.3z" id="path42"/>
    <path class="st2" d="m108.87,84.8c-1.9,-1 -3.3,-2.4 -4.2,-4.3c-1,-1.9 -1.5,-4.2 -1.5,-6.9l0,-3.2c0,-2.8 0.5,-5.2 1.4,-7.2c0.9,-2 2.3,-3.5 4.1,-4.5c1.8,-1 3.9,-1.6 6.4,-1.6c2.4,0 4.4,0.5 6.1,1.5c1.7,1 3,2.5 3.8,4.5c0.8,2 1.3,4.3 1.3,7.1l0,3.2l-20.5,0l0,-3.5l16.8,0l0,-0.3c0,-2.8 -0.7,-5 -2,-6.5c-1.3,-1.5 -3.2,-2.3 -5.6,-2.3c-2.6,0 -4.7,0.8 -6.1,2.4c-1.4,1.6 -2.2,3.9 -2.2,6.9l0,3.6c0,2.8 0.8,5 2.3,6.6c1.5,1.6 3.7,2.3 6.5,2.3c1.3,0 2.6,-0.3 3.9,-0.8c1.3,-0.5 2.4,-1.3 3.4,-2.3l2.7,2.6c-1.4,1.3 -2.9,2.4 -4.7,3.1c-1.7,0.7 -3.5,1.1 -5.3,1.1c-2.5,0 -4.8,-0.5 -6.6,-1.5z" id="path44"/>
    <path class="st2" d="m139.17,85.8c-1.4,-0.3 -2.8,-0.7 -4,-1.3c-1.2,-0.6 -2.3,-1.3 -3.3,-2.1l2.3,-2.8c1.5,1 3.1,1.8 4.8,2.4c1.7,0.6 3.2,0.9 4.7,0.9c2.7,0 4.8,-0.5 6.3,-1.4c1.5,-0.9 2.2,-2.2 2.2,-3.9c0,-1.2 -0.4,-2.2 -1.1,-2.8c-0.7,-0.6 -1.6,-1 -2.7,-1.3c-1.1,-0.3 -2.6,-0.4 -4.6,-0.5c-0.2,0 -0.4,0 -0.6,0c-0.2,0 -0.4,0 -0.6,0c-0.1,0 -0.1,0 -0.2,0c-0.1,0 -0.1,0 -0.2,0c-1.9,-0.2 -3.4,-0.5 -4.7,-0.8c-1.3,-0.4 -2.3,-1 -3.2,-2c-0.8,-1 -1.3,-2.4 -1.3,-4.3c0,-1.8 0.4,-3.4 1.3,-4.6c0.9,-1.3 2.2,-2.2 3.9,-2.9c1.7,-0.7 3.7,-1 6.1,-1c1.2,0 2.5,0.1 3.7,0.4c1.2,0.2 2.4,0.6 3.6,1.1c1.1,0.5 2.2,1 3.1,1.7l-2.3,2.7c-1.3,-0.8 -2.7,-1.4 -4.2,-1.8c-1.5,-0.4 -2.8,-0.6 -4.1,-0.6c-2.4,0 -4.2,0.4 -5.5,1.3c-1.3,0.9 -2,2.1 -2,3.8c0,1.1 0.4,2 1.1,2.5c0.7,0.6 1.6,0.9 2.7,1.1c1.1,0.2 2.6,0.3 4.5,0.4c0.1,0 0.2,0 0.2,0c0.1,0 0.2,0 0.2,0c0.1,0 0.1,0 0.2,0c0.1,0 0.1,0 0.2,0c2,0.1 3.7,0.4 5.1,0.7c1.4,0.4 2.6,1.1 3.5,2.3c0.9,1.1 1.4,2.8 1.4,4.9c0,1.8 -0.5,3.4 -1.4,4.7c-0.9,1.3 -2.3,2.3 -4.1,3c-1.8,0.7 -4,1 -6.6,1c-1.5,-0.3 -2.9,-0.5 -4.4,-0.8z" id="path46"/>
   </g>
  </g>
 </g>
</svg>