<svg width="16" height="16" viewBox="0 0 16 16" fill="none" xmlns="http://www.w3.org/2000/svg">
<g clip-path="url(#clip0_9_8736)">
<g clip-path="url(#clip1_9_8736)">
<g clip-path="url(#clip2_9_8736)">
<path d="M15.7062 1.70627L14.4562 2.95627C14.0655 3.3469 13.4312 3.3469 13.0405 2.95627C12.6499 2.56565 12.6499 1.93127 13.0405 1.54065L14.2905 0.290649C14.6812 -0.0999756 15.3155 -0.0999756 15.7062 0.290649C16.0968 0.681274 16.0968 1.31565 15.7062 1.70627ZM5.70615 11.7063L1.70615 15.7063C1.31553 16.0969 0.681152 16.0969 0.290527 15.7063C-0.100098 15.3156 -0.100098 14.6813 0.290527 14.2906L4.29053 10.2906C4.68115 9.90002 5.31553 9.90002 5.70615 10.2906C6.09678 10.6813 6.09678 11.3156 5.70615 11.7063ZM7.4999 4.00002C5.6999 4.00002 4.21553 5.36252 4.02178 7.1094C3.9624 7.6594 3.46553 8.05315 2.91865 7.99377C2.37178 7.9344 1.9749 7.43752 2.03428 6.89065C2.3374 4.14065 4.66865 2.00002 7.4999 2.00002C10.5374 2.00002 12.9999 4.46252 12.9999 7.50002C12.9999 8.93752 12.4468 10.2469 11.5437 11.2281C11.1687 11.6344 10.9999 12.0031 10.9999 12.3125V12.5C10.9999 14.4344 9.43428 16 7.4999 16C6.94678 16 6.4999 15.5532 6.4999 15C6.4999 14.4469 6.94678 14 7.4999 14C8.32803 14 8.9999 13.3281 8.9999 12.5V12.3094C8.9999 11.2813 9.54365 10.4469 10.0749 9.8719C10.6499 9.2469 10.9999 8.41565 10.9999 7.50002C10.9999 5.56565 9.43428 4.00002 7.4999 4.00002ZM7.4999 6.50002C6.94678 6.50002 6.4999 6.9469 6.4999 7.50002C6.4999 7.91565 6.16553 8.25002 5.7499 8.25002C5.33428 8.25002 4.9999 7.91565 4.9999 7.50002C4.9999 6.11877 6.11865 5.00002 7.4999 5.00002C8.88115 5.00002 9.9999 6.11877 9.9999 7.50002C9.9999 7.91565 9.66553 8.25002 9.2499 8.25002C8.83428 8.25002 8.4999 7.91565 8.4999 7.50002C8.4999 6.9469 8.05303 6.50002 7.4999 6.50002Z" fill="black"/>
</g>
</g>
</g>
<defs>
<clipPath id="clip0_9_8736">
<rect width="16" height="16" fill="white"/>
</clipPath>
<clipPath id="clip1_9_8736">
<rect width="16" height="16" fill="white"/>
</clipPath>
<clipPath id="clip2_9_8736">
<rect width="16" height="16" fill="white"/>
</clipPath>
</defs>
</svg>
