<svg id="82a82db2-a770-43da-9177-e6ead2795749" data-name="Calque 1" xmlns="http://www.w3.org/2000/svg" width="510.23" height="500" viewBox="0 0 510.23 500"><title>Plan de travail 1 copie 3</title><path d="M404.64,182.29c.51,6.52.4,35.14-34,75.24-36.16,42.09-62.54,88.95-68.85,122.28l-.06.34c-7.16,37.86-14.57,77-62.86,77-46.25,0-67.31-29-67.31-55.87h26.4c0,13.59,10.71,29.47,40.91,29.47,25.14,0,29.12-14.27,36.92-55.52l.06-.34c8.51-45,44.2-99,74.76-134.58,29.18-34,27.82-55.45,27.79-55.65l-.12-1.75a84.62,84.62,0,1,0-165.86,23.78L187,214.12A111,111,0,0,1,377,109.73L485.74-1l18.83,18.5L392.18,131.93A110.29,110.29,0,0,1,404.64,182.29Zm-169,64.06L5.65,480.5,24.49,499l230-234.15Zm96.9-19.68A54.83,54.83,0,0,0,255,149.12l18.67,18.67a28.43,28.43,0,0,1,40.2,40.2Z"/></svg>