<svg id="b29a98e9-89f6-495c-b6c2-5590be13d1ab" data-name="Calque 1" xmlns="http://www.w3.org/2000/svg" width="492.65" height="500" viewBox="0 0 492.65 500"><title>Plan de travail 1 copie 2</title><path d="M163.51,500c-44.24,0-81.67-8.37-155-76.83a10.93,10.93,0,0,1,14.92-16c72.12,67.34,104.11,71.71,148.16,70.87,15.2-.29,25.39-3.43,30.27-9.34,4.23-5.12,5.25-13.62,3.12-26-3.78-21.91,2.63-39.65,6.88-51.4.48-1.32.92-2.55,1.32-3.7-4.45-2-13.37-4.45-20.24-6.31a303.42,303.42,0,0,1-29.2-9c-22-8.42-34.85-32.41-35.66-46.48-.6-10.61,5.32-14.87,7.89-16.21,4.13-2.15,11-3.18,20.2,4.11,12.09,9.57,27.45,13.23,45.23,17.46,7.85,1.87,16,3.8,24.22,6.38,5.25,1.64,7.56,1.07,8,.74,1.13-.94,1.7-5.16,1.46-7.32-1.41-10,3.4-31.23,31.94-38.37,3.13-.78,4.22-2.2,4.94-3.61,3.86-7.6-.55-24.27-3.22-30.93-1.89-4.21-23.25-52.88-28.29-112.32-4.79-56.44-42-119.94-42.38-120.58A10.93,10.93,0,0,1,216.87,14c1.64,2.76,40.13,68.37,45.35,129.86,4.83,57,26.3,104.88,26.51,105.36l.17.4c1.26,3.08,12,30.64,2.54,49.24a28.47,28.47,0,0,1-19.13,14.92c-16.8,4.2-15.58,14.31-15.56,14.41.24,2.07,1.69,17.92-9.22,26.93-4.87,4-13.75,7.86-28.39,3.27-7.53-2.35-15.28-4.2-22.77-6-13.43-3.2-27.19-6.48-39.78-12.78,3.65,5,8.71,9.83,15,12.22,8.9,3.4,18.57,6,27.11,8.33,17.51,4.74,30.16,8.17,35.28,17.23A16.22,16.22,0,0,1,235.4,390c-.79,2.77-1.85,5.69-3,8.78-3.87,10.71-8.69,24-5.89,40.26,3.28,19,.73,33.29-7.81,43.61-9.26,11.2-24.53,16.85-46.7,17.27Q167.72,500,163.51,500ZM140.82,329.64ZM284.57,500h-.18l-1.38-.09c-22.13-2.84-42.6-7.33-42.6-20.88a10.93,10.93,0,0,1,19.77-6.43c2,1,8.28,3.36,24.93,5.54,109.75-.31,134.76-96.74,140.42-138.25,2.38-17.43,3.63-29.38,4.54-38.11,1.83-17.51,3-28.39,16.23-29.32,7.65-3.19,7.43-18.84,6.6-33.38l-.09-1.59c-1.21-21.78,8-57.3,12-71.57,1.38-4.9,1.26-8.45-.33-10.56-1.11-1.46-6.18-6.24-24.81-6.24H428.4l.34-11.26c3-99-16.58-122-16.78-122.21a3.08,3.08,0,0,0,.36.36L427.2,0c4.33,4,25.2,28.66,23.64,127.81,14.7,1.52,24.91,6.25,31.05,14.36,4.09,5.4,8.1,14.93,3.95,29.67-7.62,27.11-11.92,51.79-11.22,64.44l.09,1.55c.89,15.48,2.71,47.27-21.7,55.46-.37,2.73-.79,6.68-1.22,10.77-.88,8.37-2.2,21-4.62,38.79-3.7,27.15-13.42,66.47-38.7,99.57C379.3,480.62,337.61,500,284.57,500Zm-22.31-21h0Zm0,0h0Zm0,0h0Zm0,0h0Zm0,0h0Zm0-.05v0Zm0,0v0Zm0-.21c0,.07,0,.14,0,.21S262.26,478.7,262.26,478.63Zm0,0h0Zm0,0h0Zm78.64-96.77a10.93,10.93,0,1,0-9.77-19.55c-25.71,12.85-60,4.26-60.37,4.17h0a10.93,10.93,0,0,0-5.5,21.15,135.4,135.4,0,0,0,31.39,3.6C310.21,391.21,326.3,389.13,340.9,381.83Zm5.55-198.31c-8.36,0-19.86-.9-35.75-3.13a9.1,9.1,0,0,1-6.08-14.4c5.08-6.93,23-29.34,39.81-25.93a33.15,33.15,0,0,1,21.2,15c4,6.29,5.47,13,4.09,18.53C368.62,178,367.24,183.52,346.44,183.52Zm-15.89-19.2a183.35,183.35,0,0,0,20,.89c-1.81-2.94-5.15-6.39-9.67-7.29C339,157.7,335,160.33,330.56,164.32Zm-171.33,21.4c-12.35,0-26.25-1.94-34.75-7.6a9.1,9.1,0,0,1-1.77-13.61c5.88-6.66,26.34-28.12,42.73-24.61,13.24,2.84,24.51,17.81,25.36,28.8.51,6.57-2.65,12-8.25,14.13C178.34,184.43,169.3,185.72,159.22,185.72Zm-12.77-19a99.07,99.07,0,0,0,25,.09c-2-3.64-6.06-8.28-9.84-9.09C159.07,157.33,152.92,161.21,146.45,166.71Z"/></svg>