<?xml version="1.0" encoding="iso-8859-1"?>
<!-- Generator: Adobe Illustrator 18.1.1, SVG Export Plug-In . SVG Version: 6.00 Build 0)  -->
<svg version="1.1" id="Capa_1" xmlns="http://www.w3.org/2000/svg" xmlns:xlink="http://www.w3.org/1999/xlink" x="0px" y="0px"
	 viewBox="0 0 492 492" style="enable-background:new 0 0 492 492;" xml:space="preserve">
<g>
	<g>
		<path style="fill:#010002;" d="M162,82c11.333,0,21-4,29-12s12-17.667,12-29s-4-21-12-29S173.333,0,162,0s-21,4-29,12
			s-12,17.667-12,29s4,21,12,29S150.667,82,162,82z"/>
		<path style="fill:#010002;" d="M191,458c-35.333,0-65.333-12.5-90-37.5S64,365,64,329c0-38.667,15-71,45-97l-3-40
			c-22.667,14.667-40.833,34.167-54.5,58.5S31,301,31,329c0,45.333,15.667,83.833,47,115.5S147,492,191,492
			c31.333,0,60.5-9.833,87.5-29.5s46.833-44.167,59.5-73.5l-24-33c-6,29.333-20.5,53.667-43.5,73S221,458,191,458z"/>
		<path style="fill:#010002;" d="M441,379h-21l-82-113c-11.333-20-25-30-41-30h-92v-41h82c14.667,0,22-5.167,22-15.5
			s-7.333-15.5-22-15.5h-82v-41c-1.333-20.667-15-30.667-41-30c-20.667,0.667-31,10.667-31,30v143c2,20.667,15.667,31,41,31h123
			l72,92l20,31h52c5.333,0,10-2,14-6s6-8.833,6-14.5s-2-10.5-6-14.5S446.333,379,441,379z"/>
	</g>
</g>
<g>
</g>
<g>
</g>
<g>
</g>
<g>
</g>
<g>
</g>
<g>
</g>
<g>
</g>
<g>
</g>
<g>
</g>
<g>
</g>
<g>
</g>
<g>
</g>
<g>
</g>
<g>
</g>
<g>
</g>
</svg>
