<svg id="8b97e20a-c8e6-4906-841d-155de7b1174f" data-name="Calque 1" xmlns="http://www.w3.org/2000/svg" width="616.59" height="500" viewBox="0 0 616.59 500"><title>Plan de travail 1 copie</title><path d="M608.44,249.52l-2.6-4L604,242.67c-3.89-6.06-95.6-145.08-288-151.45-3.25-.19-6.53-.31-9.83-.31V91c-1.29,0-2.53-.09-3.82-.09-.8,0-1.56,0-2.36.05L278.05,0,252.31,6.21,273,92C157.37,100.2,82.83,155.33,43.18,195.71c-22.48,22.89-33.77,41-35,43.09h0S15.61,268.92,35.78,289A368.18,368.18,0,0,0,71.3,323.27l-22.69-94c3.72-4.31,8-9,12.87-14,3.34-3.41,7-7,10.91-10.58L107.5,350.18a356.43,356.43,0,0,0,31.68,18.38L95,185.54l1-.82c7.93-6,16.08-11.64,24.39-16.88l52,215.69c9.47,3.68,19.35,7,29.66,10L144.4,154.18q13.09-6.75,26.75-12.25l62.55,259.24q13.7,2.65,28.29,4.33l-17.93-74.3a99.56,99.56,0,0,0,34,17.64l14.22,58.92c4.86.18,9.77.3,14.77.3,4.22,0,8.37-.09,12.5-.21l-13.26-55a99.84,99.84,0,0,0,28.69-4.22L371.45,500l25.74-6.21-20.44-84.72q12.61-2.43,24.47-5.63c136.68-36.53,200.24-142.06,203.09-146.9l2.27-3.87ZM427.28,140c2.19.84,4.41,1.65,6.56,2.52.62.25,1.22.52,1.83.78,3,1.25,6.06,2.52,9,3.83.8.36,1.55.73,2.35,1.09,2.72,1.24,5.44,2.48,8.08,3.77,1,.48,1.91,1,2.88,1.46,2.4,1.2,4.8,2.39,7.13,3.62,1.06.56,2.08,1.15,3.13,1.71,2.17,1.17,4.36,2.34,6.46,3.54.9.51,1.75,1,2.64,1.56,2.2,1.28,4.41,2.55,6.54,3.85.5.31,1,.62,1.48.93,2.47,1.52,4.91,3,7.28,4.59l1.4.94c2.36,1.55,4.69,3.1,7,4.67l1.12.8c2.31,1.61,4.6,3.23,6.81,4.85l1,.75c2.22,1.64,4.41,3.28,6.52,4.92l1.09.86c2,1.6,4.07,3.19,6,4.78.57.46,1.09.92,1.65,1.38,1.71,1.41,3.41,2.82,5,4.22.6.52,1.16,1,1.75,1.54,1.53,1.33,3.07,2.66,4.53,4l1.05,1c1.64,1.49,3.27,3,4.82,4.43l.29.28c1.78,1.68,3.52,3.34,5.18,5l.3.3c1.64,1.61,3.23,3.2,4.75,4.76l1,1c1.25,1.29,2.5,2.58,3.66,3.82l1.07,1.16c1.08,1.16,2.16,2.33,3.17,3.44l.64.72c2.42,2.7,4.64,5.25,6.61,7.59l.69.84c2.88,3.45,5.27,6.48,7.12,8.91-15.09,21.66-67,87.65-158.73,120.29,33.82-29.91,54-72.64,54-118.76,0-43.94-18.3-83.8-47.87-112.85C425.26,139.23,426.26,139.63,427.28,140Zm-212,71.7-19-78.75q13.71-4.26,27.94-7.35l13.26,55A100.09,100.09,0,0,0,215.24,211.73Zm45.46-47.63L250.29,121q14.28-2,29-2.85l8.84,36.65A99.14,99.14,0,0,0,260.69,164.1Zm54.41-10.55-8.7-36.07c2.61,0,5.22.07,7.79.16,73.17,4,131.42,62.6,131.42,134.06,0,51.45-30.3,97.87-77.77,120.42l-8.36-34.64A99.86,99.86,0,0,0,315.1,153.55Z"/></svg>