<svg width="64" height="64" viewBox="0 0 64 64" fill="none" xmlns="http://www.w3.org/2000/svg">
<path fill-rule="evenodd" clip-rule="evenodd" d="M52.8 59.9999C52.3589 59.9999 52 59.641 52 59.1999C52 58.7587 52.3589 58.3999 52.8 58.3999C53.2411 58.3999 53.6 58.7587 53.6 59.1999C53.6 59.641 53.2411 59.9999 52.8 59.9999Z" fill="#ECECFE"/>
<path fill-rule="evenodd" clip-rule="evenodd" d="M60.0002 5.6C59.5591 5.6 59.2002 5.24112 59.2002 4.8C59.2002 4.35884 59.5591 4 60.0002 4C60.4413 4 60.8002 4.35884 60.8002 4.8C60.8002 5.24112 60.4413 5.6 60.0002 5.6Z" fill="#ECECFE"/>
<path fill-rule="evenodd" clip-rule="evenodd" d="M8.8 11.2001C8.35888 11.2001 8 10.8412 8 10.4001C8 9.95894 8.35888 9.6001 8.8 9.6001C9.24112 9.6001 9.6 9.95894 9.6 10.4001C9.6 10.8412 9.24112 11.2001 8.8 11.2001Z" fill="#ECECFE"/>
<path fill-rule="evenodd" clip-rule="evenodd" d="M7.1999 57.6C6.75878 57.6 6.3999 57.2411 6.3999 56.8C6.3999 56.3588 6.75878 56 7.1999 56C7.64102 56 7.9999 56.3588 7.9999 56.8C7.9999 57.2411 7.64102 57.6 7.1999 57.6Z" fill="#ECECFE"/>
<path fill-rule="evenodd" clip-rule="evenodd" d="M54.4907 47.2676C54.8952 47.4452 55.0792 47.9171 54.9016 48.3217C53.0231 52.6011 49.7786 56.9021 44.2032 58.5273C43.779 58.6509 43.335 58.4073 43.2113 57.9831C43.0877 57.5589 43.3313 57.1148 43.7555 56.9912C48.7027 55.5492 51.6611 51.7232 53.4366 47.6785C53.6142 47.274 54.0861 47.09 54.4907 47.2676Z" fill="#E1000F"/>
<path fill-rule="evenodd" clip-rule="evenodd" d="M30.3118 6.43793C30.7327 6.3037 31.1828 6.53613 31.317 6.95707C31.9144 8.83054 32.2869 10.6023 32.518 12.2917C32.5779 12.7294 32.2716 13.1328 31.8338 13.1927C31.3961 13.2526 30.9927 12.9463 30.9328 12.5086C30.7128 10.9009 30.3592 9.22002 29.7926 7.44316C29.6584 7.02222 29.8908 6.57216 30.3118 6.43793ZM31.9568 16.0004C32.3985 15.988 32.7666 16.3359 32.7791 16.7776C32.8838 20.4969 33.5023 23.9182 34.0969 26.4135C34.3938 27.6597 34.6839 28.6712 34.8989 29.3691C35.0064 29.7179 35.0951 29.9881 35.1564 30.1697C35.187 30.2605 35.2108 30.3292 35.2267 30.3745L35.2434 30.4215C36.8219 34.1656 36.5062 36.4443 35.3948 37.7883C34.8611 38.4339 34.2056 38.7787 33.6914 38.9629C33.4327 39.0555 33.2027 39.1101 33.0295 39.1426C32.9426 39.1589 32.8694 39.1697 32.8135 39.1769C32.7742 39.1819 32.7092 39.189 32.7213 39.1875C32.6456 39.1965 32.585 39.2071 32.537 39.2176C32.5691 39.5172 32.6641 39.8719 32.7816 40.2986C32.8483 40.5405 32.9225 40.8098 32.9719 41.0634C33.0197 41.3091 33.0597 41.611 33.0174 41.9086C33.016 41.9187 33.0143 41.9287 33.0125 41.9388C32.9358 42.3616 32.7789 42.722 32.5382 43.0093C32.2964 43.298 32.0047 43.4713 31.7237 43.5716C31.276 43.7313 30.7853 43.7126 30.6085 43.7059C30.5846 43.705 30.5664 43.7043 30.5548 43.7043C29.8976 43.7043 29.1486 43.6382 28.3706 43.5326C28.3934 43.5414 28.4157 43.5499 28.4377 43.5583C28.672 43.6477 28.86 43.7176 28.9888 43.765C29.0532 43.7886 29.1028 43.8067 29.136 43.8187L29.1733 43.8321L29.1824 43.8354L29.1845 43.8361C29.6007 43.9844 29.8183 44.4422 29.67 44.8584C29.5218 45.2746 29.0642 45.4918 28.6479 45.3435L28.9164 44.5899C28.6479 45.3435 28.6479 45.3435 28.6479 45.3435L28.6437 45.342L28.6328 45.3381L28.5918 45.3233C28.556 45.3104 28.5038 45.2914 28.4366 45.2667C28.3023 45.2173 28.1083 45.1451 27.8673 45.0532C27.3856 44.8693 26.7148 44.606 25.9576 44.2875C24.4544 43.6551 22.5682 42.7878 21.1484 41.8798C20.8128 41.6652 20.6862 41.2365 20.8514 40.874C21.0167 40.5116 21.4234 40.3259 21.8054 40.4384L21.8087 40.4394L21.8202 40.4428L21.8672 40.4564C21.9089 40.4685 21.971 40.4863 22.0514 40.5091C22.2124 40.5547 22.4469 40.6202 22.7386 40.6988C23.3223 40.8562 24.1335 41.0659 25.0429 41.2755C26.8843 41.6998 29.0495 42.1043 30.5548 42.1043C30.6286 42.1043 30.6789 42.1059 30.7232 42.1073C30.7846 42.1092 30.8345 42.1107 30.9198 42.1073C31.0332 42.1027 31.1203 42.088 31.186 42.0646C31.2445 42.0438 31.2815 42.0179 31.3117 41.9818C31.3421 41.9456 31.3978 41.8603 31.4344 41.6733C31.4375 41.6348 31.4351 41.5426 31.4014 41.3694C31.3658 41.1866 31.3091 40.9777 31.2391 40.7236C31.2335 40.7033 31.2278 40.6827 31.222 40.6617C31.1008 40.2228 30.94 39.6408 30.9263 39.0884C30.9195 39.036 30.9153 38.974 30.9179 38.9043C30.9245 38.7309 30.9734 38.5162 31.1147 38.3052C31.3989 37.8807 31.9094 37.6722 32.5371 37.5981C32.5396 37.5978 32.5435 37.5974 32.5474 37.597C32.6754 37.5829 33.5696 37.4849 34.1618 36.7688C34.7133 36.1017 35.2542 34.5553 33.761 31.024C33.7557 31.0115 33.7508 30.9989 33.7461 30.9861L34.4979 30.7125C33.7461 30.9861 33.7461 30.9861 33.7461 30.9861L33.7453 30.9839L33.7437 30.9794L33.738 30.9635L33.7171 30.9046C33.6991 30.8534 33.6732 30.7786 33.6404 30.6815C33.5748 30.4872 33.4818 30.2035 33.3698 29.8403C33.146 29.1139 32.8465 28.0687 32.5405 26.7843C31.9291 24.2186 31.2884 20.6837 31.1797 16.8226C31.1672 16.381 31.5152 16.0129 31.9568 16.0004Z" fill="#E1000F"/>
<path fill-rule="evenodd" clip-rule="evenodd" d="M28.1917 44.2511C28.3788 43.8508 28.855 43.6781 29.2552 43.8652C30.3736 44.3881 31.0098 45.2618 30.8753 46.274C30.7536 47.1905 30.0275 47.8905 29.2082 48.1966C29.0985 48.2374 29.0107 48.2776 28.9444 48.3154C28.9221 48.3281 28.9038 48.3397 28.8891 48.3497C29.2161 49.484 29.3794 50.2136 29.4608 50.673C29.5028 50.9095 29.5238 51.0784 29.5339 51.1972C29.5388 51.254 29.5412 51.3003 29.5423 51.3379C29.6703 52.3851 29.4685 53.3875 28.922 54.2331L28.9214 54.2341C28.7091 54.5616 28.4572 54.8595 28.1777 55.1154C27.8194 55.4438 27.4099 55.7113 26.9785 55.8853L26.977 55.8859C23.7092 57.1959 19.711 56.7629 15.9644 55.5565C12.1976 54.3435 8.55186 52.307 5.90605 50.2293C5.55856 49.9564 5.49807 49.4535 5.77094 49.106C6.04382 48.7585 6.54672 48.6981 6.89422 48.9709C9.39877 50.9377 12.8773 52.8815 16.4548 54.0335C20.0522 55.1918 23.6181 55.5083 26.3808 54.4011C26.6143 54.3069 26.8633 54.1498 27.0969 53.9356C27.2744 53.7731 27.439 53.5794 27.5787 53.3641C27.9049 52.8589 28.0465 52.2284 27.9495 51.4963C27.9443 51.457 27.942 51.4173 27.9427 51.3776C27.9425 51.3714 27.9418 51.3571 27.9397 51.3335C27.9345 51.2718 27.9207 51.1515 27.8854 50.9524C27.8146 50.5532 27.6601 49.854 27.3252 48.7015C27.3228 48.6931 27.3205 48.6848 27.3184 48.6764C27.1781 48.1277 27.3433 47.6438 27.673 47.2938C27.9577 46.9917 28.3394 46.8128 28.6487 46.6976C29.0726 46.539 29.2654 46.243 29.2893 46.0632C29.3004 45.9791 29.3089 45.6565 28.5776 45.3146C28.1773 45.1275 28.0046 44.6513 28.1917 44.2511Z" fill="#E1000F"/>
<path fill-rule="evenodd" clip-rule="evenodd" d="M19.05 22.0504C18.7317 22.3232 18.4951 22.7097 18.325 23.1472C18.1648 23.559 17.7012 23.763 17.2894 23.6029C16.8776 23.4427 16.6736 22.9791 16.8337 22.5673C17.0636 21.9763 17.427 21.3342 18.0087 20.8356C18.6057 20.3239 19.391 20.0001 20.3794 20.0001C21.6613 20.0001 22.4822 20.5722 23.0108 21.2518C23.2613 21.5739 23.4398 21.9103 23.5738 22.1861C23.6341 22.3101 23.6803 22.4094 23.719 22.4928C23.7792 22.6223 23.8213 22.713 23.8704 22.797C24.093 23.1787 23.9641 23.6685 23.5824 23.8911C23.2008 24.1138 22.711 23.9849 22.4883 23.6032C22.4027 23.4565 22.3075 23.2528 22.2251 23.0765C22.1926 23.0069 22.162 22.9415 22.1349 22.8856C22.0189 22.6471 21.8974 22.4264 21.7479 22.2341C21.4765 21.8852 21.0974 21.6001 20.3794 21.6001C19.7677 21.6001 19.353 21.7906 19.05 22.0504Z" fill="#E1000F"/>
<path fill-rule="evenodd" clip-rule="evenodd" d="M56.1372 30.8058C56.5704 30.893 56.8508 31.3148 56.7636 31.7479C56.6404 32.3604 56.3184 33.754 55.1602 34.6187C55.1513 34.7714 55.1384 34.9642 55.12 35.1927C55.0704 35.8073 54.9803 36.6814 54.8181 37.7285C54.4941 39.8187 53.8795 42.6183 52.7132 45.4265C51.5478 48.2325 49.8157 51.0848 47.236 53.2352C44.6415 55.3978 41.2272 56.818 36.7762 56.8003C36.3344 56.7986 35.9776 56.439 35.9794 55.9972C35.9811 55.5553 36.3407 55.1986 36.7825 55.2003C40.8582 55.2165 43.9072 53.927 46.2115 52.0062C48.5305 50.0732 50.1326 47.4683 51.2356 44.8128C52.3375 42.1596 52.9254 39.4936 53.2369 37.4834C53.3924 36.4804 53.4782 35.6456 53.5252 35.064C53.5486 34.7733 53.5623 34.5462 53.5701 34.3933C53.574 34.3169 53.5764 34.259 53.5778 34.2211L53.5793 34.1793L53.5794 34.1768V34.1722C53.5794 33.8806 53.7381 33.612 53.9936 33.4714C54.7798 33.0386 55.0589 32.1091 55.1951 31.4322C55.2823 30.9991 55.7041 30.7186 56.1372 30.8058Z" fill="#000091"/>
<path fill-rule="evenodd" clip-rule="evenodd" d="M52.1273 5.64042C52.5469 5.50228 52.9991 5.73052 53.1373 6.1502C53.1825 6.28766 53.2265 6.42467 53.2692 6.56111C54.1497 9.37105 54.5157 11.9639 54.5963 13.244C54.6241 13.6849 54.2892 14.0649 53.8482 14.0927C53.4072 14.1204 53.0273 13.7855 52.9995 13.3445C52.9266 12.1868 52.5827 9.72127 51.7424 7.03952C51.7019 6.91022 51.6603 6.78049 51.6175 6.65043C51.4793 6.23075 51.7076 5.77855 52.1273 5.64042ZM54.3794 16.4003C54.3794 15.9585 54.7375 15.6003 55.1794 15.6003H55.1996C55.4829 15.6003 55.7468 15.6003 55.9663 15.6135C56.1774 15.6261 56.4455 15.6544 56.6898 15.7621C56.9892 15.8943 57.2282 16.1345 57.3354 16.4791C57.4221 16.7576 57.4008 17.0424 57.3723 17.256C57.3338 17.5454 57.2414 17.9414 57.1308 18.4161C57.0808 18.6306 57.027 18.8611 56.9728 19.1051C56.7891 19.9316 56.5687 21.0335 56.3723 22.506C56.2074 23.7428 56.4304 24.7572 56.711 25.7423C56.7496 25.8779 56.7908 26.0167 56.8328 26.1582C57.0799 26.99 57.3546 27.9149 57.2961 28.8502C57.2686 29.2912 56.8887 29.6263 56.4478 29.5988C56.0068 29.5712 55.6717 29.1914 55.6992 28.7504C55.7386 28.1211 55.5593 27.5083 55.3118 26.6624C55.2672 26.5098 55.2203 26.3497 55.1722 26.1805C54.8715 25.1249 54.5779 23.8578 54.7864 22.2946C54.99 20.7671 55.2196 19.619 55.4109 18.758C55.4829 18.434 55.5459 18.1644 55.5991 17.9367C55.6718 17.6256 55.7263 17.3926 55.7605 17.2056C55.611 17.2005 55.4244 17.2003 55.1794 17.2003C54.7375 17.2003 54.3794 16.8421 54.3794 16.4003Z" fill="#000091"/>
<path fill-rule="evenodd" clip-rule="evenodd" d="M34.9734 44.0242C38.0243 44.7869 41.3755 44.7747 44.7356 42.5347C45.1032 42.2896 45.5999 42.3889 45.845 42.7566C46.0901 43.1242 45.9907 43.6209 45.6231 43.866C41.7832 46.4259 37.9345 46.4137 34.5853 45.5764C34.1567 45.4693 33.8961 45.0349 34.0032 44.6063C34.1104 44.1776 34.5448 43.917 34.9734 44.0242Z" fill="#000091"/>
<path fill-rule="evenodd" clip-rule="evenodd" d="M40.1005 22.859C39.9956 23.0594 39.9794 23.178 39.9794 23.2003C39.9794 23.6421 39.6212 24.0003 39.1794 24.0003C38.7375 24.0003 38.3794 23.6421 38.3794 23.2003C38.3794 22.8225 38.5132 22.4412 38.6832 22.1166C38.8602 21.7787 39.1094 21.4388 39.4137 21.1346C40.0149 20.5334 40.9069 20.0003 41.9794 20.0003C42.9184 20.0003 43.6896 20.2375 44.2978 20.6768C44.9009 21.1124 45.2815 21.7016 45.5221 22.3032C45.6862 22.7134 45.4867 23.179 45.0765 23.3431C44.6662 23.5072 44.2007 23.3076 44.0366 22.8974C43.8772 22.499 43.6578 22.1882 43.361 21.9738C43.0692 21.7631 42.6403 21.6003 41.9794 21.6003C41.4518 21.6003 40.9438 21.8672 40.545 22.266C40.3493 22.4618 40.1986 22.6718 40.1005 22.859Z" fill="#000091"/>
<path d="M35.2001 56.0001C35.2001 56.4419 34.8419 56.8001 34.4001 56.8001C33.9583 56.8001 33.6001 56.4419 33.6001 56.0001C33.6001 55.5583 33.9583 55.2001 34.4001 55.2001C34.8419 55.2001 35.2001 55.5583 35.2001 56.0001Z" fill="#000091"/>
</svg>
